<?xml version="1.0" standalone="no"?>
<!DOCTYPE svg PUBLIC "-//W3C//DTD SVG 1.1//EN" "http://www.w3.org/Graphics/SVG/1.1/DTD/svg11.dtd" >
<svg xmlns="http://www.w3.org/2000/svg" xmlns:xlink="http://www.w3.org/1999/xlink" version="1.1">
<metadata>
Created by FontForge 20150824 at Mon Sep 26 02:18:14 2016
 By Everything Fonts
Copyright (c) 2009 typonine.com All rights reserved.
</metadata>
<defs>
<font id="TyponineSansLCLight" horiz-adv-x="450" >
  <font-face 
    font-family="TyponineSansLCLight"
    font-weight="300"
    font-stretch="normal"
    units-per-em="1000"
    panose-1="2 0 0 0 0 0 0 0 0 0"
    ascent="780"
    descent="-220"
    x-height="476"
    cap-height="650"
    bbox="-159 -236 1210 901"
    underline-thickness="50"
    underline-position="-150"
    unicode-range="U+0020-FB04"
  />
<missing-glyph horiz-adv-x="663" 
d="M0 0v650h663v-650h-663zM20 630v-610h623v610h-623zM452 196l-120 120l-119 -119l-23 23l119 118l-116 116l22 22l116 -116l119 119l22 -22l-118 -119l120 -120z" />
    <glyph glyph-name="f_f" unicode="ff" horiz-adv-x="602" 
d="M431 512v-43h146v-39h-146v-430h-49v430h-221v-430h-49v430h-81v35l81 4v20q0 94 49.5 139t127.5 45q62 0 129 -30q39 52 117 52q55 0 85 -15l-13 -51q-36 23 -74 23q-55 0 -78.5 -34.5t-23.5 -105.5zM161 493v-24h221v37q0 51 13 92q-54 33 -114 33q-54 0 -87 -34.5
t-33 -103.5z" />
    <glyph glyph-name="fi" unicode="fi" horiz-adv-x="513" 
d="M161 515v-46h270v-469h-49v430h-221v-430h-49v430h-81v35l81 4v40q0 186 183 186q73 0 125 -24l-13 -51q-50 32 -114 32q-72 0 -102 -33t-30 -104z" />
    <glyph glyph-name="fl" unicode="fl" horiz-adv-x="517" 
d="M431 685v-685h-49v637q-45 15 -89 15q-72 0 -102 -33t-30 -104v-46h133v-39h-133v-430h-49v430h-81v35l81 4v40q0 186 183 186q46 0 96 -10h40z" />
    <glyph glyph-name="f_f_i" unicode="ffi" horiz-adv-x="783" 
d="M701 469v-469h-49v430h-221v-430h-49v430h-221v-430h-49v430h-81v35l81 4v20q0 94 49.5 139t127.5 45q63 0 132 -32q45 54 144 54q73 0 125 -24l-13 -51q-50 32 -114 32q-72 0 -102 -33t-30 -104v-46h270zM161 493v-24h221v40q0 50 14 89q-57 33 -115 33q-54 0 -87 -34.5
t-33 -103.5z" />
    <glyph glyph-name="f_f_l" unicode="ffl" horiz-adv-x="787" 
d="M701 685v-685h-49v637q-45 15 -89 15q-72 0 -102 -33t-30 -104v-46h133v-39h-133v-430h-49v430h-221v-430h-49v430h-81v35l81 4v20q0 94 49.5 139t127.5 45q63 0 132 -32q45 54 144 54q46 0 96 -10h40zM161 493v-24h221v40q0 50 14 89q-57 33 -115 33q-54 0 -87 -34.5
t-33 -103.5z" />
    <glyph glyph-name="f_h" unicode="fh" horiz-adv-x="834" 
d="M431 383v-383h-49v637q-45 15 -89 15q-72 0 -102 -33t-30 -104v-46h133v-39h-133v-430h-49v430h-81v35l81 4v40q0 186 183 186q46 0 96 -10h40v-259q80 60 158 60q166 0 166 -164v-322h-49v302q0 77 -28 108.5t-90 31.5q-74 0 -157 -59z" />
    <glyph glyph-name="f_b" unicode="fb" horiz-adv-x="836" 
d="M431 685v-253q74 54 153 54q94 0 145.5 -65.5t51.5 -173.5q0 -117 -66 -187t-176 -70q-78 0 -157 34v613q-45 15 -89 15q-72 0 -102 -33t-30 -104v-46h133v-39h-133v-430h-49v430h-81v35l81 4v40q0 186 183 186q46 0 96 -10h40zM431 388v-333q50 -22 105 -22
q92 0 142.5 56t50.5 155q0 95 -42.5 147t-110.5 52q-69 0 -145 -55z" />
    <glyph glyph-name="f_j" unicode="fj" horiz-adv-x="513" 
d="M161 515v-46h270v-493q0 -101 -58.5 -152t-121.5 -48l-8 44q139 10 139 158v452h-221v-430h-49v430h-81v35l81 4v40q0 186 183 186q73 0 125 -24l-13 -51q-50 32 -114 32q-72 0 -102 -33t-30 -104z" />
    <glyph glyph-name="f_k" unicode="fk" horiz-adv-x="758" 
d="M507 253l234 -253h-66l-207 223l-37 -7v-216h-49v637q-45 15 -89 15q-72 0 -102 -33t-30 -104v-46h133v-39h-133v-430h-49v430h-81v35l81 4v40q0 186 183 186q46 0 96 -10h40v-431l27 7l192 215h60z" />
    <glyph glyph-name="f_igrave" unicode="f&#xec;" horiz-adv-x="513" 
d="M161 515v-46h270v-469h-49v430h-221v-430h-49v430h-81v35l81 4v40q0 97 38.5 141.5t100.5 44.5q35 0 69 -14l-12 -47q-33 18 -58 18q-89 0 -89 -137zM467 553l-135 118l38 37l123 -131z" />
    <glyph glyph-name="f_idieresis" unicode="f&#xef;" horiz-adv-x="513" 
d="M161 515v-46h270v-469h-49v430h-221v-430h-49v430h-81v35l81 4v40q0 97 38.5 141.5t100.5 44.5q35 0 69 -14l-12 -47q-33 18 -58 18q-89 0 -89 -137zM462 629q0 15 10 25.5t25 10.5t25.5 -10.5t10.5 -25.5t-10.5 -25t-25.5 -10t-25 10t-10 25zM334 629q0 15 10 25.5
t25 10.5t25.5 -10.5t10.5 -25.5t-10.5 -25t-25.5 -10t-25 10t-10 25z" />
    <glyph glyph-name="f_t" unicode="ft" horiz-adv-x="648" 
d="M161 512v-43h206l25 1l7 131h41v-132h171v-39h-171v-275q0 -68 23 -94.5t70 -26.5q49 0 84 30l15 -45q-49 -29 -110 -29q-65 0 -98 36.5t-33 127.5v276h-230v-430h-49v430h-81v35l81 4v37q0 97 40.5 143t112.5 46q55 0 85 -15l-13 -51q-36 23 -74 23q-55 0 -78.5 -34.5
t-23.5 -105.5z" />
    <glyph glyph-name="t_t" unicode="tt" horiz-adv-x="660" 
d="M452 430v-275q0 -68 23 -94.5t70 -26.5q49 0 84 30l15 -45q-49 -29 -110 -29q-65 0 -98 36.5t-33 127.5v276h-252v-275q0 -68 23 -94.5t70 -26.5q49 0 84 30l15 -45q-49 -29 -110 -29q-65 0 -98 36.5t-33 127.5v276h-73v37l74 3l7 131h41v-132h228l25 1l7 131h41v-132
h171v-39h-171z" />
    <glyph glyph-name="f_f_b" unicode="ffb" horiz-adv-x="1106" 
d="M431 515v-46h133v-39h-133v-430h-49v430h-221v-430h-49v430h-81v35l81 4v20q0 94 49.5 139t127.5 45q63 0 132 -32q45 54 144 54q46 0 96 -10h40v-253q74 54 153 54q94 0 145.5 -65.5t51.5 -173.5q0 -117 -66 -187t-176 -70q-78 0 -157 34v613q-45 15 -89 15
q-72 0 -102 -33t-30 -104zM701 388v-333q50 -22 105 -22q92 0 142.5 56t50.5 155q0 95 -42.5 147t-110.5 52q-69 0 -145 -55zM161 493v-24h221v40q0 50 14 89q-57 33 -115 33q-54 0 -87 -34.5t-33 -103.5z" />
    <glyph glyph-name="f_f_h" unicode="ffh" horiz-adv-x="1104" 
d="M701 383v-383h-49v637q-45 15 -89 15q-72 0 -102 -33t-30 -104v-46h133v-39h-133v-430h-49v430h-221v-430h-49v430h-81v35l81 4v20q0 94 49.5 139t127.5 45q63 0 132 -32q45 54 144 54q46 0 96 -10h40v-259q80 60 158 60q166 0 166 -164v-322h-49v302q0 77 -28 108.5
t-90 31.5q-74 0 -157 -59zM161 493v-24h221v40q0 50 14 89q-57 33 -115 33q-54 0 -87 -34.5t-33 -103.5z" />
    <glyph glyph-name="f_f_k" unicode="ffk" horiz-adv-x="1028" 
d="M777 253l234 -253h-66l-207 223l-37 -7v-216h-49v637q-45 15 -89 15q-72 0 -102 -33t-30 -104v-46h133v-39h-133v-430h-49v430h-221v-430h-49v430h-81v35l81 4v20q0 94 49.5 139t127.5 45q63 0 132 -32q45 54 144 54q46 0 96 -10h40v-431l27 7l192 215h60zM161 493v-24
h221v40q0 50 14 89q-57 33 -115 33q-54 0 -87 -34.5t-33 -103.5z" />
    <glyph glyph-name="f_f_j" unicode="ffj" horiz-adv-x="783" 
d="M431 515v-46h270v-493q0 -101 -58.5 -152t-121.5 -48l-8 44q139 10 139 158v452h-221v-430h-49v430h-221v-430h-49v430h-81v35l81 4v20q0 94 49.5 139t127.5 45q63 0 132 -32q45 54 144 54q73 0 125 -24l-13 -51q-50 32 -114 32q-72 0 -102 -33t-30 -104zM161 493v-24
h221v40q0 50 14 89q-57 33 -115 33q-54 0 -87 -34.5t-33 -103.5z" />
    <glyph glyph-name="aogonek_j" unicode="&#x105;j" horiz-adv-x="701" 
d="M571 -22v498h49v-500q0 -59 -17.5 -100.5t-47.5 -62.5t-61.5 -30t-68.5 -9q-62 0 -102.5 27.5t-40.5 78.5q0 37 22.5 71t58.5 55q-19 16 -24 47q-69 -63 -156 -63q-61 0 -99 36t-38 92q0 137 207 137q40 0 83 -5l1 84q0 60 -27.5 84t-77.5 24q-38 0 -71 -15t-33 -53
q0 -11 5 -29l-48 -5q-6 18 -6 35q0 50 47.5 80.5t110.5 30.5q61 0 104.5 -32.5t43.5 -108.5l-1 -257q0 -37 15.5 -49t37.5 -5l6 -40q-31 -7 -56 -1q-54 -43 -54 -101q0 -35 26 -57.5t77 -22.5q60 0 97.5 45t37.5 121zM336 99v111q-46 8 -88 8q-150 0 -150 -92
q0 -46 27 -69.5t75 -23.5q34 0 72.5 19.5t63.5 46.5zM562 641q0 15 10 25.5t25 10.5t25.5 -10.5t10.5 -25.5t-10.5 -25t-25.5 -10t-25 10t-10 25z" />
    <glyph glyph-name=".notdef" horiz-adv-x="663" 
d="M0 0v650h663v-650h-663zM20 630v-610h623v610h-623zM452 196l-120 120l-119 -119l-23 23l119 118l-116 116l22 22l116 -116l119 119l22 -22l-118 -119l120 -120z" />
    <glyph glyph-name=".null" horiz-adv-x="0" 
 />
    <glyph glyph-name="nonmarkingreturn" horiz-adv-x="333" 
 />
    <glyph glyph-name="space" unicode=" " horiz-adv-x="250" 
 />
    <glyph glyph-name="exclam" unicode="!" horiz-adv-x="243" 
d="M95 650h51v-229l-6 -240h-37l-8 240v229zM85 26q0 34 37 34q38 0 38 -34q0 -18 -11 -27t-27 -9q-37 0 -37 36z" />
    <glyph glyph-name="quotedbl" unicode="&#x22;" horiz-adv-x="369" 
d="M129 650l-12 -215h-31l-14 215h57zM296 650l-13 -215h-30l-15 215h58z" />
    <glyph glyph-name="numbersign" unicode="#" horiz-adv-x="608" 
d="M340 0l27 163h-173l-27 -163h-39l27 163h-102l5 35h103l29 170h-111l5 35h112l27 157h39l-27 -157h173l27 157h39l-27 -157h106l-5 -35h-107l-29 -170h115l-5 -35h-116l-27 -163h-39zM229 368l-29 -170h173l29 170h-173z" />
    <glyph glyph-name="dollar" unicode="$" horiz-adv-x="493" 
d="M227 672h40v-60q96 -3 146 -28l-18 -47q-43 31 -128 34v-230q41 -17 63.5 -28.5t51.5 -32.5t42.5 -49.5t13.5 -64.5q0 -58 -49 -99.5t-122 -49.5v-58h-40v56q-102 1 -170 40l18 47q23 -18 65.5 -32t86.5 -15v254q-38 15 -59.5 26t-47.5 30.5t-38.5 45t-12.5 59.5
q0 57 44.5 95t113.5 45v62zM384 160q0 48 -30.5 77.5t-86.5 54.5v-235q50 6 83.5 33t33.5 70zM121 473q0 -41 27.5 -66.5t78.5 -48.5v211q-50 -6 -78 -31.5t-28 -64.5z" />
    <glyph glyph-name="percent" unicode="%" horiz-adv-x="698" 
d="M204 659q78 0 115 -41t37 -110q0 -61 -36.5 -106t-115.5 -45t-115 38t-36 113q0 64 38 107.5t113 43.5zM577 567l-435 -516l-31 23l437 518zM204 396q58 0 80.5 29.5t22.5 82.5q0 46 -23 79t-80 33q-103 0 -103 -112q0 -54 21.5 -83t81.5 -29zM495 291q78 0 115 -41
t37 -110q0 -61 -36.5 -106t-115.5 -45t-115 38t-36 113q0 64 38 107.5t113 43.5zM495 28q58 0 80.5 29.5t22.5 82.5q0 46 -23 79t-80 33q-103 0 -103 -112q0 -54 21.5 -83t81.5 -29z" />
    <glyph glyph-name="ampersand" unicode="&#x26;" horiz-adv-x="735" 
d="M49 158q0 63 48 115.5t138 71.5q-22 96 -22 161q0 68 36.5 110.5t103.5 42.5q46 0 83 -31.5t37 -109.5q0 -79 -52.5 -129t-129.5 -69q36 -122 112 -202q69 83 81 209h197v-40h-156q-13 -59 -34.5 -102.5t-61.5 -91.5q71 -60 150 -61q56 0 88 47l26 -43q-43 -46 -118 -46
q-94 0 -180 71q-76 -71 -171 -71q-78 0 -126.5 50.5t-48.5 117.5zM244 310q-79 -22 -111.5 -57t-32.5 -90q0 -66 38.5 -100t89.5 -34q77 0 140 58q-79 80 -124 223zM422 512q0 109 -75 109q-37 0 -61.5 -24t-24.5 -69q0 -88 21 -173q58 15 99 55t41 102z" />
    <glyph glyph-name="quotesingle" unicode="'" horiz-adv-x="201" 
d="M129 650l-15 -215h-27l-15 215h57z" />
    <glyph glyph-name="parenleft" unicode="(" horiz-adv-x="336" 
d="M53 250q0 280 233 452l21 -28q-49 -42 -82.5 -80t-64 -88.5t-45.5 -114.5t-15 -141t15 -141t45.5 -114.5t64 -88.5t82.5 -80l-21 -28q-233 172 -233 452z" />
    <glyph glyph-name="parenright" unicode=")" horiz-adv-x="336" 
d="M283 250q0 -280 -233 -452l-21 28q49 42 82.5 80t64 88.5t45.5 114.5t15 141t-15 141t-45.5 114.5t-64 88.5t-82.5 80l21 28q233 -172 233 -452z" />
    <glyph glyph-name="asterisk" unicode="*" horiz-adv-x="442" 
d="M244 338h-50l15 125q3 -2 12 -2l7 1zM244 628l-14 -114q-4 2 -8 2q-7 0 -11 -1l-17 113h50zM194 478q4 -9 12 -14l-105 -80l-30 45zM71 537l30 46l101 -74q-10 -6 -10 -20zM340 384l-108 79q8 3 14 14l124 -49zM370 538l-122 -48q-2 13 -9 19l101 74z" />
    <glyph glyph-name="plus" unicode="+" horiz-adv-x="528" 
d="M241 110v169h-180v42h180v164h45v-164h181v-42h-181v-169h-45z" />
    <glyph glyph-name="comma" unicode="," horiz-adv-x="216" 
d="M87 57h45q-8 -103 -63 -197l-36 10q50 102 54 187z" />
    <glyph glyph-name="hyphen" unicode="-" horiz-adv-x="400" 
d="M323 235h-246v48h246v-48z" />
    <glyph glyph-name="period" unicode="." horiz-adv-x="229" 
d="M77 26q0 34 37 34q38 0 38 -34q0 -36 -38 -36q-37 0 -37 36z" />
    <glyph glyph-name="slash" unicode="/" horiz-adv-x="419" 
d="M341 685h45l-307 -749h-45z" />
    <glyph glyph-name="zero" unicode="0" horiz-adv-x="626" 
d="M315 659q245 0 245 -315q0 -49 -6 -93.5t-22.5 -93.5t-43.5 -84.5t-73 -59t-106 -23.5q-120 0 -181 85t-61 238q0 70 11.5 128t38 109t77 80t121.5 29zM316 35q46 0 81.5 19.5t56 49t33 70.5t17 78.5t4.5 79.5q0 43 -3.5 77.5t-16 74t-33 66t-58 44.5t-88.5 18
q-55 0 -94 -24.5t-59 -66.5t-28.5 -87t-8.5 -98q0 -47 3.5 -84.5t15.5 -80t32.5 -70.5t58 -47t87.5 -19z" />
    <glyph glyph-name="one" unicode="1" horiz-adv-x="332" 
d="M28 599v48l205 11v-658h-50v606z" />
    <glyph glyph-name="two" unicode="2" horiz-adv-x="522" 
d="M40 41q51 39 108 92.5t112.5 116t91.5 126.5t36 110q0 60 -38.5 93t-93.5 33q-38 0 -77.5 -19t-67.5 -49l-30 32q33 37 82.5 60t101.5 23q73 0 123.5 -43.5t50.5 -124.5q0 -92 -105.5 -222t-225.5 -223h364v-46h-432v41z" />
    <glyph glyph-name="three" unicode="3" horiz-adv-x="514" 
d="M420 518q0 -67 -44.5 -110.5t-119.5 -59.5q93 -14 144.5 -60t51.5 -117q0 -75 -56.5 -128t-174.5 -53q-55 0 -108 20t-68 36l31 42q28 -23 71 -38t84 -15q67 0 118 36t51 97q0 136 -247 154v38q87 8 151 46t64 102q0 48 -36.5 76t-92.5 28q-77 0 -139 -44l-22 40
q8 6 22.5 14.5t59 22.5t87.5 14q75 0 124 -40.5t49 -100.5z" />
    <glyph glyph-name="four" unicode="4" horiz-adv-x="558" 
d="M414 179v-177h-50v177h-328v42l323 429h55v-426h103v-45h-103zM89 225h275v367z" />
    <glyph glyph-name="five" unicode="5" horiz-adv-x="508" 
d="M142 603v-204q156 -3 231 -56t75 -157q0 -83 -56.5 -139.5t-172.5 -56.5q-47 0 -92 17t-73 41l28 42q61 -55 152 -55q68 0 114.5 38.5t46.5 109.5q0 66 -41.5 105t-104.5 52t-157 13v297h337v-47h-287z" />
    <glyph glyph-name="six" unicode="6" horiz-adv-x="559" 
d="M449 194q0 74 -38.5 109t-122.5 35q-92 0 -171 -65q4 -238 180 -238q75 0 113.5 46t38.5 113zM502 207q0 -98 -57 -157.5t-156 -59.5q-224 0 -224 310q0 166 93.5 262.5t258.5 96.5q27 0 54 -3v-48q-27 4 -60 4q-126 0 -208.5 -75.5t-85.5 -214.5q90 62 197 62
q80 0 134 -45.5t54 -131.5z" />
    <glyph glyph-name="seven" unicode="7" horiz-adv-x="486" 
d="M462 650v-35l-292 -613h-51l287 601h-371v47h427z" />
    <glyph glyph-name="eight" unicode="8" horiz-adv-x="559" 
d="M473 514q0 -85 -158 -166q6 -3 29 -15.5t32.5 -18t30 -18.5t30 -21.5t24.5 -22.5t21.5 -26.5t12 -29.5t5.5 -34q0 -75 -67 -123.5t-154 -48.5q-83 0 -150 42.5t-67 114.5q0 37 13.5 67.5t40.5 54t53.5 39.5t64.5 35q-5 3 -30 17.5t-30.5 18t-24 16t-23.5 18.5t-16.5 18.5
t-15 23t-7 25.5t-3.5 31q0 66 58.5 107t141.5 41q86 0 137.5 -39.5t51.5 -105.5zM447 157q0 34 -31.5 67.5t-56 48t-76.5 40.5q-2 2 -3.5 2.5t-3.5 1.5l-4 2q-71 -33 -114.5 -71t-43.5 -94q0 -58 49 -89t124 -31q70 0 115 34.5t45 88.5zM133 515q0 -42 25 -65t123 -82
q72 43 105 75.5t33 68.5q0 53 -40 78t-97 25q-67 0 -108 -27t-41 -73z" />
    <glyph glyph-name="nine" unicode="9" horiz-adv-x="559" 
d="M110 455q0 -74 38.5 -109t122.5 -35q92 0 171 65q-4 238 -180 238q-75 0 -113.5 -46t-38.5 -113zM57 442q0 98 57 157.5t156 59.5q224 0 224 -310q0 -166 -93.5 -262.5t-258.5 -96.5q-27 0 -54 3v48q27 -4 60 -4q126 0 208.5 75.5t85.5 214.5q-90 -62 -197 -62
q-80 0 -134 45.5t-54 131.5z" />
    <glyph glyph-name="colon" unicode=":" horiz-adv-x="229" 
d="M77 26q0 34 37 34q38 0 38 -34q0 -36 -38 -36q-37 0 -37 36zM77 397q0 34 37 34q38 0 38 -34q0 -36 -38 -36q-37 0 -37 36z" />
    <glyph glyph-name="semicolon" unicode=";" horiz-adv-x="264" 
d="M104 397q0 34 37 34q38 0 38 -34q0 -36 -38 -36q-37 0 -37 36zM114 57h45q-8 -103 -63 -197l-36 10q50 102 54 187z" />
    <glyph glyph-name="less" unicode="&#x3c;" horiz-adv-x="453" 
d="M360 31l-320 239v35l320 232l25 -34l-297 -214l297 -223z" />
    <glyph glyph-name="equal" unicode="=" horiz-adv-x="591" 
d="M510 389h-429v42h429v-42zM510 179h-429v42h429v-42z" />
    <glyph glyph-name="greater" unicode="&#x3e;" horiz-adv-x="453" 
d="M413 270l-320 -239l-25 35l297 223l-297 214l25 34l320 -232v-35z" />
    <glyph glyph-name="question" unicode="?" horiz-adv-x="441" 
d="M399 524q0 -42 -22 -76t-53.5 -57t-63.5 -44.5t-54 -47.5t-22 -56q0 -25 19 -60l-54 -14q-17 33 -17 75q0 34 22 64t53.5 52.5l63 45t53.5 52t22 63.5q0 44 -38.5 67.5t-97.5 23.5q-89 0 -143 -58l-28 41q72 64 176 64q83 0 133.5 -37.5t50.5 -97.5zM150 26q0 34 37 34
q38 0 38 -34q0 -36 -38 -36q-37 0 -37 36z" />
    <glyph glyph-name="at" unicode="@" horiz-adv-x="834" 
d="M441 547q-147 0 -242.5 -90.5t-95.5 -256.5q0 -147 93 -237t243 -90q126 0 237 76l19 -31q-114 -82 -266 -82q-73 0 -138.5 23.5t-118 67.5t-83 115.5t-30.5 160.5q0 174 110 277.5t274 103.5q82 0 148.5 -27.5t108 -72.5t63.5 -100.5t22 -113.5q0 -67 -16 -124.5
t-57 -98.5t-101 -41q-69 0 -94 57q-62 -57 -141 -57q-56 0 -90.5 33t-34.5 83q0 125 188 125q36 0 76 -5l1 77q1 98 -96 98q-35 0 -64.5 -13.5t-29.5 -48.5q0 -13 4 -26l-44 -5q-5 18 -5 32q0 45 43 73t101 28q55 0 94.5 -29.5t39.5 -98.5l-1 -234q0 -24 17 -38t44 -14
q52 0 87 58t35 166q0 117 -82.5 198.5t-217.5 81.5zM515 105v101q-37 7 -80 7q-137 0 -137 -83q0 -42 24.5 -63.5t68.5 -21.5q32 0 67 18t57 42z" />
    <glyph glyph-name="A" unicode="A" horiz-adv-x="566" 
d="M72 0h-50l236 650h50l237 -650h-54l-67 187h-285zM408 232l-86 242l-41 121l-39 -120l-87 -243h253z" />
    <glyph glyph-name="B" unicode="B" horiz-adv-x="565" 
d="M507 180q0 -180 -225 -180h-182v650h171q98 0 143.5 -40.5t45.5 -122.5q0 -46 -25 -83.5t-71 -55.5v-2q143 -27 143 -166zM274 314h-123v-266h132q90 0 130 30.5t40 100.5q0 135 -179 135zM406 486q0 60 -33 88t-105 28h-117v-243h112q61 0 102 35t41 92z" />
    <glyph glyph-name="C" unicode="C" horiz-adv-x="575" 
d="M512 70l14 -46q-65 -34 -166 -34q-139 0 -218 78.5t-79 250.5q0 162 81.5 251t220.5 89q95 0 151 -33l-18 -54q-50 40 -132 40q-126 0 -187.5 -75.5t-61.5 -215.5q0 -144 60.5 -214t184.5 -70q47 0 89 10t61 23z" />
    <glyph glyph-name="D" unicode="D" horiz-adv-x="667" 
d="M100 0v650h218q80 0 137.5 -27.5t88 -75t44 -101t13.5 -117.5q0 -58 -7.5 -105t-27.5 -90t-52 -71.5t-84 -45.5t-120 -17h-210zM319 602h-168v-554h168q58 0 100 15t66 38.5t38.5 61t19 75t4.5 87.5q0 54 -11 100.5t-35 87.5t-70.5 65t-111.5 24z" />
    <glyph glyph-name="E" unicode="E" horiz-adv-x="526" 
d="M100 650h359v-48h-308v-244h272v-47h-272v-263h308v-48h-359v650z" />
    <glyph glyph-name="F" unicode="F" horiz-adv-x="499" 
d="M100 650h353v-48h-302v-269h266v-47h-266v-286h-51v650z" />
    <glyph glyph-name="G" unicode="G" horiz-adv-x="628" 
d="M506 322h51v-268q-29 -24 -81 -44t-108 -20q-62 0 -113.5 15.5t-96 51t-70 102.5t-25.5 160q0 168 86 254t224 86q104 0 169 -38l-18 -54q-58 45 -150 45q-257 0 -257 -291q0 -284 253 -284q72 0 136 35v250z" />
    <glyph glyph-name="H" unicode="H" horiz-adv-x="654" 
d="M503 650h51v-650h-51v314h-352v-314h-51v650h51v-289h352v289z" />
    <glyph glyph-name="I" unicode="I" horiz-adv-x="251" 
d="M100 650h51v-650h-51v650z" />
    <glyph glyph-name="J" unicode="J" horiz-adv-x="250" 
d="M151 650v-601q0 -76 -35 -129.5t-106 -72.5l-17 41q54 18 80.5 55t26.5 107v600h51z" />
    <glyph glyph-name="K" unicode="K" horiz-adv-x="555" 
d="M100 650h51v-315l47 13l252 302h61l-272 -319l299 -331h-66l-276 303l-45 -8v-295h-51v650z" />
    <glyph glyph-name="L" unicode="L" horiz-adv-x="458" 
d="M100 650h51v-602h288v-48h-339v650z" />
    <glyph glyph-name="M" unicode="M" horiz-adv-x="807" 
d="M658 0v556l-53 -139l-173 -417h-50l-173 395l-62 145l1 -137v-403h-48v650h51l184 -423l72 -176l68 168l178 431h54v-650h-49z" />
    <glyph glyph-name="N" unicode="N" horiz-adv-x="694" 
d="M149 457v-457h-49v650h50l306 -436l90 -132l-1 93v475h49v-650h-49l-305 436l-92 135z" />
    <glyph glyph-name="O" unicode="O" horiz-adv-x="697" 
d="M352 659q140 0 211 -90.5t71 -245.5q0 -147 -80 -240t-209 -93q-141 0 -211.5 88.5t-70.5 245.5q0 149 77 242t212 93zM345 37q115 0 175 79.5t60 206.5q0 137 -55.5 213t-172.5 76q-119 0 -177 -76t-58 -212q0 -287 228 -287z" />
    <glyph glyph-name="P" unicode="P" horiz-adv-x="533" 
d="M100 0v650h170q116 0 167.5 -50t51.5 -152q0 -95 -57.5 -149t-146.5 -54h-134v-245h-51zM279 290q71 0 113.5 37t42.5 117q0 82 -38.5 120t-122.5 38h-123v-312h128z" />
    <glyph glyph-name="Q" unicode="Q" horiz-adv-x="697" 
d="M352 659q140 0 211 -90.5t71 -245.5q0 -110 -46 -192t-126 -117l168 -176l-47 -36l-167 197q-34 -9 -71 -9q-141 0 -211.5 88.5t-70.5 245.5q0 149 77 242t212 93zM345 37q115 0 175 79.5t60 206.5q0 137 -55.5 213t-172.5 76q-119 0 -177 -76t-58 -212q0 -287 228 -287z
" />
    <glyph glyph-name="R" unicode="R" horiz-adv-x="566" 
d="M100 0v650h164q118 0 169 -46t51 -146q0 -67 -34.5 -112.5t-92.5 -64.5l165 -281h-61l-157 270h-153v-270h-51zM273 317q157 0 157 137q0 81 -38 114.5t-124 33.5h-117v-285h122z" />
    <glyph glyph-name="S" unicode="S" horiz-adv-x="495" 
d="M237 35q61 0 105.5 32t44.5 89q0 52 -33 86.5t-80 54t-93.5 40t-79.5 60t-33 98.5q0 72 54.5 118t134.5 46q89 0 159 -41l-18 -54q-60 48 -140 48q-63 0 -100 -30.5t-37 -81.5q0 -48 33 -79.5t80 -50.5t94 -40.5t80 -62.5t33 -103q0 -74 -59.5 -124t-145.5 -50t-180 55
l18 54q30 -24 74.5 -44t88.5 -20z" />
    <glyph glyph-name="T" unicode="T" horiz-adv-x="502" 
d="M483 650v-48h-206v-602h-51v602h-207v48h464z" />
    <glyph glyph-name="U" unicode="U" horiz-adv-x="668" 
d="M524 250v400h51v-400q0 -56 -9 -98t-33.5 -81t-74.5 -60t-124 -21t-123 18t-74 54t-34 77t-9 100v411h51v-410q0 -113 44 -159t146 -46t145.5 50.5t43.5 164.5z" />
    <glyph glyph-name="V" unicode="V" horiz-adv-x="564" 
d="M68 650l178 -471l42 -128l39 127l163 472h49l-228 -650h-50l-245 650h52z" />
    <glyph glyph-name="W" unicode="W" horiz-adv-x="846" 
d="M451 641l133 -442l39 -144l30 146l102 449h49l-157 -650h-50l-129 426l-47 154l-42 -156l-121 -424h-50l-176 650h52l115 -445l35 -150l38 148l126 438h53z" />
    <glyph glyph-name="X" unicode="X" horiz-adv-x="549" 
d="M45 650h56l175 -271l176 271h51l-201 -308l223 -342h-56l-195 302l-196 -302h-53l222 339z" />
    <glyph glyph-name="Y" unicode="Y" horiz-adv-x="512" 
d="M163 473l97 -181l88 179l93 179h50l-207 -399v-251h-51v253l-225 397h54z" />
    <glyph glyph-name="Z" unicode="Z" horiz-adv-x="522" 
d="M61 602v48h404v-42l-269 -414l-96 -146h375v-48h-433v38l267 412l100 152h-348z" />
    <glyph glyph-name="bracketleft" unicode="[" horiz-adv-x="307" 
d="M89 -189v898h180v-42h-130v-816h130v-40h-180z" />
    <glyph glyph-name="backslash" unicode="\" horiz-adv-x="419" 
d="M33 685h45l307 -749h-45z" />
    <glyph glyph-name="bracketright" unicode="]" horiz-adv-x="307" 
d="M218 709v-898h-180v40h131v816h-131v42h180z" />
    <glyph glyph-name="asciicircum" unicode="^" horiz-adv-x="494" 
d="M244 608l-162 -244h-51l193 287h45l194 -287h-57z" />
    <glyph glyph-name="underscore" unicode="_" horiz-adv-x="727" 
d="M76 -92v45h575v-45h-575z" />
    <glyph glyph-name="grave" unicode="`" 
d="M287 553l-135 118l38 37l123 -131z" />
    <glyph glyph-name="a" unicode="a" horiz-adv-x="475" 
d="M336 99v111q-46 8 -88 8q-150 0 -150 -92q0 -46 27 -69.5t75 -23.5q34 0 72.5 19.5t63.5 46.5zM336 250l1 84q0 109 -105 109q-23 0 -44 -4.5t-40.5 -21t-19.5 -43.5q0 -11 5 -29l-48 -5q-6 18 -6 35q0 50 47.5 80.5t110.5 30.5q61 0 104.5 -32.5t43.5 -108.5l-1 -257
q0 -37 15.5 -49t37.5 -5l6 -40q-15 -4 -31 -4q-30 0 -49 17t-24 46q-69 -63 -156 -63q-61 0 -99 36t-38 92q0 137 207 137q40 0 83 -5z" />
    <glyph glyph-name="b" unicode="b" horiz-adv-x="535" 
d="M130 685v-253q74 54 153 54q94 0 145.5 -65.5t51.5 -173.5q0 -117 -66 -187t-176 -70q-78 0 -157 34v661h49zM130 388v-333q50 -22 105 -22q92 0 142.5 56t50.5 155q0 95 -42.5 147t-110.5 52q-69 0 -145 -55z" />
    <glyph glyph-name="c" unicode="c" 
d="M107 229q0 -90 44.5 -143t130.5 -53q61 0 105 37l15 -45q-53 -35 -131 -35q-101 0 -158.5 63t-57.5 175q0 128 63.5 193t162.5 65q67 0 121 -26l-14 -50q-54 33 -110 33q-84 0 -127.5 -56t-43.5 -158z" />
    <glyph glyph-name="d" unicode="d" horiz-adv-x="536" 
d="M454 685v-685h-48v54q-81 -64 -154 -64q-94 0 -145.5 65.5t-51.5 173.5q0 117 65 187t174 70q50 0 111 -23v222h49zM405 98v315q-49 30 -111 30q-90 0 -138.5 -56t-48.5 -155q0 -95 42.5 -147t110.5 -52q67 0 145 65z" />
    <glyph glyph-name="e" unicode="e" horiz-adv-x="485" 
d="M283 33q69 0 124 47l15 -45q-69 -45 -150 -45q-103 0 -159.5 62.5t-56.5 185.5q0 116 56 182t145 66q174 0 174 -219v-29h-323q0 -99 44 -152t131 -53zM109 278h272q2 76 -30 120.5t-96 44.5q-132 0 -146 -165z" />
    <glyph glyph-name="f" unicode="f" horiz-adv-x="332" 
d="M161 512v-43h146v-39h-146v-430h-49v430h-81v35l81 4v37q0 97 40.5 143t112.5 46q55 0 85 -15l-13 -51q-36 23 -74 23q-55 0 -78.5 -34.5t-23.5 -105.5z" />
    <glyph glyph-name="g" unicode="g" horiz-adv-x="521" 
d="M242 486q24 0 71.5 -8.5t105.5 -9.5h76v-39h-99q39 -43 39 -106q0 -62 -47.5 -109.5t-118.5 -56.5q-114 -34 -114 -64q0 -11 9.5 -19t33.5 -12t41.5 -6t54.5 -4q43 -3 72 -8t59 -16t45 -31.5t15 -50.5q0 -69 -66.5 -120.5t-175.5 -51.5q-86 0 -147 31t-61 92q0 40 29 75
t83 56q-36 16 -36 55q0 47 82 77q-68 13 -104 57t-36 99q0 70 53 120t136 50zM103 317q0 -62 43 -93t96 -31q52 0 97.5 34.5t45.5 93.5q0 60 -41 91.5t-102 31.5q-58 0 -98.5 -33t-40.5 -94zM287 10q-73 4 -93 7q-109 -40 -109 -110q0 -47 48.5 -70t118.5 -23q81 0 131.5 36
t50.5 87q0 66 -147 73z" />
    <glyph glyph-name="h" unicode="h" horiz-adv-x="534" 
d="M131 383v-383h-49v685h49v-259q80 60 158 60q166 0 166 -164v-322h-49v302q0 77 -28 108.5t-90 31.5q-74 0 -157 -59z" />
    <glyph glyph-name="i" unicode="i" horiz-adv-x="213" 
d="M131 476v-476h-49v476h49zM73 641q0 15 10 25.5t25 10.5t25.5 -10.5t10.5 -25.5t-10.5 -25t-25.5 -10t-25 10t-10 25z" />
    <glyph glyph-name="j" unicode="j" horiz-adv-x="213" 
d="M82 -22v498h49v-500q0 -101 -58.5 -152t-121.5 -48l-8 44q139 10 139 158zM73 641q0 15 10 25.5t25 10.5t25.5 -10.5t10.5 -25.5t-10.5 -25t-25.5 -10t-25 10t-10 25z" />
    <glyph glyph-name="k" unicode="k" horiz-adv-x="458" 
d="M207 253l234 -253h-66l-207 223l-37 -7v-216h-49v685h49v-431l27 7l192 215h60z" />
    <glyph glyph-name="l" unicode="l" horiz-adv-x="221" 
d="M135 685v-685h-49v685h49z" />
    <glyph glyph-name="m" unicode="m" horiz-adv-x="840" 
d="M131 383v-383h-49v476h48v-50q79 60 150 60q107 0 145 -70q87 70 168 70q168 0 168 -164v-322h-49v302q0 77 -29 109t-91 32q-69 0 -153 -65q7 -28 7 -56v-322h-49v302q0 78 -28 109.5t-90 31.5q-69 0 -148 -60z" />
    <glyph glyph-name="n" unicode="n" horiz-adv-x="534" 
d="M131 383v-383h-49v476h48v-50q80 60 159 60q166 0 166 -164v-322h-49v302q0 78 -28 109.5t-90 31.5q-73 0 -157 -60z" />
    <glyph glyph-name="o" unicode="o" horiz-adv-x="538" 
d="M56 238q0 111 57 179.5t155 68.5q103 0 158.5 -64t55.5 -184q0 -104 -55.5 -176t-158.5 -72q-101 0 -156.5 64t-55.5 184zM108 238q0 -205 160 -205q162 0 162 205q0 92 -38.5 148.5t-123.5 56.5q-84 0 -122 -56.5t-38 -148.5z" />
    <glyph glyph-name="p" unicode="p" horiz-adv-x="536" 
d="M239 -10q-51 0 -108 21v-231h-49v696h48v-54q81 64 154 64q94 0 145.5 -65.5t51.5 -173.5q0 -117 -66 -187t-176 -70zM131 378v-317q49 -28 108 -28q91 0 140.5 56t49.5 155q0 95 -42.5 147t-110.5 52q-67 0 -145 -65z" />
    <glyph glyph-name="q" unicode="q" horiz-adv-x="535" 
d="M405 -220v273q-80 -63 -153 -63q-94 0 -145.5 65.5t-51.5 173.5q0 117 65 187t174 70q77 0 160 -37v-669h-49zM405 98v320q-53 25 -111 25q-90 0 -138 -56t-48 -155q0 -95 42 -146.5t110 -51.5q69 0 145 64z" />
    <glyph glyph-name="r" unicode="r" horiz-adv-x="331" 
d="M131 353v-353h-49v476h48v-80q64 84 149 84q20 0 30 -1l-4 -50q-11 4 -27 4q-74 0 -147 -80z" />
    <glyph glyph-name="s" unicode="s" horiz-adv-x="403" 
d="M307 119q0 35 -25.5 58t-61.5 36.5t-72.5 28.5t-62 43.5t-25.5 70.5q0 46 27.5 77.5t58.5 42t61 10.5q73 0 128 -33l-14 -50q-12 14 -43.5 27t-72.5 13q-35 0 -66 -20t-31 -63q0 -29 25.5 -49.5t62 -35t73 -31t62 -47t25.5 -72.5q0 -71 -49.5 -103t-119.5 -32
q-74 0 -140 41l17 49q18 -17 52.5 -32t70.5 -15q120 0 120 86z" />
    <glyph glyph-name="t" unicode="t" horiz-adv-x="359" 
d="M151 430v-275q0 -68 23 -94.5t70 -26.5q49 0 84 30l15 -45q-49 -29 -110 -29q-65 0 -98 36.5t-33 127.5v276h-73v37l74 3l7 131h41v-132h171v-39h-171z" />
    <glyph glyph-name="u" unicode="u" horiz-adv-x="531" 
d="M400 92v384h49v-476h-48v49q-80 -60 -155 -60q-168 0 -168 164v323h49v-303q0 -77 29 -109t91 -32q69 0 153 60z" />
    <glyph glyph-name="v" unicode="v" horiz-adv-x="482" 
d="M269 0h-59l-186 476h50l132 -337l37 -97l37 96l129 338h51z" />
    <glyph glyph-name="w" unicode="w" horiz-adv-x="764" 
d="M233 0h-57l-143 476h48l93 -312l34 -122l45 125l110 309h47l115 -335l33 -99l29 104l98 330h48l-147 -476h-60l-110 323l-32 98l-35 -101z" />
    <glyph glyph-name="x" unicode="x" horiz-adv-x="448" 
d="M225 287l132 189h48l-156 -222l176 -254h-52l-150 218l-153 -218h-48l177 251l-155 225h51z" />
    <glyph glyph-name="y" unicode="y" horiz-adv-x="481" 
d="M458 476l-280 -696h-45l85 216l-196 480h49l120 -294l54 -129l51 131l115 292h47z" />
    <glyph glyph-name="z" unicode="z" horiz-adv-x="448" 
d="M102 43h303v-43h-366v29l293 403h-277v44h342v-29z" />
    <glyph glyph-name="braceleft" unicode="{" horiz-adv-x="326" 
d="M265 -194q-38 0 -65.5 8.5t-42.5 21.5t-23.5 35t-11 41.5t-2.5 48.5v208q0 64 -70 72q-7 1 -24 1v38q15 0 22 1q72 7 72 72v208q0 29 2.5 48.5t11 41.5t23.5 35t42.5 21.5t65.5 8.5h25v-35h-25q-67 0 -83 -24t-16 -95v-151q0 -68 -15 -103t-55 -46q40 -11 55 -47t15 -104
v-151q0 -71 16 -95t83 -24h25v-35h-25z" />
    <glyph glyph-name="bar" unicode="|" horiz-adv-x="233" 
d="M93 685h47v-685h-47v685z" />
    <glyph glyph-name="braceright" unicode="}" horiz-adv-x="326" 
d="M61 -194h-25v35h25q67 0 83 24t16 95v151q0 68 15 104t55 47q-40 11 -55 46t-15 103v151q0 71 -16 95t-83 24h-25v35h25q38 0 65.5 -8.5t42.5 -21.5t23.5 -35t11 -41.5t2.5 -48.5v-208q0 -68 82 -73h12v-38h-14q-80 -5 -80 -73v-208q0 -29 -2.5 -48.5t-11 -41.5
t-23.5 -35t-42.5 -21.5t-65.5 -8.5z" />
    <glyph glyph-name="asciitilde" unicode="~" horiz-adv-x="663" 
d="M442 228q-28 0 -59 15t-55 32.5t-57 32.5t-64 15q-53 0 -105 -81l-33 24q62 99 145 99q42 0 87 -23.5t84.5 -46.5t67.5 -23q58 0 110 96l35 -26q-36 -62 -73.5 -88t-82.5 -26z" />
    <glyph glyph-name="uni00A0" unicode="&#xa0;" horiz-adv-x="250" 
 />
    <glyph glyph-name="exclamdown" unicode="&#xa1;" horiz-adv-x="225" 
d="M139 -212h-51v229l6 240h37l8 -240v-229zM149 412q0 -34 -37 -34q-38 0 -38 34q0 18 11 27t27 9q37 0 37 -36z" />
    <glyph glyph-name="cent" unicode="&#xa2;" horiz-adv-x="479" 
d="M248 566h42v-80q66 0 120 -26l-14 -50q-52 31 -106 32v-409q61 0 105 37l15 -45q-48 -32 -120 -35v-61h-42v63q-88 9 -136.5 71t-48.5 165q0 113 51 177.5t134 77.5v83zM115 229q0 -78 34 -129.5t99 -63.5v403q-65 -12 -99 -66t-34 -144z" />
    <glyph glyph-name="sterling" unicode="&#xa3;" horiz-adv-x="606" 
d="M154 304h-91v39h91v86q0 119 58.5 174.5t151.5 55.5q84 0 146 -60l-35 -39q-47 55 -119 55q-77 0 -114 -42.5t-37 -141.5v-88h247v-39h-247v-75q0 -64 -17.5 -106.5t-64.5 -74.5h276q58 0 87.5 15.5t47.5 44.5l31 -37q-16 -27 -51.5 -49t-80.5 -22h-385v39
q47 7 76.5 50.5t29.5 95.5v119z" />
    <glyph glyph-name="currency" unicode="&#xa4;" horiz-adv-x="576" 
d="M84 30l-27 20l110 113q-34 44 -34 98t34 96l-110 113l24 27l112 -114q44 32 94 32t95 -33l113 115l24 -27l-113 -114q34 -39 34 -95t-34 -96l113 -115l-27 -20l-110 110q-41 -33 -95 -33q-53 0 -95 32zM287 144q46 0 77.5 34t31.5 83q0 52 -31 83.5t-78 31.5t-78 -31.5
t-31 -83.5q0 -50 31.5 -83.5t77.5 -33.5z" />
    <glyph glyph-name="yen" unicode="&#xa5;" horiz-adv-x="565" 
d="M191 473l97 -181l88 179l93 179h50l-187 -359h150v-39h-170v-111h170v-39h-170v-102h-51v102h-168v39h168v111h-168v39h146l-203 359h54z" />
    <glyph glyph-name="brokenbar" unicode="&#xa6;" horiz-adv-x="236" 
d="M94 685h48v-273h-48v273zM94 294h48v-294h-48v294z" />
    <glyph glyph-name="section" unicode="&#xa7;" horiz-adv-x="558" 
d="M274 -69q0 47 -45 148l-90 202t-45 148q0 56 32 102t80.5 73t100.5 41.5t97 14.5q65 0 117 -17l-4 -62q-71 45 -125 45q-46 0 -70.5 -27t-24.5 -72q0 -50 89 -251t89 -252q0 -55 -37.5 -102t-92.5 -75t-112 -43t-103 -15q-51 0 -97 11l4 61q46 -32 97 -32q59 0 99.5 24
t40.5 78zM430 16q0 49 -43.5 148t-87 201.5t-43.5 159.5q0 45 30 81q-69 -28 -107.5 -72t-38.5 -89q0 -52 44.5 -150t89 -197t44.5 -152q0 -49 -24 -79q136 53 136 149z" />
    <glyph glyph-name="dieresis" unicode="&#xa8;" 
d="M98 629q0 15 10 25.5t25 10.5t25.5 -10.5t10.5 -25.5t-10.5 -25t-25.5 -10t-25 10t-10 25zM266 629q0 15 10 25.5t25 10.5t25.5 -10.5t10.5 -25.5t-10.5 -25t-25.5 -10t-25 10t-10 25z" />
    <glyph glyph-name="copyright" unicode="&#xa9;" horiz-adv-x="753" 
d="M374 -7q-128 0 -220 94t-92 226q0 133 91.5 227t220.5 94q132 0 224.5 -93.5t92.5 -227.5q0 -132 -92.5 -226t-224.5 -94zM374 27q116 0 196.5 82t80.5 204q0 118 -81 202t-196 84q-113 0 -192.5 -81.5t-79.5 -204.5t79.5 -204.5t192.5 -81.5zM396 112q-209 0 -209 199
q0 100 56.5 152.5t155.5 52.5q65 0 107 -20l-13 -38q-34 25 -93 25q-85 0 -128 -44t-43 -127q0 -167 168 -167q69 0 106 21l10 -34q-46 -20 -117 -20z" />
    <glyph glyph-name="ordfeminine" unicode="&#xaa;" horiz-adv-x="467" 
d="M180 262q-54 0 -87.5 29t-33.5 73q0 116 186 116q29 0 55 -3q10 0 15 -1l1 61q0 42 -25.5 62.5t-67.5 20.5q-31 0 -60 -12.5t-30 -40.5q0 -9 3 -21l-43 -4q-5 11 -5 27q-1 40 41 65t98 25q54 0 94.5 -26t40.5 -87l-1 -206q0 -43 27 -45q6 0 16 2l5 -32q-15 -3 -29 -3
q-53 0 -63 50q-61 -50 -137 -50zM195 300q31 0 64.5 14t55.5 35v89q-37 7 -80 7q-126 -2 -126 -74q0 -71 86 -71z" />
    <glyph glyph-name="guillemotleft" unicode="&#xab;" horiz-adv-x="461" 
d="M51 234l120 231h49l-116 -227l116 -235h-49zM241 234l120 231h49l-116 -227l116 -235h-49z" />
    <glyph glyph-name="logicalnot" unicode="&#xac;" horiz-adv-x="764" 
d="M639 62v217h-552v42h596v-259h-44z" />
    <glyph glyph-name="registered" unicode="&#xae;" horiz-adv-x="623" 
d="M310 168q-98 0 -168.5 72t-70.5 173q0 102 70.5 174t168.5 72q100 0 171 -72t71 -174q0 -101 -71 -173t-171 -72zM310 198q88 0 147.5 61t59.5 154q0 90 -60 152.5t-147 62.5t-145.5 -60.5t-58.5 -154.5t58.5 -154.5t145.5 -60.5zM221 251v334h90q61 0 87 -25.5t26 -78.5
q0 -81 -73 -100l73 -130h-38l-70 126h-62v-126h-33zM254 405h58q77 0 77 74q0 42 -18 59t-61 17h-56v-150z" />
    <glyph glyph-name="macron" unicode="&#xaf;" 
d="M108 604v43h234v-43h-234z" />
    <glyph glyph-name="degree" unicode="&#xb0;" horiz-adv-x="401" 
d="M202 393q-65 0 -103 36.5t-38 97.5q0 58 39.5 95t101.5 37q64 0 101 -36t37 -96q0 -61 -37.5 -97.5t-100.5 -36.5zM202 427q46 0 71 27.5t25 72.5q0 42 -26.5 69.5t-69.5 27.5q-47 0 -73.5 -27t-26.5 -70t27.5 -71.5t72.5 -28.5z" />
    <glyph glyph-name="plusminus" unicode="&#xb1;" horiz-adv-x="564" 
d="M259 117v162h-180v42h180v164h45v-164h181v-42h-181v-162h-45zM79 10v42h406v-42h-406z" />
    <glyph glyph-name="twosuperior" unicode="&#xb2;" horiz-adv-x="291" 
d="M23 380v31q62 47 120.5 115t58.5 112q0 28 -17.5 43t-42.5 15q-37 0 -74 -39l-26 28q45 50 105 50q41 0 69.5 -24.5t28.5 -69.5t-48.5 -108.5t-109.5 -114.5h175v-38h-239z" />
    <glyph glyph-name="threesuperior" unicode="&#xb3;" horiz-adv-x="285" 
d="M124 375q-30 0 -60.5 12.5t-40.5 22.5l25 34q37 -32 81 -32q31 0 54.5 17t23.5 45q0 64 -127 73v33q45 3 78 21.5t33 48.5q0 21 -16.5 33.5t-41.5 12.5q-37 0 -74 -27l-19 34q44 32 97 32q42 0 69.5 -23t27.5 -57q0 -61 -64 -87q81 -22 81 -93q0 -42 -31 -71t-96 -29z
" />
    <glyph glyph-name="acute" unicode="&#xb4;" 
d="M313 671l-135 -118l-26 24l123 131z" />
    <glyph glyph-name="mu" unicode="&#xb5;" horiz-adv-x="528" 
d="M410 92v384h49v-476h-48v49q-80 -60 -155 -60q-83 0 -127 44q8 -39 8 -118v-135h-49v696h49v-303q0 -77 29 -108.5t91 -31.5q70 0 153 59z" />
    <glyph glyph-name="paragraph" unicode="&#xb6;" horiz-adv-x="534" 
d="M308 650v-870h-50v400q-105 24 -165 84.5t-60 151.5q0 98 70 166t205 68zM389 -220v870h50v-870h-50z" />
    <glyph glyph-name="periodcentered" unicode="&#xb7;" horiz-adv-x="229" 
d="M77 293q0 34 37 34q38 0 38 -34q0 -36 -38 -36q-37 0 -37 36z" />
    <glyph glyph-name="cedilla" unicode="&#xb8;" 
d="M127 -201l20 44q24 -28 70 -28q28 0 42.5 11.5t14.5 29.5q0 24 -24.5 40t-69.5 18l31 100h41l-21 -73q44 -6 67 -30.5t23 -53.5q0 -33 -29.5 -58t-79.5 -25q-48 0 -85 25z" />
    <glyph glyph-name="onesuperior" unicode="&#xb9;" horiz-adv-x="185" 
d="M94 380v313l-79 -4v39l122 7v-355h-43z" />
    <glyph glyph-name="ordmasculine" unicode="&#xba;" horiz-adv-x="495" 
d="M247 262q-89 0 -138 51.5t-49 147.5q0 89 50 143.5t137 54.5q91 0 140 -51t49 -147q0 -84 -49.5 -141.5t-139.5 -57.5zM247 302q75 0 106.5 42t31.5 117q0 159 -138 159q-137 0 -137 -159q0 -78 31 -118.5t106 -40.5z" />
    <glyph glyph-name="guillemotright" unicode="&#xbb;" horiz-adv-x="461" 
d="M100 465l120 -231l-120 -231h-49l116 235l-116 227h49zM290 465l120 -231l-120 -231h-49l116 235l-116 227h49z" />
    <glyph glyph-name="onequarter" unicode="&#xbc;" horiz-adv-x="737" 
d="M161 39l-29 22l471 569l28 -25zM592 1v92h-168v30l170 227h41v-220h53v-37h-53v-92h-43zM475 130h117v159zM114 304v313l-79 -4v39l122 7v-355h-43z" />
    <glyph glyph-name="onehalf" unicode="&#xbd;" horiz-adv-x="775" 
d="M161 39l-29 22l471 569l28 -25zM487 0v31q62 47 120.5 115t58.5 112q0 28 -17.5 43t-42.5 15q-37 0 -74 -39l-26 28q45 50 105 50q41 0 69.5 -24.5t28.5 -69.5t-48.5 -108.5t-109.5 -114.5h175v-38h-239zM114 304v313l-79 -4v39l122 7v-355h-43z" />
    <glyph glyph-name="threequarters" unicode="&#xbe;" horiz-adv-x="789" 
d="M207 39l-29 22l471 569l28 -25zM645 1v92h-168v30l170 227h41v-220h53v-37h-53v-92h-43zM528 130h117v159zM150 299q-30 0 -60.5 12.5t-40.5 22.5l25 34q37 -32 81 -32q31 0 54.5 16.5t23.5 45.5q0 64 -127 73v33q45 3 78 21.5t33 48.5q0 21 -16.5 33.5t-41.5 12.5
q-37 0 -74 -27l-19 34q44 32 97 32q42 0 69.5 -23t27.5 -57q0 -61 -64 -87q81 -22 81 -93q0 -42 -31 -71t-96 -29z" />
    <glyph glyph-name="questiondown" unicode="&#xbf;" horiz-adv-x="432" 
d="M38 -85q0 42 22 76t54 57t63.5 44.5t53.5 47.5t22 56q0 25 -19 60l54 14q17 -33 17 -75q0 -34 -22 -64t-53.5 -52.5l-63 -45t-53.5 -52t-22 -63.5q0 -44 38.5 -67.5t97.5 -23.5q89 0 143 58l28 -41q-72 -64 -176 -64q-83 0 -133.5 37.5t-50.5 97.5zM287 413
q0 -34 -37 -34q-38 0 -38 34q0 36 38 36q37 0 37 -36z" />
    <glyph glyph-name="Agrave" unicode="&#xc0;" horiz-adv-x="566" 
d="M72 0h-50l236 650h50l237 -650h-54l-67 187h-285zM408 232l-86 242l-41 121l-39 -120l-87 -243h253zM311 703l-160 87l30 46l150 -105z" />
    <glyph glyph-name="Aacute" unicode="&#xc1;" horiz-adv-x="566" 
d="M72 0h-50l236 650h50l237 -650h-54l-67 187h-285zM408 232l-86 242l-41 121l-39 -120l-87 -243h253zM414 790l-160 -87l-20 28l150 105z" />
    <glyph glyph-name="Acircumflex" unicode="&#xc2;" horiz-adv-x="566" 
d="M72 0h-50l236 650h50l237 -650h-54l-67 187h-285zM408 232l-86 242l-41 121l-39 -120l-87 -243h253zM305 840l117 -97l-29 -33l-107 88l-105 -88l-28 32l118 98h34z" />
    <glyph glyph-name="Atilde" unicode="&#xc3;" horiz-adv-x="566" 
d="M72 0h-50l236 650h50l237 -650h-54l-67 187h-285zM408 232l-86 242l-41 121l-39 -120l-87 -243h253zM151 734l-21 23q48 54 90 54q29 0 68.5 -15t57.5 -15q41 0 67 32l19 -22q-41 -52 -87 -52q-22 0 -63 15t-60 15q-43 0 -71 -35z" />
    <glyph glyph-name="Adieresis" unicode="&#xc4;" horiz-adv-x="566" 
d="M72 0h-50l236 650h50l237 -650h-54l-67 187h-285zM408 232l-86 242l-41 121l-39 -120l-87 -243h253zM162 773q0 15 10 25.5t25 10.5t25.5 -10.5t10.5 -25.5t-10.5 -25t-25.5 -10t-25 10t-10 25zM330 773q0 15 10 25.5t25 10.5t25.5 -10.5t10.5 -25.5t-10.5 -25t-25.5 -10
t-25 10t-10 25z" />
    <glyph glyph-name="Aring" unicode="&#xc5;" horiz-adv-x="566" 
d="M72 0h-50l236 650h50l237 -650h-54l-67 187h-285zM408 232l-86 242l-41 121l-39 -120l-87 -243h253zM283 687q-43 0 -71 26.5t-28 68.5q0 41 29 67.5t72 26.5q45 0 71.5 -25.5t26.5 -68.5q0 -40 -28 -67.5t-72 -27.5zM283 718q60 0 60 64t-60 64q-61 0 -61 -64
q0 -31 16 -47.5t45 -16.5z" />
    <glyph glyph-name="AE" unicode="&#xc6;" horiz-adv-x="804" 
d="M362 650h375v-48h-308v-244h272v-47h-272v-263h308v-48h-359v187h-221l-101 -187h-50zM182 232h196v361z" />
    <glyph glyph-name="Ccedilla" unicode="&#xc7;" horiz-adv-x="575" 
d="M246 -201l20 44q24 -28 70 -28q28 0 42.5 11.5t14.5 29.5q0 24 -24.5 40t-69.5 18l24 78q-260 19 -260 327q0 162 81.5 251t220.5 89q95 0 151 -33l-18 -54q-50 40 -132 40q-126 0 -187.5 -75.5t-61.5 -215.5q0 -144 60.5 -214t184.5 -70q47 0 89 10t61 23l14 -46
q-61 -32 -162 -34l-14 -49q44 -6 67 -30.5t23 -53.5q0 -33 -29.5 -58t-79.5 -25q-47 0 -85 25z" />
    <glyph glyph-name="Egrave" unicode="&#xc8;" horiz-adv-x="526" 
d="M100 650h359v-48h-308v-244h272v-47h-272v-263h308v-48h-359v650zM335 703l-160 87l30 46l150 -105z" />
    <glyph glyph-name="Eacute" unicode="&#xc9;" horiz-adv-x="526" 
d="M100 650h359v-48h-308v-244h272v-47h-272v-263h308v-48h-359v650zM389 790l-160 -87l-20 28l150 105z" />
    <glyph glyph-name="Ecircumflex" unicode="&#xca;" horiz-adv-x="526" 
d="M100 650h359v-48h-308v-244h272v-47h-272v-263h308v-48h-359v650zM302 840l117 -97l-29 -33l-107 88l-105 -88l-28 32l118 98h34z" />
    <glyph glyph-name="Edieresis" unicode="&#xcb;" horiz-adv-x="526" 
d="M100 650h359v-48h-308v-244h272v-47h-272v-263h308v-48h-359v650zM162 773q0 15 10 25.5t25 10.5t25.5 -10.5t10.5 -25.5t-10.5 -25t-25.5 -10t-25 10t-10 25zM330 773q0 15 10 25.5t25 10.5t25.5 -10.5t10.5 -25.5t-10.5 -25t-25.5 -10t-25 10t-10 25z" />
    <glyph glyph-name="Igrave" unicode="&#xcc;" horiz-adv-x="251" 
d="M100 650h51v-650h-51v650zM154 703l-160 87l30 46l150 -105z" />
    <glyph glyph-name="Iacute" unicode="&#xcd;" horiz-adv-x="251" 
d="M100 650h51v-650h-51v650zM241 790l-160 -87l-20 28l150 105z" />
    <glyph glyph-name="Icircumflex" unicode="&#xce;" horiz-adv-x="251" 
d="M100 650h51v-650h-51v650zM143 840l117 -97l-29 -33l-107 88l-105 -88l-28 32l118 98h34z" />
    <glyph glyph-name="Idieresis" unicode="&#xcf;" horiz-adv-x="251" 
d="M100 650h51v-650h-51v650zM6 773q0 15 10 25.5t25 10.5t25.5 -10.5t10.5 -25.5t-10.5 -25t-25.5 -10t-25 10t-10 25zM174 773q0 15 10 25.5t25 10.5t25.5 -10.5t10.5 -25.5t-10.5 -25t-25.5 -10t-25 10t-10 25z" />
    <glyph glyph-name="Eth" unicode="&#xd0;" horiz-adv-x="668" 
d="M101 0v311h-75v42h75v297h218q80 0 137.5 -27.5t88 -75t44 -101t13.5 -117.5q0 -58 -7.5 -105t-27.5 -90t-52 -71.5t-84 -45.5t-120 -17h-210zM320 602h-168v-249h138v-42h-138v-263h168q58 0 100 15t66 38.5t38.5 61t19 75t4.5 87.5q0 54 -11 100.5t-35 87.5t-70.5 65
t-111.5 24z" />
    <glyph glyph-name="Ntilde" unicode="&#xd1;" horiz-adv-x="694" 
d="M149 457v-457h-49v650h50l306 -436l90 -132l-1 93v475h49v-650h-49l-305 436l-92 135zM235 734l-21 23q48 54 90 54q29 0 68.5 -15t57.5 -15q41 0 67 32l19 -22q-41 -52 -87 -52q-22 0 -63 15t-60 15q-43 0 -71 -35z" />
    <glyph glyph-name="Ograve" unicode="&#xd2;" horiz-adv-x="697" 
d="M352 659q140 0 211 -90.5t71 -245.5q0 -147 -80 -240t-209 -93q-141 0 -211.5 88.5t-70.5 245.5q0 149 77 242t212 93zM345 37q115 0 175 79.5t60 206.5q0 137 -55.5 213t-172.5 76q-119 0 -177 -76t-58 -212q0 -287 228 -287zM396 703l-160 87l30 46l150 -105z" />
    <glyph glyph-name="Oacute" unicode="&#xd3;" horiz-adv-x="697" 
d="M352 659q140 0 211 -90.5t71 -245.5q0 -147 -80 -240t-209 -93q-141 0 -211.5 88.5t-70.5 245.5q0 149 77 242t212 93zM345 37q115 0 175 79.5t60 206.5q0 137 -55.5 213t-172.5 76q-119 0 -177 -76t-58 -212q0 -287 228 -287zM464 790l-160 -87l-20 28l150 105z" />
    <glyph glyph-name="Ocircumflex" unicode="&#xd4;" horiz-adv-x="697" 
d="M352 659q140 0 211 -90.5t71 -245.5q0 -147 -80 -240t-209 -93q-141 0 -211.5 88.5t-70.5 245.5q0 149 77 242t212 93zM345 37q115 0 175 79.5t60 206.5q0 137 -55.5 213t-172.5 76q-119 0 -177 -76t-58 -212q0 -287 228 -287zM374 840l117 -97l-29 -33l-107 88l-105 -88
l-28 32l118 98h34z" />
    <glyph glyph-name="Otilde" unicode="&#xd5;" horiz-adv-x="697" 
d="M352 659q140 0 211 -90.5t71 -245.5q0 -147 -80 -240t-209 -93q-141 0 -211.5 88.5t-70.5 245.5q0 149 77 242t212 93zM345 37q115 0 175 79.5t60 206.5q0 137 -55.5 213t-172.5 76q-119 0 -177 -76t-58 -212q0 -287 228 -287zM223 734l-21 23q48 54 90 54q29 0 68.5 -15
t57.5 -15q41 0 67 32l19 -22q-41 -52 -87 -52q-22 0 -63 15t-60 15q-43 0 -71 -35z" />
    <glyph glyph-name="Odieresis" unicode="&#xd6;" horiz-adv-x="697" 
d="M352 659q140 0 211 -90.5t71 -245.5q0 -147 -80 -240t-209 -93q-141 0 -211.5 88.5t-70.5 245.5q0 149 77 242t212 93zM345 37q115 0 175 79.5t60 206.5q0 137 -55.5 213t-172.5 76q-119 0 -177 -76t-58 -212q0 -287 228 -287zM228 773q0 15 10 25.5t25 10.5t25.5 -10.5
t10.5 -25.5t-10.5 -25t-25.5 -10t-25 10t-10 25zM396 773q0 15 10 25.5t25 10.5t25.5 -10.5t10.5 -25.5t-10.5 -25t-25.5 -10t-25 10t-10 25z" />
    <glyph glyph-name="multiply" unicode="&#xd7;" horiz-adv-x="478" 
d="M368 141l-131 120l-127 -119l-31 27l129 119l-128 118l31 28l128 -117l128 119l31 -29l-129 -116l130 -122z" />
    <glyph glyph-name="Oslash" unicode="&#xd8;" horiz-adv-x="697" 
d="M352 659q116 0 186 -65l45 56h51l-68 -85q68 -87 68 -242q0 -147 -80 -240t-209 -93q-116 0 -188 64l-43 -54h-51l67 83q-67 84 -67 241q0 149 77 242t212 93zM117 324q0 -130 45 -200l345 431q-55 57 -155 57q-119 0 -177 -76t-58 -212zM345 37q115 0 175 79.5t60 206.5
t-47 200l-345 -431q55 -55 157 -55z" />
    <glyph glyph-name="Ugrave" unicode="&#xd9;" horiz-adv-x="668" 
d="M524 250v400h51v-400q0 -56 -9 -98t-33.5 -81t-74.5 -60t-124 -21t-123 18t-74 54t-34 77t-9 100v411h51v-410q0 -113 44 -159t146 -46t145.5 50.5t43.5 164.5zM378 703l-160 87l30 46l150 -105z" />
    <glyph glyph-name="Uacute" unicode="&#xda;" horiz-adv-x="668" 
d="M524 250v400h51v-400q0 -56 -9 -98t-33.5 -81t-74.5 -60t-124 -21t-123 18t-74 54t-34 77t-9 100v411h51v-410q0 -113 44 -159t146 -46t145.5 50.5t43.5 164.5zM452 790l-160 -87l-20 28l150 105z" />
    <glyph glyph-name="Ucircumflex" unicode="&#xdb;" horiz-adv-x="668" 
d="M524 250v400h51v-400q0 -56 -9 -98t-33.5 -81t-74.5 -60t-124 -21t-123 18t-74 54t-34 77t-9 100v411h51v-410q0 -113 44 -159t146 -46t145.5 50.5t43.5 164.5zM354 840l117 -97l-29 -33l-107 88l-105 -88l-28 32l118 98h34z" />
    <glyph glyph-name="Udieresis" unicode="&#xdc;" horiz-adv-x="668" 
d="M524 250v400h51v-400q0 -56 -9 -98t-33.5 -81t-74.5 -60t-124 -21t-123 18t-74 54t-34 77t-9 100v411h51v-410q0 -113 44 -159t146 -46t145.5 50.5t43.5 164.5zM217 773q0 15 10 25.5t25 10.5t25.5 -10.5t10.5 -25.5t-10.5 -25t-25.5 -10t-25 10t-10 25zM385 773
q0 15 10 25.5t25 10.5t25.5 -10.5t10.5 -25.5t-10.5 -25t-25.5 -10t-25 10t-10 25z" />
    <glyph glyph-name="Yacute" unicode="&#xdd;" horiz-adv-x="512" 
d="M163 473l97 -181l88 179l93 179h50l-207 -399v-251h-51v253l-225 397h54zM373 790l-160 -87l-20 28l150 105z" />
    <glyph glyph-name="Thorn" unicode="&#xde;" horiz-adv-x="541" 
d="M100 650h51v-97h119q116 0 167.5 -50t51.5 -152q0 -95 -57.5 -149t-146.5 -54h-134v-148h-51v650zM279 193q71 0 113.5 37t42.5 117q0 82 -38.5 120t-122.5 38h-123v-312h128z" />
    <glyph glyph-name="germandbls" unicode="&#xdf;" horiz-adv-x="607" 
d="M335 350q0 -27 24.5 -46t59 -32t69 -29t59 -46t24.5 -72q0 -71 -49.5 -103t-119.5 -32q-74 0 -140 41l17 49q18 -17 52.5 -32t70.5 -15q120 0 120 86q0 35 -24 58.5t-58.5 37t-69 27.5t-58.5 40t-24 64t21.5 70t47 50.5t47 42t21.5 47.5q0 44 -30 70t-92 26
q-67 0 -104.5 -40t-37.5 -119v-493h-49v430h-81v35l81 4v18q0 102 55 155t138 53q80 0 124.5 -37t44.5 -101q0 -23 -14.5 -45t-35 -39.5t-40.5 -35t-34.5 -40t-14.5 -47.5z" />
    <glyph glyph-name="agrave" unicode="&#xe0;" horiz-adv-x="475" 
d="M336 99v111q-46 8 -88 8q-150 0 -150 -92q0 -46 27 -69.5t75 -23.5q34 0 72.5 19.5t63.5 46.5zM336 250l1 84q0 109 -105 109q-23 0 -44 -4.5t-40.5 -21t-19.5 -43.5q0 -11 5 -29l-48 -5q-6 18 -6 35q0 50 47.5 80.5t110.5 30.5q61 0 104.5 -32.5t43.5 -108.5l-1 -257
q0 -37 15.5 -49t37.5 -5l6 -40q-15 -4 -31 -4q-30 0 -49 17t-24 46q-69 -63 -156 -63q-61 0 -99 36t-38 92q0 137 207 137q40 0 83 -5zM245 553l-135 118l38 37l123 -131z" />
    <glyph glyph-name="aacute" unicode="&#xe1;" horiz-adv-x="475" 
d="M336 99v111q-46 8 -88 8q-150 0 -150 -92q0 -46 27 -69.5t75 -23.5q34 0 72.5 19.5t63.5 46.5zM336 250l1 84q0 109 -105 109q-23 0 -44 -4.5t-40.5 -21t-19.5 -43.5q0 -11 5 -29l-48 -5q-6 18 -6 35q0 50 47.5 80.5t110.5 30.5q61 0 104.5 -32.5t43.5 -108.5l-1 -257
q0 -37 15.5 -49t37.5 -5l6 -40q-15 -4 -31 -4q-30 0 -49 17t-24 46q-69 -63 -156 -63q-61 0 -99 36t-38 92q0 137 207 137q40 0 83 -5zM332 671l-135 -118l-26 24l123 131z" />
    <glyph glyph-name="acircumflex" unicode="&#xe2;" horiz-adv-x="475" 
d="M336 99v111q-46 8 -88 8q-150 0 -150 -92q0 -46 27 -69.5t75 -23.5q34 0 72.5 19.5t63.5 46.5zM336 250l1 84q0 109 -105 109q-23 0 -44 -4.5t-40.5 -21t-19.5 -43.5q0 -11 5 -29l-48 -5q-6 18 -6 35q0 50 47.5 80.5t110.5 30.5q61 0 104.5 -32.5t43.5 -108.5l-1 -257
q0 -37 15.5 -49t37.5 -5l6 -40q-15 -4 -31 -4q-30 0 -49 17t-24 46q-69 -63 -156 -63q-61 0 -99 36t-38 92q0 137 207 137q40 0 83 -5zM246 687l121 -113l-32 -32l-107 103l-104 -104l-31 30l119 116h34z" />
    <glyph glyph-name="atilde" unicode="&#xe3;" horiz-adv-x="475" 
d="M336 99v111q-46 8 -88 8q-150 0 -150 -92q0 -46 27 -69.5t75 -23.5q34 0 72.5 19.5t63.5 46.5zM336 250l1 84q0 109 -105 109q-23 0 -44 -4.5t-40.5 -21t-19.5 -43.5q0 -11 5 -29l-48 -5q-6 18 -6 35q0 50 47.5 80.5t110.5 30.5q61 0 104.5 -32.5t43.5 -108.5l-1 -257
q0 -37 15.5 -49t37.5 -5l6 -40q-15 -4 -31 -4q-30 0 -49 17t-24 46q-69 -63 -156 -63q-61 0 -99 36t-38 92q0 137 207 137q40 0 83 -5zM106 584l-21 23q48 54 90 54q29 0 58.5 -15t47.5 -15q41 0 67 32l19 -22q-41 -52 -87 -52q-22 0 -53 15t-50 15q-43 0 -71 -35z" />
    <glyph glyph-name="adieresis" unicode="&#xe4;" horiz-adv-x="475" 
d="M336 99v111q-46 8 -88 8q-150 0 -150 -92q0 -46 27 -69.5t75 -23.5q34 0 72.5 19.5t63.5 46.5zM336 250l1 84q0 109 -105 109q-23 0 -44 -4.5t-40.5 -21t-19.5 -43.5q0 -11 5 -29l-48 -5q-6 18 -6 35q0 50 47.5 80.5t110.5 30.5q61 0 104.5 -32.5t43.5 -108.5l-1 -257
q0 -37 15.5 -49t37.5 -5l6 -40q-15 -4 -31 -4q-30 0 -49 17t-24 46q-69 -63 -156 -63q-61 0 -99 36t-38 92q0 137 207 137q40 0 83 -5zM107 629q0 15 10 25.5t25 10.5t25.5 -10.5t10.5 -25.5t-10.5 -25t-25.5 -10t-25 10t-10 25zM275 629q0 15 10 25.5t25 10.5t25.5 -10.5
t10.5 -25.5t-10.5 -25t-25.5 -10t-25 10t-10 25z" />
    <glyph glyph-name="aring" unicode="&#xe5;" horiz-adv-x="475" 
d="M336 99v111q-46 8 -88 8q-150 0 -150 -92q0 -46 27 -69.5t75 -23.5q34 0 72.5 19.5t63.5 46.5zM336 250l1 84q0 109 -105 109q-23 0 -44 -4.5t-40.5 -21t-19.5 -43.5q0 -11 5 -29l-48 -5q-6 18 -6 35q0 50 47.5 80.5t110.5 30.5q61 0 104.5 -32.5t43.5 -108.5l-1 -257
q0 -37 15.5 -49t37.5 -5l6 -40q-15 -4 -31 -4q-30 0 -49 17t-24 46q-69 -63 -156 -63q-61 0 -99 36t-38 92q0 137 207 137q40 0 83 -5zM224 542q-43 0 -71 26.5t-28 68.5q0 41 29 67.5t72 26.5q45 0 71.5 -25.5t26.5 -68.5q0 -40 -28 -67.5t-72 -27.5zM224 573q60 0 60 64
t-60 64q-61 0 -61 -64q0 -31 16 -47.5t45 -16.5z" />
    <glyph glyph-name="ae" unicode="&#xe6;" horiz-adv-x="760" 
d="M232 442q-38 0 -71 -15t-33 -53q0 -11 5 -29l-48 -5q-6 18 -6 35q0 50 47.5 80.5t110.5 30.5q108 0 138 -82q56 82 157 82q174 0 174 -219v-29h-323q0 -99 44 -152t131 -53q69 0 124 47l15 -45q-69 -45 -150 -45q-122 0 -175 83q-50 -48 -94 -65.5t-95 -17.5
q-61 0 -99 36t-38 92q0 137 206 137q37 0 79 -5q0 30 6 57v27q0 60 -27.5 84t-77.5 24zM384 278h272q2 76 -30 120.5t-96 44.5q-132 0 -146 -165zM98 126q0 -46 27 -69.5t75 -23.5q44 0 85 23t67 54q-18 46 -21 101q-39 7 -83 7q-150 0 -150 -92z" />
    <glyph glyph-name="ccedilla" unicode="&#xe7;" 
d="M166 -203l20 44q24 -28 70 -28q28 0 42.5 11.5t14.5 29.5q0 24 -24.5 40t-69.5 18l24 80q-89 8 -138 70t-49 166q0 128 63.5 193t162.5 65q67 0 121 -26l-14 -50q-54 33 -110 33q-84 0 -127.5 -56t-43.5 -158q0 -90 44.5 -143t130.5 -53q61 0 105 37l15 -45
q-50 -32 -119 -35l-14 -51q44 -6 67 -30.5t23 -53.5q0 -33 -29.5 -58t-79.5 -25q-47 0 -85 25z" />
    <glyph glyph-name="egrave" unicode="&#xe8;" horiz-adv-x="486" 
d="M284 33q69 0 124 47l15 -45q-69 -45 -150 -45q-103 0 -159.5 62.5t-56.5 185.5q0 116 56 182t145 66q174 0 174 -219v-29h-323q0 -99 44 -152t131 -53zM110 278h272q2 76 -30 120.5t-96 44.5q-132 0 -146 -165zM278 553l-135 118l38 37l123 -131z" />
    <glyph glyph-name="eacute" unicode="&#xe9;" horiz-adv-x="486" 
d="M284 33q69 0 124 47l15 -45q-69 -45 -150 -45q-103 0 -159.5 62.5t-56.5 185.5q0 116 56 182t145 66q174 0 174 -219v-29h-323q0 -99 44 -152t131 -53zM110 278h272q2 76 -30 120.5t-96 44.5q-132 0 -146 -165zM363 671l-135 -118l-26 24l123 131z" />
    <glyph glyph-name="ecircumflex" unicode="&#xea;" horiz-adv-x="486" 
d="M284 33q69 0 124 47l15 -45q-69 -45 -150 -45q-103 0 -159.5 62.5t-56.5 185.5q0 116 56 182t145 66q174 0 174 -219v-29h-323q0 -99 44 -152t131 -53zM110 278h272q2 76 -30 120.5t-96 44.5q-132 0 -146 -165zM276 687l121 -113l-32 -32l-107 103l-104 -104l-31 30
l119 116h34z" />
    <glyph glyph-name="edieresis" unicode="&#xeb;" horiz-adv-x="486" 
d="M284 33q69 0 124 47l15 -45q-69 -45 -150 -45q-103 0 -159.5 62.5t-56.5 185.5q0 116 56 182t145 66q174 0 174 -219v-29h-323q0 -99 44 -152t131 -53zM110 278h272q2 76 -30 120.5t-96 44.5q-132 0 -146 -165zM133 629q0 15 10 25.5t25 10.5t25.5 -10.5t10.5 -25.5
t-10.5 -25t-25.5 -10t-25 10t-10 25zM301 629q0 15 10 25.5t25 10.5t25.5 -10.5t10.5 -25.5t-10.5 -25t-25.5 -10t-25 10t-10 25z" />
    <glyph glyph-name="igrave" unicode="&#xec;" horiz-adv-x="213" 
d="M131 476v-476h-49v476h49zM130 553l-135 118l38 37l123 -131z" />
    <glyph glyph-name="iacute" unicode="&#xed;" horiz-adv-x="213" 
d="M131 476v-476h-49v476h49zM213 671l-135 -118l-26 24l123 131z" />
    <glyph glyph-name="icircumflex" unicode="&#xee;" horiz-adv-x="213" 
d="M131 476v-476h-49v476h49zM121 687l121 -113l-32 -32l-107 103l-104 -104l-31 30l119 116h34z" />
    <glyph glyph-name="idieresis" unicode="&#xef;" horiz-adv-x="213" 
d="M131 476v-476h-49v476h49zM-13 629q0 15 10 25.5t25 10.5t25.5 -10.5t10.5 -25.5t-10.5 -25t-25.5 -10t-25 10t-10 25zM155 629q0 15 10 25.5t25 10.5t25.5 -10.5t10.5 -25.5t-10.5 -25t-25.5 -10t-25 10t-10 25z" />
    <glyph glyph-name="eth" unicode="&#xf0;" horiz-adv-x="540" 
d="M56 238q0 111 57 179.5t155 68.5q74 0 121 -37q-47 87 -115 144l-64 -68l-29 28l60 65q-33 24 -67 42l22 30q38 -18 74 -41l59 64l29 -29l-55 -59q179 -138 179 -381v-6q0 -104 -55.5 -176t-158.5 -72q-101 0 -156.5 64t-55.5 184zM108 238q0 -205 160 -205
q158 0 162 197q0 94 -23 161q-22 23 -61 37.5t-78 14.5q-84 0 -122 -56.5t-38 -148.5z" />
    <glyph glyph-name="ntilde" unicode="&#xf1;" horiz-adv-x="534" 
d="M131 383v-383h-49v476h48v-50q80 60 159 60q166 0 166 -164v-322h-49v302q0 78 -28 109.5t-90 31.5q-73 0 -157 -60zM148 584l-21 23q48 54 90 54q29 0 58.5 -15t47.5 -15q41 0 67 32l19 -22q-41 -52 -87 -52q-22 0 -53 15t-50 15q-43 0 -71 -35z" />
    <glyph glyph-name="ograve" unicode="&#xf2;" horiz-adv-x="538" 
d="M56 238q0 111 57 179.5t155 68.5q103 0 158.5 -64t55.5 -184q0 -104 -55.5 -176t-158.5 -72q-101 0 -156.5 64t-55.5 184zM108 238q0 -205 160 -205q162 0 162 205q0 92 -38.5 148.5t-123.5 56.5q-84 0 -122 -56.5t-38 -148.5zM273 553l-135 118l38 37l123 -131z" />
    <glyph glyph-name="oacute" unicode="&#xf3;" horiz-adv-x="538" 
d="M56 238q0 111 57 179.5t155 68.5q103 0 158.5 -64t55.5 -184q0 -104 -55.5 -176t-158.5 -72q-101 0 -156.5 64t-55.5 184zM108 238q0 -205 160 -205q162 0 162 205q0 92 -38.5 148.5t-123.5 56.5q-84 0 -122 -56.5t-38 -148.5zM368 671l-135 -118l-26 24l123 131z" />
    <glyph glyph-name="ocircumflex" unicode="&#xf4;" horiz-adv-x="538" 
d="M56 238q0 111 57 179.5t155 68.5q103 0 158.5 -64t55.5 -184q0 -104 -55.5 -176t-158.5 -72q-101 0 -156.5 64t-55.5 184zM108 238q0 -205 160 -205q162 0 162 205q0 92 -38.5 148.5t-123.5 56.5q-84 0 -122 -56.5t-38 -148.5zM284 687l121 -113l-32 -32l-107 103
l-104 -104l-31 30l119 116h34z" />
    <glyph glyph-name="otilde" unicode="&#xf5;" horiz-adv-x="538" 
d="M56 238q0 111 57 179.5t155 68.5q103 0 158.5 -64t55.5 -184q0 -104 -55.5 -176t-158.5 -72q-101 0 -156.5 64t-55.5 184zM108 238q0 -205 160 -205q162 0 162 205q0 92 -38.5 148.5t-123.5 56.5q-84 0 -122 -56.5t-38 -148.5zM146 584l-21 23q48 54 90 54q29 0 58.5 -15
t47.5 -15q41 0 67 32l19 -22q-41 -52 -87 -52q-22 0 -53 15t-50 15q-43 0 -71 -35z" />
    <glyph glyph-name="odieresis" unicode="&#xf6;" horiz-adv-x="538" 
d="M56 238q0 111 57 179.5t155 68.5q103 0 158.5 -64t55.5 -184q0 -104 -55.5 -176t-158.5 -72q-101 0 -156.5 64t-55.5 184zM108 238q0 -205 160 -205q162 0 162 205q0 92 -38.5 148.5t-123.5 56.5q-84 0 -122 -56.5t-38 -148.5zM144 629q0 15 10 25.5t25 10.5t25.5 -10.5
t10.5 -25.5t-10.5 -25t-25.5 -10t-25 10t-10 25zM312 629q0 15 10 25.5t25 10.5t25.5 -10.5t10.5 -25.5t-10.5 -25t-25.5 -10t-25 10t-10 25z" />
    <glyph glyph-name="divide" unicode="&#xf7;" horiz-adv-x="511" 
d="M430 279h-349v42h349v-42zM219 419q0 15 10 25.5t25 10.5t25.5 -10.5t10.5 -25.5t-10.5 -25t-25.5 -10t-25 10t-10 25zM219 179q0 15 10 25.5t25 10.5t25.5 -10.5t10.5 -25.5t-10.5 -25t-25.5 -10t-25 10t-10 25z" />
    <glyph glyph-name="oslash" unicode="&#xf8;" horiz-adv-x="538" 
d="M56 238q0 111 57 179.5t155 68.5q82 0 135 -42l25 32h47l-45 -59q52 -64 52 -179q0 -104 -55.5 -176t-158.5 -72q-81 0 -133 41l-24 -31h-47l44 58q-52 64 -52 180zM108 238q0 -90 31 -141l235 309q-40 37 -106 37q-84 0 -122 -56.5t-38 -148.5zM268 33q162 0 162 205
q0 87 -32 138l-235 -308q37 -35 105 -35z" />
    <glyph glyph-name="ugrave" unicode="&#xf9;" horiz-adv-x="531" 
d="M400 92v384h49v-476h-48v49q-80 -60 -155 -60q-168 0 -168 164v323h49v-303q0 -77 29 -109t91 -32q69 0 153 60zM287 553l-135 118l38 37l123 -131z" />
    <glyph glyph-name="uacute" unicode="&#xfa;" horiz-adv-x="531" 
d="M400 92v384h49v-476h-48v49q-80 -60 -155 -60q-168 0 -168 164v323h49v-303q0 -77 29 -109t91 -32q69 0 153 60zM383 671l-135 -118l-26 24l123 131z" />
    <glyph glyph-name="ucircumflex" unicode="&#xfb;" horiz-adv-x="531" 
d="M400 92v384h49v-476h-48v49q-80 -60 -155 -60q-168 0 -168 164v323h49v-303q0 -77 29 -109t91 -32q69 0 153 60zM278 687l121 -113l-32 -32l-107 103l-104 -104l-31 30l119 116h34z" />
    <glyph glyph-name="udieresis" unicode="&#xfc;" horiz-adv-x="531" 
d="M400 92v384h49v-476h-48v49q-80 -60 -155 -60q-168 0 -168 164v323h49v-303q0 -77 29 -109t91 -32q69 0 153 60zM149 629q0 15 10 25.5t25 10.5t25.5 -10.5t10.5 -25.5t-10.5 -25t-25.5 -10t-25 10t-10 25zM317 629q0 15 10 25.5t25 10.5t25.5 -10.5t10.5 -25.5
t-10.5 -25t-25.5 -10t-25 10t-10 25z" />
    <glyph glyph-name="yacute" unicode="&#xfd;" horiz-adv-x="481" 
d="M458 476l-280 -696h-45l85 216l-196 480h49l120 -294l54 -129l51 131l115 292h47zM359 671l-135 -118l-26 24l123 131z" />
    <glyph glyph-name="thorn" unicode="&#xfe;" horiz-adv-x="536" 
d="M239 -10q-51 0 -108 21v-231h-49v905h49v-263q81 64 153 64q94 0 145.5 -65.5t51.5 -173.5q0 -117 -66 -187t-176 -70zM131 378v-317q49 -28 108 -28q91 0 140 56t49 155q0 95 -42 146.5t-110 51.5q-69 0 -145 -64z" />
    <glyph glyph-name="ydieresis" unicode="&#xff;" horiz-adv-x="481" 
d="M458 476l-280 -696h-45l85 216l-196 480h49l120 -294l54 -129l51 131l115 292h47zM123 629q0 15 10 25.5t25 10.5t25.5 -10.5t10.5 -25.5t-10.5 -25t-25.5 -10t-25 10t-10 25zM291 629q0 15 10 25.5t25 10.5t25.5 -10.5t10.5 -25.5t-10.5 -25t-25.5 -10t-25 10t-10 25z
" />
    <glyph glyph-name="Amacron" unicode="&#x100;" horiz-adv-x="566" 
d="M72 0h-50l236 650h50l237 -650h-54l-67 187h-285zM408 232l-86 242l-41 121l-39 -120l-87 -243h253zM146 754v43h274v-43h-274z" />
    <glyph glyph-name="amacron" unicode="&#x101;" horiz-adv-x="475" 
d="M336 99v111q-46 8 -88 8q-150 0 -150 -92q0 -46 27 -69.5t75 -23.5q34 0 72.5 19.5t63.5 46.5zM336 250l1 84q0 109 -105 109q-23 0 -44 -4.5t-40.5 -21t-19.5 -43.5q0 -11 5 -29l-48 -5q-6 18 -6 35q0 50 47.5 80.5t110.5 30.5q61 0 104.5 -32.5t43.5 -108.5l-1 -257
q0 -37 15.5 -49t37.5 -5l6 -40q-15 -4 -31 -4q-30 0 -49 17t-24 46q-69 -63 -156 -63q-61 0 -99 36t-38 92q0 137 207 137q40 0 83 -5zM112 604v43h234v-43h-234z" />
    <glyph glyph-name="Abreve" unicode="&#x102;" horiz-adv-x="566" 
d="M72 0h-50l236 650h50l237 -650h-54l-67 187h-285zM408 232l-86 242l-41 121l-39 -120l-87 -243h253zM362 838h36q0 -52 -29.5 -82.5t-85.5 -30.5q-59 0 -89 30.5t-30 82.5h38q0 -33 19 -54.5t60 -21.5q81 0 81 76z" />
    <glyph glyph-name="abreve" unicode="&#x103;" horiz-adv-x="475" 
d="M336 99v111q-46 8 -88 8q-150 0 -150 -92q0 -46 27 -69.5t75 -23.5q34 0 72.5 19.5t63.5 46.5zM336 250l1 84q0 109 -105 109q-23 0 -44 -4.5t-40.5 -21t-19.5 -43.5q0 -11 5 -29l-48 -5q-6 18 -6 35q0 50 47.5 80.5t110.5 30.5q61 0 104.5 -32.5t43.5 -108.5l-1 -257
q0 -37 15.5 -49t37.5 -5l6 -40q-15 -4 -31 -4q-30 0 -49 17t-24 46q-69 -63 -156 -63q-61 0 -99 36t-38 92q0 137 207 137q40 0 83 -5zM313 688h36q0 -52 -29.5 -82.5t-85.5 -30.5q-59 0 -89 30.5t-30 82.5h38q0 -33 19 -54.5t60 -21.5q81 0 81 76z" />
    <glyph glyph-name="Aogonek" unicode="&#x104;" horiz-adv-x="566" 
d="M72 0h-50l236 650h50l237 -650h-33q-27 -20 -48 -51.5t-21 -64.5q0 -34 22.5 -53t54.5 -19q36 0 62 23l9 -38q-33 -23 -82 -23q-56 0 -84.5 30.5t-28.5 75.5q0 39 26 75.5t65 56.5l-63 175h-285zM408 232l-86 242l-41 121l-39 -120l-87 -243h253z" />
    <glyph glyph-name="aogonek" unicode="&#x105;" horiz-adv-x="475" 
d="M336 250l1 84q0 109 -105 109q-23 0 -44 -4.5t-40.5 -21t-19.5 -43.5q0 -11 5 -29l-48 -5q-6 18 -6 35q0 50 47.5 80.5t110.5 30.5q61 0 104.5 -32.5t43.5 -108.5l-1 -257q0 -37 15.5 -49t37.5 -5l6 -40q-15 -4 -30 -4t-30 5q-62 -52 -62 -111q0 -34 22.5 -53t54.5 -19
q36 0 62 23l9 -38q-33 -23 -82 -23q-56 0 -84.5 30.5t-28.5 75.5q0 37 24.5 73t61.5 56q-16 16 -21 44q-69 -63 -156 -63q-61 0 -99 36t-38 92q0 137 207 137q40 0 83 -5zM336 99v111q-46 8 -88 8q-150 0 -150 -92q0 -46 27 -69.5t75 -23.5q34 0 72.5 19.5t63.5 46.5z" />
    <glyph glyph-name="Cacute" unicode="&#x106;" horiz-adv-x="575" 
d="M512 70l14 -46q-65 -34 -166 -34q-139 0 -218 78.5t-79 250.5q0 162 81.5 251t220.5 89q95 0 151 -33l-18 -54q-50 40 -132 40q-126 0 -187.5 -75.5t-61.5 -215.5q0 -144 60.5 -214t184.5 -70q47 0 89 10t61 23zM465 790l-160 -87l-20 28l150 105z" />
    <glyph glyph-name="cacute" unicode="&#x107;" horiz-adv-x="452" 
d="M109 229q0 -90 44.5 -143t130.5 -53q61 0 105 37l15 -45q-53 -35 -131 -35q-101 0 -158.5 63t-57.5 175q0 128 63.5 193t162.5 65q67 0 121 -26l-14 -50q-54 33 -110 33q-84 0 -127.5 -56t-43.5 -158zM357 671l-135 -118l-26 24l123 131z" />
    <glyph glyph-name="Ccircumflex" unicode="&#x108;" horiz-adv-x="575" 
d="M512 70l14 -46q-65 -34 -166 -34q-139 0 -218 78.5t-79 250.5q0 162 81.5 251t220.5 89q95 0 151 -33l-18 -54q-50 40 -132 40q-126 0 -187.5 -75.5t-61.5 -215.5q0 -144 60.5 -214t184.5 -70q47 0 89 10t61 23zM375 840l117 -97l-29 -33l-107 88l-105 -88l-28 32l118 98
h34z" />
    <glyph glyph-name="ccircumflex" unicode="&#x109;" horiz-adv-x="452" 
d="M109 229q0 -90 44.5 -143t130.5 -53q61 0 105 37l15 -45q-53 -35 -131 -35q-101 0 -158.5 63t-57.5 175q0 128 63.5 193t162.5 65q67 0 121 -26l-14 -50q-54 33 -110 33q-84 0 -127.5 -56t-43.5 -158zM285 687l121 -113l-32 -32l-107 103l-104 -104l-31 30l119 116h34z
" />
    <glyph glyph-name="Cdotaccent" unicode="&#x10a;" horiz-adv-x="575" 
d="M512 70l14 -46q-65 -34 -166 -34q-139 0 -218 78.5t-79 250.5q0 162 81.5 251t220.5 89q95 0 151 -33l-18 -54q-50 40 -132 40q-126 0 -187.5 -75.5t-61.5 -215.5q0 -144 60.5 -214t184.5 -70q47 0 89 10t61 23zM309 781q0 15 10 25.5t25 10.5t25.5 -10.5t10.5 -25.5
t-10.5 -25t-25.5 -10t-25 10t-10 25z" />
    <glyph glyph-name="cdotaccent" unicode="&#x10b;" horiz-adv-x="452" 
d="M109 229q0 -90 44.5 -143t130.5 -53q61 0 105 37l15 -45q-53 -35 -131 -35q-101 0 -158.5 63t-57.5 175q0 128 63.5 193t162.5 65q67 0 121 -26l-14 -50q-54 33 -110 33q-84 0 -127.5 -56t-43.5 -158zM219 641q0 15 10 25.5t25 10.5t25.5 -10.5t10.5 -25.5t-10.5 -25
t-25.5 -10t-25 10t-10 25z" />
    <glyph glyph-name="Ccaron" unicode="&#x10c;" horiz-adv-x="575" 
d="M512 70l14 -46q-65 -34 -166 -34q-139 0 -218 78.5t-79 250.5q0 162 81.5 251t220.5 89q95 0 151 -33l-18 -54q-50 40 -132 40q-126 0 -187.5 -75.5t-61.5 -215.5q0 -144 60.5 -214t184.5 -70q47 0 89 10t61 23zM335 710l-117 96l29 33l106 -87l105 88l29 -32l-118 -98
h-34z" />
    <glyph glyph-name="ccaron" unicode="&#x10d;" horiz-adv-x="452" 
d="M109 229q0 -90 44.5 -143t130.5 -53q61 0 105 37l15 -45q-53 -35 -131 -35q-101 0 -158.5 63t-57.5 175q0 128 63.5 193t162.5 65q67 0 121 -26l-14 -50q-54 33 -110 33q-84 0 -127.5 -56t-43.5 -158zM248 541l-122 113l32 32l108 -104l103 105l31 -30l-118 -116h-34z
" />
    <glyph glyph-name="Dcaron" unicode="&#x10e;" horiz-adv-x="667" 
d="M100 0v650h218q80 0 137.5 -27.5t88 -75t44 -101t13.5 -117.5q0 -58 -7.5 -105t-27.5 -90t-52 -71.5t-84 -45.5t-120 -17h-210zM319 602h-168v-554h168q58 0 100 15t66 38.5t38.5 61t19 75t4.5 87.5q0 54 -11 100.5t-35 87.5t-70.5 65t-111.5 24zM278 710l-117 96l29 33
l106 -87l105 88l29 -32l-118 -98h-34z" />
    <glyph glyph-name="dcaron" unicode="&#x10f;" horiz-adv-x="536" 
d="M294 486q50 0 111 -23v222h49v-685h-48v54q-81 -64 -154 -64q-94 0 -145.5 65.5t-51.5 173.5q0 117 65 187t174 70zM405 98v315q-49 30 -111 30q-90 0 -138.5 -56t-48.5 -155q0 -95 42.5 -147t110.5 -52q67 0 145 65zM510 509l30 176h48l-40 -176h-38z" />
    <glyph glyph-name="Dcroat" unicode="&#x110;" horiz-adv-x="668" 
d="M101 0v311h-75v42h75v297h218q80 0 137.5 -27.5t88 -75t44 -101t13.5 -117.5q0 -58 -7.5 -105t-27.5 -90t-52 -71.5t-84 -45.5t-120 -17h-210zM320 602h-168v-249h138v-42h-138v-263h168q58 0 100 15t66 38.5t38.5 61t19 75t4.5 87.5q0 54 -11 100.5t-35 87.5t-70.5 65
t-111.5 24z" />
    <glyph glyph-name="dcroat" unicode="&#x111;" horiz-adv-x="536" 
d="M512 564h-58v-564h-48v54q-81 -64 -154 -64q-94 0 -145.5 65.5t-51.5 173.5q0 117 65 187t174 70q50 0 111 -23v101h-182v41h182v80h49v-80h58v-41zM405 98v315q-49 30 -111 30q-90 0 -138.5 -56t-48.5 -155q0 -95 42.5 -147t110.5 -52q67 0 145 65z" />
    <glyph glyph-name="Emacron" unicode="&#x112;" horiz-adv-x="526" 
d="M100 650h359v-48h-308v-244h272v-47h-272v-263h308v-48h-359v650zM149 754v43h274v-43h-274z" />
    <glyph glyph-name="emacron" unicode="&#x113;" horiz-adv-x="486" 
d="M284 33q69 0 124 47l15 -45q-69 -45 -150 -45q-103 0 -159.5 62.5t-56.5 185.5q0 116 56 182t145 66q174 0 174 -219v-29h-323q0 -99 44 -152t131 -53zM110 278h272q2 76 -30 120.5t-96 44.5q-132 0 -146 -165zM142 604v43h234v-43h-234z" />
    <glyph glyph-name="Ebreve" unicode="&#x114;" horiz-adv-x="526" 
d="M100 650h359v-48h-308v-244h272v-47h-272v-263h308v-48h-359v650zM363 838h36q0 -52 -29.5 -82.5t-85.5 -30.5q-59 0 -89 30.5t-30 82.5h38q0 -33 19 -54.5t60 -21.5q81 0 81 76z" />
    <glyph glyph-name="ebreve" unicode="&#x115;" horiz-adv-x="486" 
d="M284 33q69 0 124 47l15 -45q-69 -45 -150 -45q-103 0 -159.5 62.5t-56.5 185.5q0 116 56 182t145 66q174 0 174 -219v-29h-323q0 -99 44 -152t131 -53zM110 278h272q2 76 -30 120.5t-96 44.5q-132 0 -146 -165zM343 688h36q0 -52 -29.5 -82.5t-85.5 -30.5q-59 0 -89 30.5
t-30 82.5h38q0 -33 19 -54.5t60 -21.5q81 0 81 76z" />
    <glyph glyph-name="Edotaccent" unicode="&#x116;" horiz-adv-x="526" 
d="M100 650h359v-48h-308v-244h272v-47h-272v-263h308v-48h-359v650zM248 781q0 15 10 25.5t25 10.5t25.5 -10.5t10.5 -25.5t-10.5 -25t-25.5 -10t-25 10t-10 25z" />
    <glyph glyph-name="edotaccent" unicode="&#x117;" horiz-adv-x="486" 
d="M284 33q69 0 124 47l15 -45q-69 -45 -150 -45q-103 0 -159.5 62.5t-56.5 185.5q0 116 56 182t145 66q174 0 174 -219v-29h-323q0 -99 44 -152t131 -53zM110 278h272q2 76 -30 120.5t-96 44.5q-132 0 -146 -165zM221 641q0 15 10 25.5t25 10.5t25.5 -10.5t10.5 -25.5
t-10.5 -25t-25.5 -10t-25 10t-10 25z" />
    <glyph glyph-name="Eogonek" unicode="&#x118;" horiz-adv-x="526" 
d="M100 650h359v-48h-308v-244h272v-47h-272v-263h308v-48h-59q-27 -20 -48 -51.5t-21 -64.5q0 -34 22.5 -53t54.5 -19q36 0 62 23l9 -38q-33 -23 -82 -23q-56 0 -84.5 30.5t-28.5 75.5q0 34 19.5 66t51.5 54h-255v650z" />
    <glyph glyph-name="eogonek" unicode="&#x119;" horiz-adv-x="487" 
d="M284 33q69 0 124 47l15 -45q-34 -23 -70 -34q-27 -19 -49 -51t-22 -66t22.5 -53t54.5 -19q36 0 62 23l9 -38q-33 -23 -82 -23q-56 0 -84.5 30.5t-28.5 75.5q0 62 59 111q-7 -1 -21 -1q-103 0 -159.5 62.5t-56.5 185.5q0 116 56 182t145 66q174 0 174 -219v-29h-323
q0 -99 44 -152t131 -53zM110 278h272q2 76 -30 120.5t-96 44.5q-132 0 -146 -165z" />
    <glyph glyph-name="Ecaron" unicode="&#x11a;" horiz-adv-x="526" 
d="M100 650h359v-48h-308v-244h272v-47h-272v-263h308v-48h-359v650zM272 710l-117 96l29 33l106 -87l105 88l29 -32l-118 -98h-34z" />
    <glyph glyph-name="ecaron" unicode="&#x11b;" horiz-adv-x="486" 
d="M284 33q69 0 124 47l15 -45q-69 -45 -150 -45q-103 0 -159.5 62.5t-56.5 185.5q0 116 56 182t145 66q174 0 174 -219v-29h-323q0 -99 44 -152t131 -53zM110 278h272q2 76 -30 120.5t-96 44.5q-132 0 -146 -165zM238 541l-122 113l32 32l108 -104l103 105l31 -30
l-118 -116h-34z" />
    <glyph glyph-name="Gcircumflex" unicode="&#x11c;" horiz-adv-x="628" 
d="M506 322h51v-268q-29 -24 -81 -44t-108 -20q-62 0 -113.5 15.5t-96 51t-70 102.5t-25.5 160q0 168 86 254t224 86q104 0 169 -38l-18 -54q-58 45 -150 45q-257 0 -257 -291q0 -284 253 -284q72 0 136 35v250zM377 840l117 -97l-29 -33l-107 88l-105 -88l-28 32l118 98h34
z" />
    <glyph glyph-name="gcircumflex" unicode="&#x11d;" horiz-adv-x="521" 
d="M242 486q24 0 71.5 -8.5t105.5 -9.5h76v-39h-99q39 -43 39 -106q0 -62 -47.5 -109.5t-118.5 -56.5q-114 -34 -114 -64q0 -11 9.5 -19t33.5 -12t41.5 -6t54.5 -4q43 -3 72 -8t59 -16t45 -31.5t15 -50.5q0 -69 -66.5 -120.5t-175.5 -51.5q-86 0 -147 31t-61 92q0 40 29 75
t83 56q-36 16 -36 55q0 47 82 77q-68 13 -104 57t-36 99q0 70 53 120t136 50zM103 317q0 -62 43 -93t96 -31q52 0 97.5 34.5t45.5 93.5q0 60 -41 91.5t-102 31.5q-58 0 -98.5 -33t-40.5 -94zM287 10q-73 4 -93 7q-109 -40 -109 -110q0 -47 48.5 -70t118.5 -23q81 0 131.5 36
t50.5 87q0 66 -147 73zM261 687l121 -113l-32 -32l-107 103l-104 -104l-31 30l119 116h34z" />
    <glyph glyph-name="Gbreve" unicode="&#x11e;" horiz-adv-x="628" 
d="M506 322h51v-268q-29 -24 -81 -44t-108 -20q-62 0 -113.5 15.5t-96 51t-70 102.5t-25.5 160q0 168 86 254t224 86q104 0 169 -38l-18 -54q-58 45 -150 45q-257 0 -257 -291q0 -284 253 -284q72 0 136 35v250zM446 838h36q0 -52 -29.5 -82.5t-85.5 -30.5q-59 0 -89 30.5
t-30 82.5h38q0 -33 19 -54.5t60 -21.5q81 0 81 76z" />
    <glyph glyph-name="gbreve" unicode="&#x11f;" horiz-adv-x="521" 
d="M242 486q24 0 71.5 -8.5t105.5 -9.5h76v-39h-99q39 -43 39 -106q0 -62 -47.5 -109.5t-118.5 -56.5q-114 -34 -114 -64q0 -11 9.5 -19t33.5 -12t41.5 -6t54.5 -4q43 -3 72 -8t59 -16t45 -31.5t15 -50.5q0 -69 -66.5 -120.5t-175.5 -51.5q-86 0 -147 31t-61 92q0 40 29 75
t83 56q-36 16 -36 55q0 47 82 77q-68 13 -104 57t-36 99q0 70 53 120t136 50zM103 317q0 -62 43 -93t96 -31q52 0 97.5 34.5t45.5 93.5q0 60 -41 91.5t-102 31.5q-58 0 -98.5 -33t-40.5 -94zM287 10q-73 4 -93 7q-109 -40 -109 -110q0 -47 48.5 -70t118.5 -23q81 0 131.5 36
t50.5 87q0 66 -147 73zM325 688h36q0 -52 -29.5 -82.5t-85.5 -30.5q-59 0 -89 30.5t-30 82.5h38q0 -33 19 -54.5t60 -21.5q81 0 81 76z" />
    <glyph glyph-name="Gdotaccent" unicode="&#x120;" horiz-adv-x="628" 
d="M506 322h51v-268q-29 -24 -81 -44t-108 -20q-62 0 -113.5 15.5t-96 51t-70 102.5t-25.5 160q0 168 86 254t224 86q104 0 169 -38l-18 -54q-58 45 -150 45q-257 0 -257 -291q0 -284 253 -284q72 0 136 35v250zM326 781q0 15 10 25.5t25 10.5t25.5 -10.5t10.5 -25.5
t-10.5 -25t-25.5 -10t-25 10t-10 25z" />
    <glyph glyph-name="gdotaccent" unicode="&#x121;" horiz-adv-x="521" 
d="M242 486q24 0 71.5 -8.5t105.5 -9.5h76v-39h-99q39 -43 39 -106q0 -62 -47.5 -109.5t-118.5 -56.5q-114 -34 -114 -64q0 -11 9.5 -19t33.5 -12t41.5 -6t54.5 -4q43 -3 72 -8t59 -16t45 -31.5t15 -50.5q0 -69 -66.5 -120.5t-175.5 -51.5q-86 0 -147 31t-61 92q0 40 29 75
t83 56q-36 16 -36 55q0 47 82 77q-68 13 -104 57t-36 99q0 70 53 120t136 50zM103 317q0 -62 43 -93t96 -31q52 0 97.5 34.5t45.5 93.5q0 60 -41 91.5t-102 31.5q-58 0 -98.5 -33t-40.5 -94zM287 10q-73 4 -93 7q-109 -40 -109 -110q0 -47 48.5 -70t118.5 -23q81 0 131.5 36
t50.5 87q0 66 -147 73zM203 641q0 15 10 25.5t25 10.5t25.5 -10.5t10.5 -25.5t-10.5 -25t-25.5 -10t-25 10t-10 25z" />
    <glyph glyph-name="Gcommaaccent" unicode="&#x122;" horiz-adv-x="628" 
d="M506 322h51v-268q-29 -24 -81 -44t-108 -20q-62 0 -113.5 15.5t-96 51t-70 102.5t-25.5 160q0 168 86 254t224 86q104 0 169 -38l-18 -54q-58 45 -150 45q-257 0 -257 -291q0 -284 253 -284q72 0 136 35v250zM347 -69h45q-6 -89 -46 -156l-36 10q37 75 37 146z" />
    <glyph glyph-name="gcommaaccent" unicode="&#x123;" horiz-adv-x="521" 
d="M242 486q24 0 71.5 -8.5t105.5 -9.5h76v-39h-99q39 -43 39 -106q0 -62 -47.5 -109.5t-118.5 -56.5q-114 -34 -114 -64q0 -11 9.5 -19t33.5 -12t41.5 -6t54.5 -4q43 -3 72 -8t59 -16t45 -31.5t15 -50.5q0 -69 -66.5 -120.5t-175.5 -51.5q-86 0 -147 31t-61 92q0 40 29 75
t83 56q-36 16 -36 55q0 47 82 77q-68 13 -104 57t-36 99q0 70 53 120t136 50zM103 317q0 -62 43 -93t96 -31q52 0 97.5 34.5t45.5 93.5q0 60 -41 91.5t-102 31.5q-58 0 -98.5 -33t-40.5 -94zM287 10q-73 4 -93 7q-109 -40 -109 -110q0 -47 48.5 -70t118.5 -23q81 0 131.5 36
t50.5 87q0 66 -147 73zM256 556h-45q6 89 46 156l36 -10q-37 -75 -37 -146z" />
    <glyph glyph-name="Hcircumflex" unicode="&#x124;" horiz-adv-x="654" 
d="M503 650h51v-650h-51v314h-352v-314h-51v650h51v-289h352v289zM353 840l117 -97l-29 -33l-107 88l-105 -88l-28 32l118 98h34z" />
    <glyph glyph-name="hcircumflex" unicode="&#x125;" horiz-adv-x="534" 
d="M131 383v-383h-49v685h49v-259q80 60 158 60q166 0 166 -164v-322h-49v302q0 77 -28 108.5t-90 31.5q-74 0 -157 -59zM123 823l121 -113l-32 -32l-107 103l-104 -104l-31 30l119 116h34z" />
    <glyph glyph-name="Hbar" unicode="&#x126;" horiz-adv-x="658" 
d="M506 650h51v-117h75v-42h-75v-491h-51v314h-352v-314h-51v491h-72v42h72v117h51v-117h352v117zM154 361h352v130h-352v-130z" />
    <glyph glyph-name="hbar" unicode="&#x127;" horiz-adv-x="534" 
d="M131 383v-383h-49v557h-55v41h55v87h49v-87h185v-41h-185v-131q80 60 158 60q166 0 166 -164v-322h-49v302q0 77 -28 108.5t-90 31.5q-74 0 -157 -59z" />
    <glyph glyph-name="Itilde" unicode="&#x128;" horiz-adv-x="251" 
d="M100 650h51v-650h-51v650zM-5 734l-21 23q48 54 90 54q29 0 68.5 -15t57.5 -15q41 0 67 32l19 -22q-41 -52 -87 -52q-22 0 -63 15t-60 15q-43 0 -71 -35z" />
    <glyph glyph-name="itilde" unicode="&#x129;" horiz-adv-x="213" 
d="M131 476v-476h-49v476h49zM-11 584l-21 23q48 54 90 54q29 0 58.5 -15t47.5 -15q41 0 67 32l19 -22q-41 -52 -87 -52q-22 0 -53 15t-50 15q-43 0 -71 -35z" />
    <glyph glyph-name="Imacron" unicode="&#x12a;" horiz-adv-x="251" 
d="M100 650h51v-650h-51v650zM-9 754v43h274v-43h-274z" />
    <glyph glyph-name="imacron" unicode="&#x12b;" horiz-adv-x="213" 
d="M131 476v-476h-49v476h49zM-11 604v43h234v-43h-234z" />
    <glyph glyph-name="Ibreve" unicode="&#x12c;" horiz-adv-x="251" 
d="M100 650h51v-650h-51v650zM207 838h36q0 -52 -29.5 -82.5t-85.5 -30.5q-59 0 -89 30.5t-30 82.5h38q0 -33 19 -54.5t60 -21.5q81 0 81 76z" />
    <glyph glyph-name="ibreve" unicode="&#x12d;" horiz-adv-x="213" 
d="M131 476v-476h-49v476h49zM186 688h36q0 -52 -29.5 -82.5t-85.5 -30.5q-59 0 -89 30.5t-30 82.5h38q0 -33 19 -54.5t60 -21.5q81 0 81 76z" />
    <glyph glyph-name="Iogonek" unicode="&#x12e;" horiz-adv-x="251" 
d="M100 650h51v-650h-26q-27 -20 -48 -51.5t-21 -64.5q0 -34 22.5 -53t54.5 -19q36 0 62 23l9 -38q-33 -23 -82 -23q-56 0 -84.5 30.5t-28.5 75.5q0 39 26 75.5t65 56.5v638z" />
    <glyph glyph-name="iogonek" unicode="&#x12f;" horiz-adv-x="214" 
d="M132 476v-476h-29q-27 -20 -48 -51.5t-21 -64.5q0 -34 22.5 -53t54.5 -19q36 0 62 23l9 -38q-33 -23 -82 -23q-56 0 -84.5 30.5t-28.5 75.5q0 40 27.5 78t68.5 56v462h49zM74 641q0 15 10 25.5t25 10.5t25.5 -10.5t10.5 -25.5t-10.5 -25t-25.5 -10t-25 10t-10 25z" />
    <glyph glyph-name="Idotaccent" unicode="&#x130;" horiz-adv-x="251" 
d="M100 650h51v-650h-51v650zM91 781q0 15 10 25.5t25 10.5t25.5 -10.5t10.5 -25.5t-10.5 -25t-25.5 -10t-25 10t-10 25z" />
    <glyph glyph-name="dotlessi" unicode="&#x131;" horiz-adv-x="213" 
d="M131 476v-476h-49v476h49z" />
    <glyph glyph-name="IJ" unicode="&#x132;" horiz-adv-x="501" 
d="M100 650h51v-650h-51v650zM402 650v-601q0 -76 -35 -129.5t-106 -72.5l-17 41q54 18 80.5 55t26.5 107v600h51z" />
    <glyph glyph-name="ij" unicode="&#x133;" horiz-adv-x="426" 
d="M131 476v-476h-49v476h49zM73 641q0 15 10 25.5t25 10.5t25.5 -10.5t10.5 -25.5t-10.5 -25t-25.5 -10t-25 10t-10 25zM295 -22v498h49v-500q0 -101 -58.5 -152t-121.5 -48l-8 44q139 10 139 158zM286 641q0 15 10 25.5t25 10.5t25.5 -10.5t10.5 -25.5t-10.5 -25
t-25.5 -10t-25 10t-10 25z" />
    <glyph glyph-name="Jcircumflex" unicode="&#x134;" horiz-adv-x="250" 
d="M151 650v-601q0 -76 -35 -129.5t-106 -72.5l-17 41q54 18 80.5 55t26.5 107v600h51zM141 840l117 -97l-29 -33l-107 88l-105 -88l-28 32l118 98h34z" />
    <glyph glyph-name="jcircumflex" unicode="&#x135;" horiz-adv-x="213" 
d="M123 687l121 -113l-32 -32l-107 103l-104 -104l-31 30l119 116h34zM82 -22v498h49v-500q0 -101 -58.5 -152t-121.5 -48l-8 44q139 10 139 158z" />
    <glyph glyph-name="Kcommaaccent" unicode="&#x136;" horiz-adv-x="555" 
d="M100 650h51v-315l47 13l252 302h61l-272 -319l299 -331h-66l-276 303l-45 -8v-295h-51v650zM281 -69h45q-6 -89 -46 -156l-36 10q37 75 37 146z" />
    <glyph glyph-name="kcommaaccent" unicode="&#x137;" horiz-adv-x="458" 
d="M207 253l234 -253h-66l-207 223l-37 -7v-216h-49v685h49v-431l27 7l192 215h60zM226 -69h45q-6 -89 -46 -156l-36 10q37 75 37 146z" />
    <glyph glyph-name="Lacute" unicode="&#x139;" horiz-adv-x="458" 
d="M100 650h51v-602h288v-48h-339v650zM267 790l-160 -87l-20 28l150 105z" />
    <glyph glyph-name="lacute" unicode="&#x13a;" horiz-adv-x="221" 
d="M135 685v-685h-49v685h49zM238 809l-160 -87l-20 28l150 105z" />
    <glyph glyph-name="Lcommaaccent" unicode="&#x13b;" horiz-adv-x="458" 
d="M100 650h51v-602h288v-48h-339v650zM258 -69h45q-6 -89 -46 -156l-36 10q37 75 37 146z" />
    <glyph glyph-name="lcommaaccent" unicode="&#x13c;" horiz-adv-x="221" 
d="M135 685v-685h-49v685h49zM90 -69h45q-6 -89 -46 -156l-36 10q37 75 37 146z" />
    <glyph glyph-name="Lcaron" unicode="&#x13d;" horiz-adv-x="460" 
d="M100 650h51v-602h288v-48h-339v650zM307 483l30 176h48l-40 -176h-38z" />
    <glyph glyph-name="lcaron" unicode="&#x13e;" horiz-adv-x="217" 
d="M135 685v-685h-49v685h49zM185 510l30 176h48l-40 -176h-38z" />
    <glyph glyph-name="Ldot" unicode="&#x13f;" horiz-adv-x="466" 
d="M100 650h51v-602h288v-48h-339v650zM337 343q0 34 37 34q38 0 38 -34q0 -36 -38 -36q-37 0 -37 36z" />
    <glyph glyph-name="ldot" unicode="&#x140;" horiz-adv-x="244" 
d="M135 685v-685h-49v685h49zM193 323q0 34 37 34q38 0 38 -34q0 -36 -38 -36q-37 0 -37 36z" />
    <glyph glyph-name="Lslash" unicode="&#x141;" horiz-adv-x="461" 
d="M103 650h51v-317l112 61l18 -36l-130 -70v-240h288v-48h-339v260l-69 -37l-17 35l86 47v345z" />
    <glyph glyph-name="lslash" unicode="&#x142;" horiz-adv-x="242" 
d="M141 327v-327h-49v295l-57 -37l-20 31l77 51v345h49v-313l68 45l20 -33z" />
    <glyph glyph-name="Nacute" unicode="&#x143;" horiz-adv-x="694" 
d="M149 457v-457h-49v650h50l306 -436l90 -132l-1 93v475h49v-650h-49l-305 436l-92 135zM477 790l-160 -87l-20 28l150 105z" />
    <glyph glyph-name="nacute" unicode="&#x144;" horiz-adv-x="534" 
d="M131 383v-383h-49v476h48v-50q80 60 159 60q166 0 166 -164v-322h-49v302q0 78 -28 109.5t-90 31.5q-73 0 -157 -60zM375 671l-135 -118l-26 24l123 131z" />
    <glyph glyph-name="Ncommaaccent" unicode="&#x145;" horiz-adv-x="694" 
d="M149 457v-457h-49v650h50l306 -436l90 -132l-1 93v475h49v-650h-49l-305 436l-92 135zM329 -69h45q-6 -89 -46 -156l-36 10q37 75 37 146z" />
    <glyph glyph-name="ncommaaccent" unicode="&#x146;" horiz-adv-x="534" 
d="M131 383v-383h-49v476h48v-50q80 60 159 60q166 0 166 -164v-322h-49v302q0 78 -28 109.5t-90 31.5q-73 0 -157 -60zM246 -69h45q-6 -89 -46 -156l-36 10q37 75 37 146z" />
    <glyph glyph-name="Ncaron" unicode="&#x147;" horiz-adv-x="694" 
d="M149 457v-457h-49v650h50l306 -436l90 -132l-1 93v475h49v-650h-49l-305 436l-92 135zM342 710l-117 96l29 33l106 -87l105 88l29 -32l-118 -98h-34z" />
    <glyph glyph-name="ncaron" unicode="&#x148;" horiz-adv-x="534" 
d="M131 383v-383h-49v476h48v-50q80 60 159 60q166 0 166 -164v-322h-49v302q0 78 -28 109.5t-90 31.5q-73 0 -157 -60zM256 541l-122 113l32 32l108 -104l103 105l31 -30l-118 -116h-34z" />
    <glyph glyph-name="napostrophe" unicode="&#x149;" horiz-adv-x="534" 
d="M131 383v-383h-49v476h48v-50q80 60 159 60q166 0 166 -164v-322h-49v302q0 78 -28 109.5t-90 31.5q-73 0 -157 -60zM123 736h45q-8 -103 -63 -197l-36 10q50 102 54 187z" />
    <glyph glyph-name="Eng" unicode="&#x14a;" horiz-adv-x="694" 
d="M149 457v-457h-49v650h50l306 -436l90 -132l-1 93v475h49v-675q0 -76 -35 -129.5t-106 -72.5l-17 41q54 18 81 55.5t27 106.5v25l-304 435l-92 135z" />
    <glyph glyph-name="eng" unicode="&#x14b;" horiz-adv-x="534" 
d="M275 -224l-8 44q139 10 139 158v324q0 77 -28 108.5t-90 31.5q-74 0 -157 -59v-383h-49v476h48v-50q80 60 159 60q166 0 166 -164v-346q0 -101 -58.5 -152t-121.5 -48z" />
    <glyph glyph-name="Omacron" unicode="&#x14c;" horiz-adv-x="697" 
d="M352 659q140 0 211 -90.5t71 -245.5q0 -147 -80 -240t-209 -93q-141 0 -211.5 88.5t-70.5 245.5q0 149 77 242t212 93zM345 37q115 0 175 79.5t60 206.5q0 137 -55.5 213t-172.5 76q-119 0 -177 -76t-58 -212q0 -287 228 -287zM220 754v43h274v-43h-274z" />
    <glyph glyph-name="omacron" unicode="&#x14d;" horiz-adv-x="538" 
d="M56 238q0 111 57 179.5t155 68.5q103 0 158.5 -64t55.5 -184q0 -104 -55.5 -176t-158.5 -72q-101 0 -156.5 64t-55.5 184zM108 238q0 -205 160 -205q162 0 162 205q0 92 -38.5 148.5t-123.5 56.5q-84 0 -122 -56.5t-38 -148.5zM151 604v43h234v-43h-234z" />
    <glyph glyph-name="Obreve" unicode="&#x14e;" horiz-adv-x="697" 
d="M352 659q140 0 211 -90.5t71 -245.5q0 -147 -80 -240t-209 -93q-141 0 -211.5 88.5t-70.5 245.5q0 149 77 242t212 93zM345 37q115 0 175 79.5t60 206.5q0 137 -55.5 213t-172.5 76q-119 0 -177 -76t-58 -212q0 -287 228 -287zM434 838h36q0 -52 -29.5 -82.5t-85.5 -30.5
q-59 0 -89 30.5t-30 82.5h38q0 -33 19 -54.5t60 -21.5q81 0 81 76z" />
    <glyph glyph-name="obreve" unicode="&#x14f;" horiz-adv-x="538" 
d="M56 238q0 111 57 179.5t155 68.5q103 0 158.5 -64t55.5 -184q0 -104 -55.5 -176t-158.5 -72q-101 0 -156.5 64t-55.5 184zM108 238q0 -205 160 -205q162 0 162 205q0 92 -38.5 148.5t-123.5 56.5q-84 0 -122 -56.5t-38 -148.5zM350 688h36q0 -52 -29.5 -82.5t-85.5 -30.5
q-59 0 -89 30.5t-30 82.5h38q0 -33 19 -54.5t60 -21.5q81 0 81 76z" />
    <glyph glyph-name="Ohungarumlaut" unicode="&#x150;" horiz-adv-x="697" 
d="M352 659q140 0 211 -90.5t71 -245.5q0 -147 -80 -240t-209 -93q-141 0 -211.5 88.5t-70.5 245.5q0 149 77 242t212 93zM345 37q115 0 175 79.5t60 206.5q0 137 -55.5 213t-172.5 76q-119 0 -177 -76t-58 -212q0 -287 228 -287zM416 802l-157 -99l-22 28l149 117zM554 767
l-167 -64l-16 29l160 84z" />
    <glyph glyph-name="ohungarumlaut" unicode="&#x151;" horiz-adv-x="538" 
d="M56 238q0 111 57 179.5t155 68.5q103 0 158.5 -64t55.5 -184q0 -104 -55.5 -176t-158.5 -72q-101 0 -156.5 64t-55.5 184zM108 238q0 -205 160 -205q162 0 162 205q0 92 -38.5 148.5t-123.5 56.5q-84 0 -122 -56.5t-38 -148.5zM293 671l-125 -118l-26 24l113 131z
M443 671l-125 -118l-26 24l113 131z" />
    <glyph glyph-name="OE" unicode="&#x152;" horiz-adv-x="848" 
d="M352 659q43 0 79 -9h350v-48h-308v-244h272v-47h-272v-263h308v-48h-349q-47 -10 -87 -10q-141 0 -211.5 88.5t-70.5 245.5q0 149 77 242t212 93zM345 35q39 0 77 9v560q-34 8 -70 8q-119 0 -177 -76t-58 -212q0 -289 228 -289z" />
    <glyph glyph-name="oe" unicode="&#x153;" horiz-adv-x="861" 
d="M56 238q0 111 57 179.5t155 68.5q140 0 189 -115q25 55 71 85t105 30q174 0 174 -219v-29h-323q0 -99 44 -152t131 -53q69 0 124 47l15 -45q-69 -45 -150 -45q-145 0 -194 117q-54 -117 -186 -117q-101 0 -156.5 64t-55.5 184zM108 238q0 -205 160 -205q162 0 162 205
q0 92 -38.5 148.5t-123.5 56.5q-84 0 -122 -56.5t-38 -148.5zM485 278h272q2 76 -30 120.5t-96 44.5q-132 0 -146 -165z" />
    <glyph glyph-name="Racute" unicode="&#x154;" horiz-adv-x="566" 
d="M100 0v650h164q118 0 169 -46t51 -146q0 -67 -34.5 -112.5t-92.5 -64.5l165 -281h-61l-157 270h-153v-270h-51zM273 317q157 0 157 137q0 81 -38 114.5t-124 33.5h-117v-285h122zM370 790l-160 -87l-20 28l150 105z" />
    <glyph glyph-name="racute" unicode="&#x155;" horiz-adv-x="331" 
d="M131 353v-353h-49v476h48v-80q64 84 149 84q20 0 30 -1l-4 -50q-11 4 -27 4q-74 0 -147 -80zM301 671l-135 -118l-26 24l123 131z" />
    <glyph glyph-name="Rcommaaccent" unicode="&#x156;" horiz-adv-x="566" 
d="M100 0v650h164q118 0 169 -46t51 -146q0 -67 -34.5 -112.5t-92.5 -64.5l165 -281h-61l-157 270h-153v-270h-51zM273 317q157 0 157 137q0 81 -38 114.5t-124 33.5h-117v-285h122zM276 -69h45q-6 -89 -46 -156l-36 10q37 75 37 146z" />
    <glyph glyph-name="rcommaaccent" unicode="&#x157;" horiz-adv-x="331" 
d="M131 353v-353h-49v476h48v-80q64 84 149 84q20 0 30 -1l-4 -50q-11 4 -27 4q-74 0 -147 -80zM86 -69h45q-6 -89 -46 -156l-36 10q37 75 37 146z" />
    <glyph glyph-name="Rcaron" unicode="&#x158;" horiz-adv-x="566" 
d="M100 0v650h164q118 0 169 -46t51 -146q0 -67 -34.5 -112.5t-92.5 -64.5l165 -281h-61l-157 270h-153v-270h-51zM273 317q157 0 157 137q0 81 -38 114.5t-124 33.5h-117v-285h122zM257 710l-117 96l29 33l106 -87l105 88l29 -32l-118 -98h-34z" />
    <glyph glyph-name="rcaron" unicode="&#x159;" horiz-adv-x="331" 
d="M131 353v-353h-49v476h48v-80q64 84 149 84q20 0 30 -1l-4 -50q-11 4 -27 4q-74 0 -147 -80zM182 541l-122 113l32 32l108 -104l103 105l31 -30l-118 -116h-34z" />
    <glyph glyph-name="Sacute" unicode="&#x15a;" horiz-adv-x="495" 
d="M237 35q61 0 105.5 32t44.5 89q0 52 -33 86.5t-80 54t-93.5 40t-79.5 60t-33 98.5q0 72 54.5 118t134.5 46q89 0 159 -41l-18 -54q-60 48 -140 48q-63 0 -100 -30.5t-37 -81.5q0 -48 33 -79.5t80 -50.5t94 -40.5t80 -62.5t33 -103q0 -74 -59.5 -124t-145.5 -50t-180 55
l18 54q30 -24 74.5 -44t88.5 -20zM361 790l-160 -87l-20 28l150 105z" />
    <glyph glyph-name="sacute" unicode="&#x15b;" horiz-adv-x="403" 
d="M307 119q0 35 -25.5 58t-61.5 36.5t-72.5 28.5t-62 43.5t-25.5 70.5q0 46 27.5 77.5t58.5 42t61 10.5q73 0 128 -33l-14 -50q-12 14 -43.5 27t-72.5 13q-35 0 -66 -20t-31 -63q0 -29 25.5 -49.5t62 -35t73 -31t62 -47t25.5 -72.5q0 -71 -49.5 -103t-119.5 -32
q-74 0 -140 41l17 49q18 -17 52.5 -32t70.5 -15q120 0 120 86zM301 671l-135 -118l-26 24l123 131z" />
    <glyph glyph-name="Scircumflex" unicode="&#x15c;" horiz-adv-x="495" 
d="M237 35q61 0 105.5 32t44.5 89q0 52 -33 86.5t-80 54t-93.5 40t-79.5 60t-33 98.5q0 72 54.5 118t134.5 46q89 0 159 -41l-18 -54q-60 48 -140 48q-63 0 -100 -30.5t-37 -81.5q0 -48 33 -79.5t80 -50.5t94 -40.5t80 -62.5t33 -103q0 -74 -59.5 -124t-145.5 -50t-180 55
l18 54q30 -24 74.5 -44t88.5 -20zM276 840l117 -97l-29 -33l-107 88l-105 -88l-28 32l118 98h34z" />
    <glyph glyph-name="scircumflex" unicode="&#x15d;" horiz-adv-x="403" 
d="M307 119q0 35 -25.5 58t-61.5 36.5t-72.5 28.5t-62 43.5t-25.5 70.5q0 46 27.5 77.5t58.5 42t61 10.5q73 0 128 -33l-14 -50q-12 14 -43.5 27t-72.5 13q-35 0 -66 -20t-31 -63q0 -29 25.5 -49.5t62 -35t73 -31t62 -47t25.5 -72.5q0 -71 -49.5 -103t-119.5 -32
q-74 0 -140 41l17 49q18 -17 52.5 -32t70.5 -15q120 0 120 86zM221 687l121 -113l-32 -32l-107 103l-104 -104l-31 30l119 116h34z" />
    <glyph glyph-name="Scedilla" unicode="&#x15e;" horiz-adv-x="495" 
d="M142 -201l20 44q24 -28 70 -28q28 0 42.5 11.5t14.5 29.5q0 24 -24.5 40t-69.5 18l23 77q-78 4 -162 54l18 54q30 -24 74.5 -44t88.5 -20q61 0 105.5 32t44.5 89q0 52 -33 86.5t-80 54t-93.5 40t-79.5 60t-33 98.5q0 72 54.5 118t134.5 46q89 0 159 -41l-18 -54
q-60 48 -140 48q-63 0 -100 -30.5t-37 -81.5q0 -48 33 -79.5t80 -50.5t94 -40.5t80 -62.5t33 -103q0 -69 -51.5 -117t-129.5 -56l-14 -50q44 -6 67 -30.5t23 -53.5q0 -33 -29.5 -58t-79.5 -25q-47 0 -85 25z" />
    <glyph glyph-name="scedilla" unicode="&#x15f;" horiz-adv-x="403" 
d="M94 -201l20 44q24 -28 70 -28q28 0 42.5 11.5t14.5 29.5q0 24 -24.5 40t-69.5 18l23 77q-67 4 -123 40l17 49q18 -17 52.5 -32t70.5 -15q120 0 120 86q0 35 -25.5 58t-61.5 36.5t-72.5 28.5t-62 43.5t-25.5 70.5q0 46 27.5 77.5t58.5 42t61 10.5q73 0 128 -33l-14 -50
q-12 14 -43.5 27t-72.5 13q-35 0 -66 -20t-31 -63q0 -29 25.5 -49.5t62 -35t73 -31t62 -47t25.5 -72.5q0 -64 -40.5 -96t-103.5 -38l-14 -50q44 -6 67 -30.5t23 -53.5q0 -33 -29.5 -58t-79.5 -25q-47 0 -85 25z" />
    <glyph glyph-name="Scaron" unicode="&#x160;" horiz-adv-x="495" 
d="M237 35q61 0 105.5 32t44.5 89q0 52 -33 86.5t-80 54t-93.5 40t-79.5 60t-33 98.5q0 72 54.5 118t134.5 46q89 0 159 -41l-18 -54q-60 48 -140 48q-63 0 -100 -30.5t-37 -81.5q0 -48 33 -79.5t80 -50.5t94 -40.5t80 -62.5t33 -103q0 -74 -59.5 -124t-145.5 -50t-180 55
l18 54q30 -24 74.5 -44t88.5 -20zM236 710l-117 96l29 33l106 -87l105 88l29 -32l-118 -98h-34z" />
    <glyph glyph-name="scaron" unicode="&#x161;" horiz-adv-x="403" 
d="M307 119q0 35 -25.5 58t-61.5 36.5t-72.5 28.5t-62 43.5t-25.5 70.5q0 46 27.5 77.5t58.5 42t61 10.5q73 0 128 -33l-14 -50q-12 14 -43.5 27t-72.5 13q-35 0 -66 -20t-31 -63q0 -29 25.5 -49.5t62 -35t73 -31t62 -47t25.5 -72.5q0 -71 -49.5 -103t-119.5 -32
q-74 0 -140 41l17 49q18 -17 52.5 -32t70.5 -15q120 0 120 86zM190 541l-122 113l32 32l108 -104l103 105l31 -30l-118 -116h-34z" />
    <glyph glyph-name="Tcommaaccent" unicode="&#x162;" horiz-adv-x="502" 
d="M483 650v-48h-206v-602h-51v602h-207v48h464zM231 -69h45q-6 -89 -46 -156l-36 10q37 75 37 146z" />
    <glyph glyph-name="tcommaaccent" unicode="&#x163;" horiz-adv-x="359" 
d="M151 430v-275q0 -68 23 -94.5t70 -26.5q49 0 84 30l15 -45q-49 -29 -110 -29q-65 0 -98 36.5t-33 127.5v276h-73v37l74 3l7 131h41v-132h171v-39h-171zM215 -69h45q-6 -89 -46 -156l-36 10q37 75 37 146z" />
    <glyph glyph-name="Tcaron" unicode="&#x164;" horiz-adv-x="502" 
d="M483 650v-48h-206v-602h-51v602h-207v48h464zM235 710l-117 96l29 33l106 -87l105 88l29 -32l-118 -98h-34z" />
    <glyph glyph-name="tcaron" unicode="&#x165;" horiz-adv-x="359" 
d="M151 430v-275q0 -68 23 -94.5t70 -26.5q49 0 84 30l15 -45q-49 -29 -110 -29q-65 0 -98 36.5t-33 127.5v276h-73v37l74 3l7 131h41v-132h171v-39h-171zM255 541l30 176h48l-40 -176h-38z" />
    <glyph glyph-name="Tbar" unicode="&#x166;" horiz-adv-x="503" 
d="M483 650v-48h-206v-250h144v-44h-144v-308h-51v308h-136v44h136v250h-207v48h464z" />
    <glyph glyph-name="tbar" unicode="&#x167;" horiz-adv-x="365" 
d="M155 239v-84q0 -68 23 -94.5t70 -26.5q49 0 84 30l15 -45q-49 -29 -110 -29q-65 0 -98 36.5t-33 127.5v85h-69v39h69v152h-73v37l74 3l7 131h41v-132h171v-39h-171v-152h171v-39h-171z" />
    <glyph glyph-name="Utilde" unicode="&#x168;" horiz-adv-x="668" 
d="M524 250v400h51v-400q0 -56 -9 -98t-33.5 -81t-74.5 -60t-124 -21t-123 18t-74 54t-34 77t-9 100v411h51v-410q0 -113 44 -159t146 -46t145.5 50.5t43.5 164.5zM218 734l-21 23q48 54 90 54q29 0 68.5 -15t57.5 -15q41 0 67 32l19 -22q-41 -52 -87 -52q-22 0 -63 15
t-60 15q-43 0 -71 -35z" />
    <glyph glyph-name="utilde" unicode="&#x169;" horiz-adv-x="531" 
d="M400 92v384h49v-476h-48v49q-80 -60 -155 -60q-168 0 -168 164v323h49v-303q0 -77 29 -109t91 -32q69 0 153 60zM144 584l-21 23q48 54 90 54q29 0 58.5 -15t47.5 -15q41 0 67 32l19 -22q-41 -52 -87 -52q-22 0 -53 15t-50 15q-43 0 -71 -35z" />
    <glyph glyph-name="Umacron" unicode="&#x16a;" horiz-adv-x="668" 
d="M524 250v400h51v-400q0 -56 -9 -98t-33.5 -81t-74.5 -60t-124 -21t-123 18t-74 54t-34 77t-9 100v411h51v-410q0 -113 44 -159t146 -46t145.5 50.5t43.5 164.5zM204 754v43h274v-43h-274z" />
    <glyph glyph-name="umacron" unicode="&#x16b;" horiz-adv-x="531" 
d="M400 92v384h49v-476h-48v49q-80 -60 -155 -60q-168 0 -168 164v323h49v-303q0 -77 29 -109t91 -32q69 0 153 60zM148 604v43h234v-43h-234z" />
    <glyph glyph-name="Ubreve" unicode="&#x16c;" horiz-adv-x="668" 
d="M524 250v400h51v-400q0 -56 -9 -98t-33.5 -81t-74.5 -60t-124 -21t-123 18t-74 54t-34 77t-9 100v411h51v-410q0 -113 44 -159t146 -46t145.5 50.5t43.5 164.5zM419 838h36q0 -52 -29.5 -82.5t-85.5 -30.5q-59 0 -89 30.5t-30 82.5h38q0 -33 19 -54.5t60 -21.5
q81 0 81 76z" />
    <glyph glyph-name="ubreve" unicode="&#x16d;" horiz-adv-x="531" 
d="M400 92v384h49v-476h-48v49q-80 -60 -155 -60q-168 0 -168 164v323h49v-303q0 -77 29 -109t91 -32q69 0 153 60zM345 688h36q0 -52 -29.5 -82.5t-85.5 -30.5q-59 0 -89 30.5t-30 82.5h38q0 -33 19 -54.5t60 -21.5q81 0 81 76z" />
    <glyph glyph-name="Uring" unicode="&#x16e;" horiz-adv-x="668" 
d="M524 250v400h51v-400q0 -56 -9 -98t-33.5 -81t-74.5 -60t-124 -21t-123 18t-74 54t-34 77t-9 100v411h51v-410q0 -113 44 -159t146 -46t145.5 50.5t43.5 164.5zM339 687q-43 0 -71 26.5t-28 68.5q0 41 29 67.5t72 26.5q45 0 71.5 -25.5t26.5 -68.5q0 -40 -28 -67.5
t-72 -27.5zM339 718q60 0 60 64t-60 64q-61 0 -61 -64q0 -31 16 -47.5t45 -16.5z" />
    <glyph glyph-name="uring" unicode="&#x16f;" horiz-adv-x="531" 
d="M400 92v384h49v-476h-48v49q-80 -60 -155 -60q-168 0 -168 164v323h49v-303q0 -77 29 -109t91 -32q69 0 153 60zM273 542q-43 0 -71 26.5t-28 68.5q0 41 29 67.5t72 26.5q45 0 71.5 -25.5t26.5 -68.5q0 -40 -28 -67.5t-72 -27.5zM273 573q60 0 60 64t-60 64
q-61 0 -61 -64q0 -31 16 -47.5t45 -16.5z" />
    <glyph glyph-name="Uhungarumlaut" unicode="&#x170;" horiz-adv-x="668" 
d="M524 250v400h51v-400q0 -56 -9 -98t-33.5 -81t-74.5 -60t-124 -21t-123 18t-74 54t-34 77t-9 100v411h51v-410q0 -113 44 -159t146 -46t145.5 50.5t43.5 164.5zM390 802l-157 -99l-22 28l149 117zM528 767l-167 -64l-16 29l160 84z" />
    <glyph glyph-name="uhungarumlaut" unicode="&#x171;" horiz-adv-x="531" 
d="M400 92v384h49v-476h-48v49q-80 -60 -155 -60q-168 0 -168 164v323h49v-303q0 -77 29 -109t91 -32q69 0 153 60zM299 671l-125 -118l-26 24l113 131zM449 671l-125 -118l-26 24l113 131z" />
    <glyph glyph-name="Uogonek" unicode="&#x172;" horiz-adv-x="668" 
d="M524 250v400h51v-400q0 -49 -6.5 -87t-24 -74t-53 -60t-87.5 -33q-29 -18 -53 -52t-24 -70q0 -34 22.5 -53t54.5 -19q36 0 62 23l9 -38q-33 -23 -82 -23q-56 0 -84.5 30.5t-28.5 75.5q0 34 20 66t52 54h-18q-74 0 -123 18t-74 54t-34 77t-9 100v411h51v-410
q0 -113 44 -159t146 -46t145.5 50.5t43.5 164.5z" />
    <glyph glyph-name="uogonek" unicode="&#x173;" horiz-adv-x="531" 
d="M400 92v384h49v-476h-28q-27 -20 -48 -51.5t-21 -64.5q0 -34 22.5 -53t54.5 -19q36 0 62 23l9 -38q-33 -23 -82 -23q-56 0 -84.5 30.5t-28.5 75.5q0 40 27.5 78t68.5 56v35q-80 -60 -155 -60q-168 0 -168 164v323h49v-303q0 -77 29 -109t91 -32q69 0 153 60z" />
    <glyph glyph-name="Wcircumflex" unicode="&#x174;" horiz-adv-x="846" 
d="M451 641l133 -442l39 -144l30 146l102 449h49l-157 -650h-50l-129 426l-47 154l-42 -156l-121 -424h-50l-176 650h52l115 -445l35 -150l38 148l126 438h53zM443 840l117 -97l-29 -33l-107 88l-105 -88l-28 32l118 98h34z" />
    <glyph glyph-name="wcircumflex" unicode="&#x175;" horiz-adv-x="764" 
d="M233 0h-57l-143 476h48l93 -312l34 -122l45 125l110 309h47l115 -335l33 -99l29 104l98 330h48l-147 -476h-60l-110 323l-32 98l-35 -101zM404 687l121 -113l-32 -32l-107 103l-104 -104l-31 30l119 116h34z" />
    <glyph glyph-name="Ycircumflex" unicode="&#x176;" horiz-adv-x="512" 
d="M163 473l97 -181l88 179l93 179h50l-207 -399v-251h-51v253l-225 397h54zM279 840l117 -97l-29 -33l-107 88l-105 -88l-28 32l118 98h34z" />
    <glyph glyph-name="ycircumflex" unicode="&#x177;" horiz-adv-x="481" 
d="M458 476l-280 -696h-45l85 216l-196 480h49l120 -294l54 -129l51 131l115 292h47zM255 687l121 -113l-32 -32l-107 103l-104 -104l-31 30l119 116h34z" />
    <glyph glyph-name="Ydieresis" unicode="&#x178;" horiz-adv-x="512" 
d="M163 473l97 -181l88 179l93 179h50l-207 -399v-251h-51v253l-225 397h54zM310 773q0 15 10 25.5t25 10.5t25.5 -10.5t10.5 -25.5t-10.5 -25t-25.5 -10t-25 10t-10 25zM142 773q0 15 10 25.5t25 10.5t25.5 -10.5t10.5 -25.5t-10.5 -25t-25.5 -10t-25 10t-10 25z" />
    <glyph glyph-name="Zacute" unicode="&#x179;" horiz-adv-x="522" 
d="M61 602v48h404v-42l-269 -414l-96 -146h375v-48h-433v38l267 412l100 152h-348zM382 790l-160 -87l-20 28l150 105z" />
    <glyph glyph-name="zacute" unicode="&#x17a;" horiz-adv-x="448" 
d="M102 43h303v-43h-366v29l293 403h-277v44h342v-29zM326 671l-135 -118l-26 24l123 131z" />
    <glyph glyph-name="Zdotaccent" unicode="&#x17b;" horiz-adv-x="522" 
d="M61 602v48h404v-42l-269 -414l-96 -146h375v-48h-433v38l267 412l100 152h-348zM244 781q0 15 10 25.5t25 10.5t25.5 -10.5t10.5 -25.5t-10.5 -25t-25.5 -10t-25 10t-10 25z" />
    <glyph glyph-name="zdotaccent" unicode="&#x17c;" horiz-adv-x="448" 
d="M102 43h303v-43h-366v29l293 403h-277v44h342v-29zM193 641q0 15 10 25.5t25 10.5t25.5 -10.5t10.5 -25.5t-10.5 -25t-25.5 -10t-25 10t-10 25z" />
    <glyph glyph-name="Zcaron" unicode="&#x17d;" horiz-adv-x="522" 
d="M61 602v48h404v-42l-269 -414l-96 -146h375v-48h-433v38l267 412l100 152h-348zM260 710l-117 96l29 33l106 -87l105 88l29 -32l-118 -98h-34z" />
    <glyph glyph-name="zcaron" unicode="&#x17e;" horiz-adv-x="448" 
d="M102 43h303v-43h-366v29l293 403h-277v44h342v-29zM210 541l-122 113l32 32l108 -104l103 105l31 -30l-118 -116h-34z" />
    <glyph glyph-name="uni018F" unicode="&#x18f;" horiz-adv-x="633" 
d="M295 613q-61 0 -116.5 -22t-81.5 -45l-25 43q33 27 94.5 48.5t129.5 21.5q273 0 273 -335q0 -156 -75.5 -245t-195.5 -89q-111 0 -173 72.5t-62 222.5v39h453q0 289 -221 289zM300 36q90 0 146.5 63.5t67.5 176.5h-394q-2 -103 42.5 -171.5t137.5 -68.5z" />
    <glyph glyph-name="florin" unicode="&#x192;" horiz-adv-x="504" 
d="M215 304h-116v39h117l6 163q4 97 46 143t114 46q54 0 84 -15l-15 -51q-35 23 -73 23q-55 0 -80 -34.5t-27 -105.5l-6 -169h183v-39h-184l-12 -341q-7 -189 -139 -189q-37 0 -84 15l15 51q46 -23 77 -23q77 0 82 140z" />
    <glyph glyph-name="uni01C4" unicode="&#x1c4;" horiz-adv-x="1189" 
d="M100 0v650h218q80 0 137.5 -27.5t88 -75t44 -101t13.5 -117.5q0 -58 -7.5 -105t-27.5 -90t-52 -71.5t-84 -45.5t-120 -17h-210zM319 602h-168v-554h168q58 0 100 15t66 38.5t38.5 61t19 75t4.5 87.5q0 54 -11 100.5t-35 87.5t-70.5 65t-111.5 24zM728 602v48h404v-42
l-269 -414l-96 -146h375v-48h-433v38l267 412l100 152h-348zM927 710l-117 96l29 33l106 -87l105 88l29 -32l-118 -98h-34z" />
    <glyph glyph-name="uni01C5" unicode="&#x1c5;" horiz-adv-x="1115" 
d="M100 0v650h218q80 0 137.5 -27.5t88 -75t44 -101t13.5 -117.5q0 -58 -7.5 -105t-27.5 -90t-52 -71.5t-84 -45.5t-120 -17h-210zM319 602h-168v-554h168q58 0 100 15t66 38.5t38.5 61t19 75t4.5 87.5q0 54 -11 100.5t-35 87.5t-70.5 65t-111.5 24zM769 43h303v-43h-366v29
l293 403h-277v44h342v-29zM877 541l-122 113l32 32l108 -104l103 105l31 -30l-118 -116h-34z" />
    <glyph glyph-name="uni01C6" unicode="&#x1c6;" horiz-adv-x="984" 
d="M454 685v-685h-48v54q-81 -64 -154 -64q-94 0 -145.5 65.5t-51.5 173.5q0 117 65 187t174 70q50 0 111 -23v222h49zM405 98v315q-49 30 -111 30q-90 0 -138.5 -56t-48.5 -155q0 -95 42.5 -147t110.5 -52q67 0 145 65zM638 43h303v-43h-366v29l293 403h-277v44h342v-29z
M746 541l-122 113l32 32l108 -104l103 105l31 -30l-118 -116h-34z" />
    <glyph glyph-name="uni01C7" unicode="&#x1c7;" horiz-adv-x="708" 
d="M100 650h51v-602h288v-48h-339v650zM609 650v-601q0 -76 -35 -129.5t-106 -72.5l-17 41q54 18 80.5 55t26.5 107v600h51z" />
    <glyph glyph-name="uni01C8" unicode="&#x1c8;" horiz-adv-x="671" 
d="M100 650h51v-602h288v-48h-339v650zM540 -22v498h49v-500q0 -101 -58.5 -152t-121.5 -48l-8 44q139 10 139 158zM531 641q0 15 10 25.5t25 10.5t25.5 -10.5t10.5 -25.5t-10.5 -25t-25.5 -10t-25 10t-10 25z" />
    <glyph glyph-name="uni01C9" unicode="&#x1c9;" horiz-adv-x="434" 
d="M135 685v-685h-49v685h49zM303 -22v498h49v-500q0 -101 -58.5 -152t-121.5 -48l-8 44q139 10 139 158zM294 641q0 15 10 25.5t25 10.5t25.5 -10.5t10.5 -25.5t-10.5 -25t-25.5 -10t-25 10t-10 25z" />
    <glyph glyph-name="uni01CA" unicode="&#x1ca;" horiz-adv-x="944" 
d="M149 457v-457h-49v650h50l306 -436l90 -132l-1 93v475h49v-650h-49l-305 436l-92 135zM845 650v-601q0 -76 -35 -129.5t-106 -72.5l-17 41q54 18 80.5 55t26.5 107v600h51z" />
    <glyph glyph-name="uni01CB" unicode="&#x1cb;" horiz-adv-x="907" 
d="M149 457v-457h-49v650h50l306 -436l90 -132l-1 93v475h49v-650h-49l-305 436l-92 135zM776 -22v498h49v-500q0 -101 -58.5 -152t-121.5 -48l-8 44q139 10 139 158zM767 641q0 15 10 25.5t25 10.5t25.5 -10.5t10.5 -25.5t-10.5 -25t-25.5 -10t-25 10t-10 25z" />
    <glyph glyph-name="uni01CC" unicode="&#x1cc;" horiz-adv-x="747" 
d="M131 383v-383h-49v476h48v-50q80 60 159 60q166 0 166 -164v-322h-49v302q0 78 -28 109.5t-90 31.5q-73 0 -157 -60zM616 -22v498h49v-500q0 -101 -58.5 -152t-121.5 -48l-8 44q139 10 139 158zM607 641q0 15 10 25.5t25 10.5t25.5 -10.5t10.5 -25.5t-10.5 -25t-25.5 -10
t-25 10t-10 25z" />
    <glyph glyph-name="uni01D3" unicode="&#x1d3;" horiz-adv-x="668" 
d="M524 250v400h51v-400q0 -56 -9 -98t-33.5 -81t-74.5 -60t-124 -21t-123 18t-74 54t-34 77t-9 100v411h51v-410q0 -113 44 -159t146 -46t145.5 50.5t43.5 164.5zM322 710l-117 96l29 33l106 -87l105 88l29 -32l-118 -98h-34z" />
    <glyph glyph-name="uni01D4" unicode="&#x1d4;" horiz-adv-x="531" 
d="M400 92v384h49v-476h-48v49q-80 -60 -155 -60q-168 0 -168 164v323h49v-303q0 -77 29 -109t91 -32q69 0 153 60zM248 542l-122 113l32 32l108 -104l103 105l31 -30l-118 -116h-34z" />
    <glyph glyph-name="AEmacron" unicode="&#x1e2;" horiz-adv-x="804" 
d="M362 650h375v-48h-308v-244h272v-47h-272v-263h308v-48h-359v187h-221l-101 -187h-50zM182 232h196v361zM431 754v43h274v-43h-274z" />
    <glyph glyph-name="aemacron" unicode="&#x1e3;" horiz-adv-x="760" 
d="M232 442q-38 0 -71 -15t-33 -53q0 -11 5 -29l-48 -5q-6 18 -6 35q0 50 47.5 80.5t110.5 30.5q108 0 138 -82q56 82 157 82q174 0 174 -219v-29h-323q0 -99 44 -152t131 -53q69 0 124 47l15 -45q-69 -45 -150 -45q-122 0 -175 83q-50 -48 -94 -65.5t-95 -17.5
q-61 0 -99 36t-38 92q0 137 206 137q37 0 79 -5q0 30 6 57v27q0 60 -27.5 84t-77.5 24zM384 278h272q2 76 -30 120.5t-96 44.5q-132 0 -146 -165zM98 126q0 -46 27 -69.5t75 -23.5q44 0 85 23t67 54q-18 46 -21 101q-39 7 -83 7q-150 0 -150 -92zM260 604v43h234v-43h-234z
" />
    <glyph glyph-name="uni01F1" unicode="&#x1f1;" horiz-adv-x="1181" 
d="M100 0v650h218q80 0 137.5 -27.5t88 -75t44 -101t13.5 -117.5q0 -58 -7.5 -105t-27.5 -90t-52 -71.5t-84 -45.5t-120 -17h-210zM319 602h-168v-554h168q58 0 100 15t66 38.5t38.5 61t19 75t4.5 87.5q0 54 -11 100.5t-35 87.5t-70.5 65t-111.5 24zM720 602v48h404v-42
l-269 -414l-96 -146h375v-48h-433v38l267 412l100 152h-348z" />
    <glyph glyph-name="uni01F2" unicode="&#x1f2;" horiz-adv-x="1110" 
d="M100 0v650h218q80 0 137.5 -27.5t88 -75t44 -101t13.5 -117.5q0 -58 -7.5 -105t-27.5 -90t-52 -71.5t-84 -45.5t-120 -17h-210zM319 602h-168v-554h168q58 0 100 15t66 38.5t38.5 61t19 75t4.5 87.5q0 54 -11 100.5t-35 87.5t-70.5 65t-111.5 24zM764 43h303v-43h-366v29
l293 403h-277v44h342v-29z" />
    <glyph glyph-name="uni01F3" unicode="&#x1f3;" horiz-adv-x="984" 
d="M454 685v-685h-48v54q-81 -64 -154 -64q-94 0 -145.5 65.5t-51.5 173.5q0 117 65 187t174 70q50 0 111 -23v222h49zM405 98v315q-49 30 -111 30q-90 0 -138.5 -56t-48.5 -155q0 -95 42.5 -147t110.5 -52q67 0 145 65zM638 43h303v-43h-366v29l293 403h-277v44h342v-29z
" />
    <glyph glyph-name="AEacute" unicode="&#x1fc;" horiz-adv-x="804" 
d="M362 650h375v-48h-308v-244h272v-47h-272v-263h308v-48h-359v187h-221l-101 -187h-50zM182 232h196v361zM649 790l-160 -87l-20 28l150 105z" />
    <glyph glyph-name="aeacute" unicode="&#x1fd;" horiz-adv-x="760" 
d="M232 442q-38 0 -71 -15t-33 -53q0 -11 5 -29l-48 -5q-6 18 -6 35q0 50 47.5 80.5t110.5 30.5q108 0 138 -82q56 82 157 82q174 0 174 -219v-29h-323q0 -99 44 -152t131 -53q69 0 124 47l15 -45q-69 -45 -150 -45q-122 0 -175 83q-50 -48 -94 -65.5t-95 -17.5
q-61 0 -99 36t-38 92q0 137 206 137q37 0 79 -5q0 30 6 57v27q0 60 -27.5 84t-77.5 24zM384 278h272q2 76 -30 120.5t-96 44.5q-132 0 -146 -165zM98 126q0 -46 27 -69.5t75 -23.5q44 0 85 23t67 54q-18 46 -21 101q-39 7 -83 7q-150 0 -150 -92zM510 671l-135 -118l-26 24
l123 131z" />
    <glyph glyph-name="Oslashacute" unicode="&#x1fe;" horiz-adv-x="697" 
d="M352 659q116 0 186 -65l45 56h51l-68 -85q68 -87 68 -242q0 -147 -80 -240t-209 -93q-116 0 -188 64l-43 -54h-51l67 83q-67 84 -67 241q0 149 77 242t212 93zM117 324q0 -130 45 -200l345 431q-55 57 -155 57q-119 0 -177 -76t-58 -212zM345 37q115 0 175 79.5t60 206.5
t-47 200l-345 -431q55 -55 157 -55zM478 790l-160 -87l-20 28l150 105z" />
    <glyph glyph-name="oslashacute" unicode="&#x1ff;" horiz-adv-x="538" 
d="M56 238q0 111 57 179.5t155 68.5q82 0 135 -42l25 32h47l-45 -59q52 -64 52 -179q0 -104 -55.5 -176t-158.5 -72q-81 0 -133 41l-24 -31h-47l44 58q-52 64 -52 180zM108 238q0 -90 31 -141l235 309q-40 37 -106 37q-84 0 -122 -56.5t-38 -148.5zM268 33q162 0 162 205
q0 87 -32 138l-235 -308q37 -35 105 -35zM386 671l-135 -118l-26 24l123 131z" />
    <glyph glyph-name="Scommaaccent" unicode="&#x218;" horiz-adv-x="495" 
d="M237 35q61 0 105.5 32t44.5 89q0 52 -33 86.5t-80 54t-93.5 40t-79.5 60t-33 98.5q0 72 54.5 118t134.5 46q89 0 159 -41l-18 -54q-60 48 -140 48q-63 0 -100 -30.5t-37 -81.5q0 -48 33 -79.5t80 -50.5t94 -40.5t80 -62.5t33 -103q0 -74 -59.5 -124t-145.5 -50t-180 55
l18 54q30 -24 74.5 -44t88.5 -20zM237 -69h45q-6 -89 -46 -156l-36 10q37 75 37 146z" />
    <glyph glyph-name="scommaaccent" unicode="&#x219;" horiz-adv-x="403" 
d="M307 119q0 35 -25.5 58t-61.5 36.5t-72.5 28.5t-62 43.5t-25.5 70.5q0 46 27.5 77.5t58.5 42t61 10.5q73 0 128 -33l-14 -50q-12 14 -43.5 27t-72.5 13q-35 0 -66 -20t-31 -63q0 -29 25.5 -49.5t62 -35t73 -31t62 -47t25.5 -72.5q0 -71 -49.5 -103t-119.5 -32
q-74 0 -140 41l17 49q18 -17 52.5 -32t70.5 -15q120 0 120 86zM181 -69h45q-6 -89 -46 -156l-36 10q37 75 37 146z" />
    <glyph glyph-name="uni021A" unicode="&#x21a;" horiz-adv-x="502" 
d="M483 650v-48h-206v-602h-51v602h-207v48h464zM233 -69h45q-6 -89 -46 -156l-36 10q37 75 37 146z" />
    <glyph glyph-name="uni021B" unicode="&#x21b;" horiz-adv-x="359" 
d="M151 430v-275q0 -68 23 -94.5t70 -26.5q49 0 84 30l15 -45q-49 -29 -110 -29q-65 0 -98 36.5t-33 127.5v276h-73v37l74 3l7 131h41v-132h171v-39h-171zM215 -69h45q-6 -89 -46 -156l-36 10q37 75 37 146z" />
    <glyph glyph-name="Ymacron" unicode="&#x232;" horiz-adv-x="512" 
d="M163 473l97 -181l88 179l93 179h50l-207 -399v-251h-51v253l-225 397h54zM122 754v43h274v-43h-274z" />
    <glyph glyph-name="ymacron" unicode="&#x233;" horiz-adv-x="481" 
d="M458 476l-280 -696h-45l85 216l-196 480h49l120 -294l54 -129l51 131l115 292h47zM127 604v43h234v-43h-234z" />
    <glyph glyph-name="dotlessj" unicode="&#x237;" horiz-adv-x="213" 
d="M82 -22v498h49v-500q0 -101 -58.5 -152t-121.5 -48l-8 44q139 10 139 158z" />
    <glyph glyph-name="schwa" unicode="&#x259;" horiz-adv-x="486" 
d="M203 443q-69 0 -124 -47l-15 45q69 45 150 45q103 0 159.5 -62.5t56.5 -185.5q0 -116 -56 -182t-145 -66q-174 0 -174 219v29h323q-1 98 -45 151.5t-130 53.5zM231 33q131 0 145 165h-271q-2 -76 30 -120.5t96 -44.5z" />
    <glyph glyph-name="circumflex" unicode="&#x2c6;" 
d="M240 687l121 -113l-32 -32l-107 103l-104 -104l-31 30l119 116h34z" />
    <glyph glyph-name="caron" unicode="&#x2c7;" 
d="M209 541l-122 113l32 32l108 -104l103 105l31 -30l-118 -116h-34z" />
    <glyph glyph-name="breve" unicode="&#x2d8;" 
d="M355 688h36q0 -52 -29.5 -82.5t-85.5 -30.5q-59 0 -89 30.5t-30 82.5h38q0 -33 19 -54.5t60 -21.5q81 0 81 76z" />
    <glyph glyph-name="dotaccent" unicode="&#x2d9;" 
d="M190 641q0 15 10 25.5t25 10.5t25.5 -10.5t10.5 -25.5t-10.5 -25t-25.5 -10t-25 10t-10 25z" />
    <glyph glyph-name="ring" unicode="&#x2da;" 
d="M224 542q-43 0 -71 26.5t-28 68.5q0 41 29 67.5t72 26.5q45 0 71.5 -25.5t26.5 -68.5q0 -40 -28 -67.5t-72 -27.5zM224 573q60 0 60 64t-60 64q-61 0 -61 -64q0 -31 16 -47.5t45 -16.5z" />
    <glyph glyph-name="ogonek" unicode="&#x2db;" 
d="M253 22l25 -8q-29 -11 -61 -50t-32 -80q0 -34 22.5 -53t54.5 -19q36 0 62 23l9 -38q-33 -23 -82 -23q-56 0 -84.5 30.5t-28.5 75.5t34 86t81 56z" />
    <glyph glyph-name="tilde" unicode="&#x2dc;" 
d="M95 584l-21 23q48 54 90 54q29 0 58.5 -15t47.5 -15q41 0 67 32l19 -22q-41 -52 -87 -52q-22 0 -53 15t-50 15q-43 0 -71 -35z" />
    <glyph glyph-name="hungarumlaut" unicode="&#x2dd;" 
d="M213 671l-125 -118l-26 24l113 131zM363 671l-125 -118l-26 24l113 131z" />
    <glyph glyph-name="uni0394" unicode="&#x394;" horiz-adv-x="577" 
d="M26 0l247 651h40l237 -651h-524zM84 38h406l-200 569z" />
    <glyph glyph-name="Sigma" unicode="&#x3a3;" horiz-adv-x="574" 
d="M48 0v47l248 284l-248 306v48h473v-43h-423l247 -302v-17l-248 -281h424v-42h-473z" />
    <glyph glyph-name="pi" unicode="&#x3c0;" horiz-adv-x="499" 
d="M411 476v-476h-49v432h-225v-432h-49v476h323z" />
    <glyph glyph-name="afii10023" unicode="&#x401;" horiz-adv-x="526" 
d="M100 650h359v-48h-308v-244h272v-47h-272v-263h308v-48h-359v650zM160 773q0 15 10 25.5t25 10.5t25.5 -10.5t10.5 -25.5t-10.5 -25t-25.5 -10t-25 10t-10 25zM328 773q0 15 10 25.5t25 10.5t25.5 -10.5t10.5 -25.5t-10.5 -25t-25.5 -10t-25 10t-10 25z" />
    <glyph glyph-name="afii10051" unicode="&#x402;" horiz-adv-x="671" 
d="M624 216q0 -113 -49.5 -183t-132.5 -81l-12 45q143 22 143 214q0 88 -30.5 129.5t-97.5 41.5q-84 0 -167 -59v-323h-51v602h-207v48h464v-48h-206v-236q80 60 168 60q82 0 129.5 -47.5t48.5 -162.5z" />
    <glyph glyph-name="afii10052" unicode="&#x403;" horiz-adv-x="405" 
d="M337 815l-135 -118l-26 24l123 131zM387 650v-48h-236v-602h-51v650h287z" />
    <glyph glyph-name="afii10053" unicode="&#x404;" horiz-adv-x="578" 
d="M515 70l14 -46q-65 -34 -166 -34q-139 0 -218 78.5t-79 250.5q0 162 81.5 251t220.5 89q95 0 151 -33l-18 -54q-50 40 -132 40q-119 0 -180 -67t-68 -192h299v-47h-300q3 -136 63.5 -202.5t181.5 -66.5q47 0 89 10t61 23z" />
    <glyph glyph-name="afii10054" unicode="&#x405;" horiz-adv-x="495" 
d="M237 35q61 0 105.5 32t44.5 89q0 52 -33 86.5t-80 54t-93.5 40t-79.5 60t-33 98.5q0 72 54.5 118t134.5 46q89 0 159 -41l-18 -54q-60 48 -140 48q-63 0 -100 -30.5t-37 -81.5q0 -48 33 -79.5t80 -50.5t94 -40.5t80 -62.5t33 -103q0 -74 -59.5 -124t-145.5 -50t-180 55
l18 54q30 -24 74.5 -44t88.5 -20z" />
    <glyph glyph-name="afii10055" unicode="&#x406;" horiz-adv-x="251" 
d="M100 650h51v-650h-51v650z" />
    <glyph glyph-name="afii10056" unicode="&#x407;" horiz-adv-x="251" 
d="M22 773q0 15 10 25.5t25 10.5t25.5 -10.5t10.5 -25.5t-10.5 -25t-25.5 -10t-25 10t-10 25zM160 773q0 15 10 25.5t25 10.5t25.5 -10.5t10.5 -25.5t-10.5 -25t-25.5 -10t-25 10t-10 25zM100 650h51v-650h-51v650z" />
    <glyph glyph-name="afii10057" unicode="&#x408;" horiz-adv-x="250" 
d="M151 650v-601q0 -76 -35 -129.5t-106 -72.5l-17 41q54 18 80.5 55t26.5 107v600h51z" />
    <glyph glyph-name="afii10058" unicode="&#x409;" horiz-adv-x="891" 
d="M157 650h347v-271h121q112 0 168.5 -50.5t56.5 -138.5q0 -89 -55 -139.5t-170 -50.5h-172v602h-247q-3 -118 -7.5 -202.5t-13.5 -157t-22.5 -117.5t-33.5 -76.5t-47 -43t-63 -8.5l-2 49q50 -4 78 46t43 181t19 377zM617 334h-113v-286h122q89 0 129.5 35t40.5 106
q0 145 -179 145z" />
    <glyph glyph-name="afii10059" unicode="&#x40a;" horiz-adv-x="941" 
d="M503 0v314h-352v-314h-51v650h51v-289h352v289h51v-271h121q112 0 168.5 -50.5t56.5 -138.5q0 -89 -55 -139.5t-170 -50.5h-172zM667 334h-113v-286h122q89 0 129.5 35t40.5 106q0 145 -179 145z" />
    <glyph glyph-name="afii10060" unicode="&#x40b;" horiz-adv-x="684" 
d="M278 323v-323h-51v602h-207v48h464v-48h-206v-236q80 60 168 60q80 0 129 -40t49 -124v-262h-51v242q0 71 -31 105.5t-97 34.5q-84 0 -167 -59z" />
    <glyph glyph-name="afii10061" unicode="&#x40c;" horiz-adv-x="555" 
d="M100 650h51v-315l47 13l252 302h61l-272 -319l299 -331h-66l-276 303l-45 -8v-295h-51v650zM383 815l-135 -118l-26 24l123 131z" />
    <glyph glyph-name="afii10062" unicode="&#x40e;" horiz-adv-x="529" 
d="M513 650l-176 -445q-38 -94 -83.5 -148.5t-121.5 -78.5l-19 44q82 18 140 108l-241 520h54l156 -340l57 -131l7 17l44 112l137 342h46zM273 725q-62 0 -99 30.5t-41 83.5l47 4q9 -80 93 -80q44 0 67.5 22.5t27.5 57.5l47 -4q-4 -53 -42 -83.5t-100 -30.5z" />
    <glyph glyph-name="afii10145" unicode="&#x40f;" horiz-adv-x="644" 
d="M544 0h-199v-128h-47v128h-198v650h51v-602h342v602h51v-650z" />
    <glyph glyph-name="afii10017" unicode="&#x410;" horiz-adv-x="566" 
d="M72 0h-50l236 650h50l237 -650h-54l-67 187h-285zM408 232l-86 242l-41 121l-39 -120l-87 -243h253z" />
    <glyph glyph-name="afii10018" unicode="&#x411;" horiz-adv-x="557" 
d="M274 334h-123v-286h132q89 0 129.5 35t40.5 106q0 72 -42.5 108.5t-136.5 36.5zM151 379h131q112 0 168.5 -50.5t56.5 -138.5q0 -89 -55 -139.5t-170 -50.5h-182v650h350v-48h-299v-223z" />
    <glyph glyph-name="afii10019" unicode="&#x412;" horiz-adv-x="565" 
d="M507 180q0 -180 -225 -180h-182v650h171q98 0 143.5 -40.5t45.5 -122.5q0 -46 -25 -83.5t-71 -55.5v-2q143 -27 143 -166zM274 314h-123v-266h132q90 0 130 30.5t40 100.5q0 135 -179 135zM406 486q0 60 -33 88t-105 28h-117v-243h112q61 0 102 35t41 92z" />
    <glyph glyph-name="afii10020" unicode="&#x413;" horiz-adv-x="405" 
d="M387 650v-48h-236v-602h-51v650h287z" />
    <glyph glyph-name="afii10021" unicode="&#x414;" horiz-adv-x="660" 
d="M15 48h56q30 28 50.5 80.5t31 104t16 136.5t6 136t0.5 145h358v-602h88v-176h-46v128h-514v-128h-46v176zM226 602q-1 -206 -18 -338.5t-74 -215.5h348v554h-256z" />
    <glyph glyph-name="afii10022" unicode="&#x415;" horiz-adv-x="526" 
d="M100 650h359v-48h-308v-244h272v-47h-272v-263h308v-48h-359v650z" />
    <glyph glyph-name="afii10024" unicode="&#x416;" horiz-adv-x="809" 
d="M429 298v-298h-49v298l-38 5l-262 -303h-65l287 333l-255 317h61l237 -302l35 -8v310h49v-310l38 8l237 302h61l-257 -319l284 -331h-66l-261 303z" />
    <glyph glyph-name="afii10025" unicode="&#x417;" horiz-adv-x="512" 
d="M229 -10q-121 0 -186 52l18 49q28 -23 74.5 -39t93.5 -16q74 0 121 38t47 105q0 69 -45 103.5t-123 34.5h-75v45h75q57 0 100 36t43 93t-36.5 89t-101.5 32q-75 0 -142 -47l-24 45q7 5 20.5 13.5t57 22t90.5 13.5q89 0 139.5 -44t50.5 -117q0 -56 -30.5 -95.5
t-85.5 -54.5v-2q72 -13 107 -60t35 -106q0 -84 -58 -137t-165 -53z" />
    <glyph glyph-name="afii10026" unicode="&#x418;" horiz-adv-x="669" 
d="M518 0v458l1 115l-66 -107l-303 -466h-50v650h51v-443l-2 -132l66 106l302 469h52v-650h-51z" />
    <glyph glyph-name="afii10027" unicode="&#x419;" horiz-adv-x="669" 
d="M339 725q-62 0 -99 30.5t-41 83.5l47 4q9 -80 93 -80q44 0 67.5 22.5t27.5 57.5l47 -4q-4 -53 -42 -83.5t-100 -30.5zM518 0v458l1 115l-66 -107l-303 -466h-50v650h51v-443l-2 -132l66 106l302 469h52v-650h-51z" />
    <glyph glyph-name="afii10028" unicode="&#x41a;" horiz-adv-x="555" 
d="M100 650h51v-315l47 13l252 302h61l-272 -319l299 -331h-66l-276 303l-45 -8v-295h-51v650z" />
    <glyph glyph-name="afii10029" unicode="&#x41b;" horiz-adv-x="604" 
d="M157 650h347v-650h-51v602h-247q-3 -146 -10 -243.5t-20 -172.5t-34 -115.5t-50.5 -59t-72.5 -14.5l-2 48q39 -3 63.5 22t40.5 97.5t24 185t12 300.5z" />
    <glyph glyph-name="afii10030" unicode="&#x41c;" horiz-adv-x="807" 
d="M658 0v556l-53 -139l-173 -417h-50l-173 395l-62 145l1 -137v-403h-48v650h51l184 -423l72 -176l68 168l178 431h54v-650h-49z" />
    <glyph glyph-name="afii10031" unicode="&#x41d;" horiz-adv-x="654" 
d="M503 650h51v-650h-51v314h-352v-314h-51v650h51v-289h352v289z" />
    <glyph glyph-name="afii10032" unicode="&#x41e;" horiz-adv-x="700" 
d="M355 659q140 0 211 -90.5t71 -245.5q0 -147 -80 -240t-209 -93q-141 0 -211.5 88.5t-70.5 245.5q0 149 77 242t212 93zM348 37q115 0 175 79.5t60 206.5q0 137 -55.5 213t-172.5 76q-119 0 -177 -76t-58 -212q0 -287 228 -287z" />
    <glyph glyph-name="afii10033" unicode="&#x41f;" horiz-adv-x="644" 
d="M100 650h444v-650h-51v602h-342v-602h-51v650z" />
    <glyph glyph-name="afii10034" unicode="&#x420;" horiz-adv-x="535" 
d="M100 0v650h170q116 0 167.5 -50t51.5 -152q0 -95 -57.5 -149t-146.5 -54h-134v-245h-51zM279 290q71 0 113.5 37t42.5 117q0 82 -38.5 120t-122.5 38h-123v-312h128z" />
    <glyph glyph-name="afii10035" unicode="&#x421;" horiz-adv-x="578" 
d="M515 70l14 -46q-65 -34 -166 -34q-139 0 -218 78.5t-79 250.5q0 162 81.5 251t220.5 89q95 0 151 -33l-18 -54q-50 40 -132 40q-126 0 -187.5 -75.5t-61.5 -215.5q0 -144 60.5 -214t184.5 -70q47 0 89 10t61 23z" />
    <glyph glyph-name="afii10036" unicode="&#x422;" horiz-adv-x="504" 
d="M484 650v-48h-206v-602h-51v602h-207v48h464z" />
    <glyph glyph-name="afii10037" unicode="&#x423;" horiz-adv-x="529" 
d="M513 650l-176 -445q-38 -94 -83.5 -148.5t-121.5 -78.5l-19 44q82 18 140 108l-241 520h54l156 -340l57 -131l7 17l44 112l137 342h46z" />
    <glyph glyph-name="afii10038" unicode="&#x424;" horiz-adv-x="825" 
d="M386 660h51v-65q95 -3 164.5 -29.5t113 -88t43.5 -154.5q0 -67 -27 -118.5t-73 -82.5t-101.5 -48t-119.5 -20v-64h-51v64q-319 11 -319 270q0 130 89.5 196.5t229.5 73.5v66zM121 324q0 -117 69.5 -168.5t195.5 -55.5v448q-265 -11 -265 -224zM704 323q0 218 -267 225
v-448q119 6 193 60.5t74 162.5z" />
    <glyph glyph-name="afii10039" unicode="&#x425;" horiz-adv-x="549" 
d="M45 650h56l175 -271l176 271h51l-201 -308l223 -342h-56l-195 302l-196 -302h-53l222 339z" />
    <glyph glyph-name="afii10040" unicode="&#x426;" horiz-adv-x="671" 
d="M100 650h51v-602h342v602h51v-602h90v-176h-47v128h-487v650z" />
    <glyph glyph-name="afii10041" unicode="&#x427;" horiz-adv-x="578" 
d="M429 351v299h49v-650h-48v306q-69 -47 -170 -47q-203 0 -203 188v203h49v-187q0 -93 42 -127t113 -34q99 0 168 49z" />
    <glyph glyph-name="afii10042" unicode="&#x428;" horiz-adv-x="853" 
d="M401 650h51v-602h250v602h51v-650h-653v650h51v-602h250v602z" />
    <glyph glyph-name="afii10043" unicode="&#x429;" horiz-adv-x="880" 
d="M401 650h51v-602h250v602h51v-602h90v-176h-47v128h-696v650h51v-602h250v602z" />
    <glyph glyph-name="afii10044" unicode="&#x42a;" horiz-adv-x="621" 
d="M234 379h121q112 0 168.5 -50.5t56.5 -138.5q0 -89 -55 -139.5t-170 -50.5h-172v602h-162v48h213v-271zM347 334h-113v-286h122q89 0 129.5 35t40.5 106q0 145 -179 145z" />
    <glyph glyph-name="afii10045" unicode="&#x42b;" horiz-adv-x="760" 
d="M609 649h51v-650h-51v650zM264 334h-113v-286h122q89 0 129.5 35t40.5 106q0 145 -179 145zM151 379h121q112 0 168.5 -50.5t56.5 -138.5q0 -89 -55 -139.5t-170 -50.5h-172v650h51v-271z" />
    <glyph glyph-name="afii10046" unicode="&#x42c;" horiz-adv-x="538" 
d="M264 334h-113v-286h122q89 0 129.5 35t40.5 106q0 145 -179 145zM151 379h121q112 0 168.5 -50.5t56.5 -138.5q0 -89 -55 -139.5t-170 -50.5h-172v650h51v-271z" />
    <glyph glyph-name="afii10047" unicode="&#x42d;" horiz-adv-x="573" 
d="M178 306v47h277q-4 121 -59.5 190t-167.5 69q-76 0 -142 -47l-24 45q7 5 20.5 13.5t56 22t87.5 13.5q140 0 212 -88.5t72 -237.5q0 -157 -72.5 -250t-206.5 -93q-118 0 -184 52l18 49q29 -24 74 -39t92 -15q214 0 224 269h-277z" />
    <glyph glyph-name="afii10048" unicode="&#x42e;" horiz-adv-x="894" 
d="M559 659q139 0 205.5 -89.5t66.5 -246.5q0 -148 -75.5 -240.5t-203.5 -92.5q-135 0 -201.5 82.5t-70.5 231.5h-129v-304h-51v650h51v-299h129q7 140 79 224t200 84zM552 37q114 0 169.5 78.5t55.5 207.5q0 289 -218 289q-225 0 -225 -288q0 -139 50 -213t168 -74z" />
    <glyph glyph-name="afii10049" unicode="&#x42f;" horiz-adv-x="564" 
d="M413 260h-148l-166 -260h-61l177 275q-57 14 -96 62.5t-39 114.5q0 198 230 198h154v-650h-51v260zM307 307h106v295h-112q-85 0 -126 -34.5t-41 -110.5q0 -79 49.5 -114.5t123.5 -35.5z" />
    <glyph glyph-name="afii10065" unicode="&#x430;" horiz-adv-x="475" 
d="M336 99v111q-46 8 -88 8q-150 0 -150 -92q0 -46 27 -69.5t75 -23.5q34 0 72.5 19.5t63.5 46.5zM336 250l1 84q0 109 -105 109q-23 0 -44 -4.5t-40.5 -21t-19.5 -43.5q0 -11 5 -29l-48 -5q-6 18 -6 35q0 50 47.5 80.5t110.5 30.5q61 0 104.5 -32.5t43.5 -108.5l-1 -257
q0 -37 15.5 -49t37.5 -5l6 -40q-15 -4 -31 -4q-30 0 -49 17t-24 46q-69 -63 -156 -63q-61 0 -99 36t-38 92q0 137 207 137q40 0 83 -5z" />
    <glyph glyph-name="afii10066" unicode="&#x431;" horiz-adv-x="552" 
d="M443 695l28 -42q-32 -25 -117 -44.5t-115 -31.5q-126 -49 -134 -262h2q18 60 66 95.5t120 35.5q92 0 147.5 -61.5t55.5 -168.5q0 -92 -58.5 -159t-155.5 -67q-100 0 -156 64t-56 185v66q0 98 18.5 162t51.5 98.5t87 55.5q28 11 109 31.5t107 42.5zM122 216
q0 -81 40.5 -132t119.5 -51t120.5 52t41.5 131q0 77 -40.5 132t-113.5 55q-88 0 -128 -55t-40 -132z" />
    <glyph glyph-name="afii10067" unicode="&#x432;" horiz-adv-x="469" 
d="M417 136q0 -136 -179 -136h-156v476h129q97 0 138 -30t41 -93q0 -44 -28 -69.5t-63 -31.5v-2q57 -4 87.5 -35.5t30.5 -78.5zM229 225h-98v-181h108q124 0 124 91q0 90 -134 90zM336 352q0 80 -128 80h-77v-167h98q51 0 79 23t28 64z" />
    <glyph glyph-name="afii10068" unicode="&#x433;" horiz-adv-x="363" 
d="M339 476v-44h-208v-432h-49v476h257z" />
    <glyph glyph-name="afii10069" unicode="&#x434;" horiz-adv-x="576" 
d="M18 44h47q29 29 47 72.5t25 110.5t8.5 113.5t1.5 135.5h309v-432h90v-172h-46v128h-436v-128h-46v172zM196 432q0 -142 -13.5 -234.5t-57.5 -153.5h282v388h-211z" />
    <glyph glyph-name="afii10070" unicode="&#x435;" horiz-adv-x="485" 
d="M283 33q69 0 124 47l15 -45q-69 -45 -150 -45q-103 0 -159.5 62.5t-56.5 185.5q0 116 56 182t145 66q174 0 174 -219v-29h-323q0 -99 44 -152t131 -53zM109 278h272q2 76 -30 120.5t-96 44.5q-132 0 -146 -165z" />
    <glyph glyph-name="afii10072" unicode="&#x436;" horiz-adv-x="666" 
d="M428 253l220 -253h-66l-193 223l-31 -6v-217h-49v217l-36 6l-192 -223h-62l220 253l-195 223h62l179 -215l24 -3v218h49v-218l21 3l182 215h60z" />
    <glyph glyph-name="afii10073" unicode="&#x437;" horiz-adv-x="441" 
d="M189 -10q-86 0 -152 41l17 49q50 -47 135 -47q73 0 109.5 22t36.5 74q0 47 -37.5 72.5t-102.5 25.5h-62v40h59q45 0 79.5 25t34.5 66q0 43 -33 64t-81 21q-60 0 -109 -35l-22 40q5 4 14.5 10.5t43.5 17t73 10.5q83 0 125.5 -31t42.5 -89q0 -45 -29 -74t-65 -37v-3
q63 -8 93 -43t30 -79q0 -68 -52 -104t-148 -36z" />
    <glyph glyph-name="afii10074" unicode="&#x438;" horiz-adv-x="535" 
d="M404 0v308l1 99l-53 -82l-222 -325h-48v476h49v-301l-2 -108l52 81l222 328h50v-476h-49z" />
    <glyph glyph-name="afii10075" unicode="&#x439;" horiz-adv-x="535" 
d="M272 575q-62 0 -99 30.5t-41 83.5l47 4q9 -80 93 -80q44 0 67.5 22.5t27.5 57.5l47 -4q-4 -53 -42 -83.5t-100 -30.5zM404 0v308l1 99l-53 -82l-222 -325h-48v476h49v-301l-2 -108l52 81l222 328h50v-476h-49z" />
    <glyph glyph-name="afii10076" unicode="&#x43a;" horiz-adv-x="459" 
d="M207 253l234 -253h-66l-207 223l-37 -7v-216h-49v476h49v-222l27 7l198 215h60z" />
    <glyph glyph-name="afii10077" unicode="&#x43b;" horiz-adv-x="511" 
d="M135 476h294v-476h-49v432h-194q-3 -441 -165 -437l-5 47q66 2 92.5 111.5t26.5 322.5z" />
    <glyph glyph-name="afii10078" unicode="&#x43c;" horiz-adv-x="681" 
d="M550 0v272l4 134l-52 -116l-142 -290h-40l-141 282l-51 110l2 -127v-265h-48v476h52l161 -329l45 -102l46 101l159 330h54v-476h-49z" />
    <glyph glyph-name="afii10079" unicode="&#x43d;" horiz-adv-x="527" 
d="M396 476h49v-476h-49v227h-265v-227h-49v476h49v-205h265v205z" />
    <glyph glyph-name="afii10080" unicode="&#x43e;" horiz-adv-x="538" 
d="M56 238q0 111 57 179.5t155 68.5q103 0 158.5 -64t55.5 -184q0 -104 -55.5 -176t-158.5 -72q-101 0 -156.5 64t-55.5 184zM108 238q0 -205 160 -205q162 0 162 205q0 92 -38.5 148.5t-123.5 56.5q-84 0 -122 -56.5t-38 -148.5z" />
    <glyph glyph-name="afii10081" unicode="&#x43f;" horiz-adv-x="517" 
d="M82 476h353v-476h-49v432h-255v-432h-49v476z" />
    <glyph glyph-name="afii10082" unicode="&#x440;" horiz-adv-x="536" 
d="M239 -10q-51 0 -108 21v-231h-49v696h48v-54q81 64 154 64q94 0 145.5 -65.5t51.5 -173.5q0 -117 -66 -187t-176 -70zM131 378v-317q49 -28 108 -28q91 0 140.5 56t49.5 155q0 95 -42.5 147t-110.5 52q-67 0 -145 -65z" />
    <glyph glyph-name="afii10083" unicode="&#x441;" 
d="M107 229q0 -90 44.5 -143t130.5 -53q61 0 105 37l15 -45q-53 -35 -131 -35q-101 0 -158.5 63t-57.5 175q0 128 63.5 193t162.5 65q67 0 121 -26l-14 -50q-54 33 -110 33q-84 0 -127.5 -56t-43.5 -158z" />
    <glyph glyph-name="afii10084" unicode="&#x442;" horiz-adv-x="394" 
d="M369 476v-44h-142v-432h-49v432h-153v44h344z" />
    <glyph glyph-name="afii10085" unicode="&#x443;" horiz-adv-x="481" 
d="M458 476l-280 -696h-45l85 216l-196 480h49l120 -294l54 -129l51 131l115 292h47z" />
    <glyph glyph-name="afii10086" unicode="&#x444;" horiz-adv-x="693" 
d="M54 238q0 108 69 174.5t199 72.5v200h49v-200q133 -5 200.5 -68t67.5 -179q0 -100 -68 -170t-200 -77l1 -211h-50v211q-268 9 -268 247zM106 238q0 -197 216 -208v415q-114 -6 -165 -62.5t-51 -144.5zM587 238q0 87 -51.5 144t-164.5 63v-415q114 6 165 62t51 146z" />
    <glyph glyph-name="afii10087" unicode="&#x445;" horiz-adv-x="449" 
d="M226 287l132 189h48l-156 -222l176 -254h-52l-150 218l-153 -218h-48l177 251l-155 225h51z" />
    <glyph glyph-name="afii10088" unicode="&#x446;" horiz-adv-x="555" 
d="M479 0h-397v476h49v-432h255v432h49v-432h90v-172h-46v128z" />
    <glyph glyph-name="afii10089" unicode="&#x447;" horiz-adv-x="493" 
d="M362 249v227h49v-476h-48v204q-73 -37 -134 -37q-28 0 -47.5 2t-46 11.5t-43.5 26t-29 49.5t-12 79v141h49v-125q0 -46 8.5 -75t27 -43t39.5 -18.5t55 -4.5q80 0 132 39z" />
    <glyph glyph-name="afii10090" unicode="&#x448;" horiz-adv-x="761" 
d="M355 476h51v-432h222v432h51v-476h-597v476h51v-432h222v432z" />
    <glyph glyph-name="afii10091" unicode="&#x449;" horiz-adv-x="798" 
d="M355 476h51v-432h222v432h51v-432h88v-172h-46v128h-639v476h51v-432h222v432z" />
    <glyph glyph-name="afii10092" unicode="&#x44a;" horiz-adv-x="527" 
d="M488 144q0 -64 -46.5 -104t-139.5 -40h-147v432h-129v44h178v-189h98q186 0 186 -143zM302 243h-98v-199h98q132 0 132 100q0 99 -132 99z" />
    <glyph glyph-name="afii10093" unicode="&#x44b;" horiz-adv-x="629" 
d="M547 476v-476h-49v476h49zM415 144q0 -64 -46.5 -104t-139.5 -40h-147v476h49v-189h98q186 0 186 -143zM229 243h-98v-199h98q132 0 132 100q0 99 -132 99z" />
    <glyph glyph-name="afii10094" unicode="&#x44c;" horiz-adv-x="454" 
d="M415 144q0 -64 -46.5 -104t-139.5 -40h-147v476h49v-189h98q186 0 186 -143zM229 243h-98v-199h98q132 0 132 100q0 99 -132 99z" />
    <glyph glyph-name="afii10095" unicode="&#x44d;" horiz-adv-x="467" 
d="M196 443q-70 0 -128 -41l-22 40q6 5 17.5 12.5t50.5 19.5t82 12q103 0 159 -64t56 -184q0 -105 -55 -176.5t-160 -71.5q-80 0 -146 41l17 49q17 -16 55 -31.5t74 -15.5q156 0 163 191h-199v42h198q-6 80 -45 128.5t-117 48.5z" />
    <glyph glyph-name="afii10096" unicode="&#x44e;" horiz-adv-x="707" 
d="M131 476v-212h111q6 102 59 162t145 60q102 0 153.5 -63.5t51.5 -184.5q0 -106 -51.5 -177t-153.5 -71q-97 0 -148.5 58.5t-55.5 171.5h-111v-220h-49v476h49zM294 238q0 -98 34 -151.5t118 -53.5q85 0 119 54.5t34 150.5q0 205 -153 205q-152 0 -152 -205z" />
    <glyph glyph-name="afii10097" unicode="&#x44f;" horiz-adv-x="477" 
d="M62 332q0 63 48 103.5t138 40.5h147v-476h-49v189h-121l-125 -189h-60l136 200q-114 19 -114 132zM248 233h98v199h-98q-132 0 -132 -100q0 -99 132 -99z" />
    <glyph glyph-name="afii10071" unicode="&#x451;" horiz-adv-x="485" 
d="M133 629q0 15 10 25.5t25 10.5t25.5 -10.5t10.5 -25.5t-10.5 -25t-25.5 -10t-25 10t-10 25zM301 629q0 15 10 25.5t25 10.5t25.5 -10.5t10.5 -25.5t-10.5 -25t-25.5 -10t-25 10t-10 25zM283 33q69 0 124 47l15 -45q-69 -45 -150 -45q-103 0 -159.5 62.5t-56.5 185.5
q0 116 56 182t145 66q174 0 174 -219v-29h-323q0 -99 44 -152t131 -53zM109 278h272q2 76 -30 120.5t-96 44.5q-132 0 -146 -165z" />
    <glyph glyph-name="afii10099" unicode="&#x452;" horiz-adv-x="516" 
d="M131 541v-175q24 29 67 44.5t81 15.5q179 0 179 -216v-7q0 -68 -14.5 -117t-42 -76t-57.5 -40t-69 -18l-8 44q139 9 139 206v10q0 92 -33 131t-95 39q-91 0 -147 -59v-323h-49v541h-74v37l74 3v104h49v-105h171v-39h-171z" />
    <glyph glyph-name="afii10100" unicode="&#x453;" horiz-adv-x="363" 
d="M310 671l-135 -118l-26 24l123 131zM339 476v-44h-208v-432h-49v476h257z" />
    <glyph glyph-name="afii10101" unicode="&#x454;" 
d="M334 225h-227q1 -89 45.5 -140.5t129.5 -51.5q61 0 105 37l15 -45q-53 -35 -131 -35q-101 0 -158.5 63t-57.5 175q0 128 63.5 193t162.5 65q67 0 121 -26l-14 -50q-54 33 -110 33q-76 0 -119 -46t-51 -132h226v-40z" />
    <glyph glyph-name="afii10102" unicode="&#x455;" horiz-adv-x="403" 
d="M307 119q0 35 -25.5 58t-61.5 36.5t-72.5 28.5t-62 43.5t-25.5 70.5q0 46 27.5 77.5t58.5 42t61 10.5q73 0 128 -33l-14 -50q-12 14 -43.5 27t-72.5 13q-35 0 -66 -20t-31 -63q0 -29 25.5 -49.5t62 -35t73 -31t62 -47t25.5 -72.5q0 -71 -49.5 -103t-119.5 -32
q-74 0 -140 41l17 49q18 -17 52.5 -32t70.5 -15q120 0 120 86z" />
    <glyph glyph-name="afii10103" unicode="&#x456;" horiz-adv-x="213" 
d="M131 476v-476h-49v476h49zM73 641q0 15 10 25.5t25 10.5t25.5 -10.5t10.5 -25.5t-10.5 -25t-25.5 -10t-25 10t-10 25z" />
    <glyph glyph-name="afii10104" unicode="&#x457;" horiz-adv-x="213" 
d="M131 476v-476h-49v476h49zM17 641q0 15 10 25.5t25 10.5t25.5 -10.5t10.5 -25.5t-10.5 -25t-25.5 -10t-25 10t-10 25zM125 641q0 15 10 25.5t25 10.5t25.5 -10.5t10.5 -25.5t-10.5 -25t-25.5 -10t-25 10t-10 25z" />
    <glyph glyph-name="afii10105" unicode="&#x458;" horiz-adv-x="213" 
d="M82 -22v498h49v-500q0 -101 -58.5 -152t-121.5 -48l-8 44q139 10 139 158zM73 641q0 15 10 25.5t25 10.5t25.5 -10.5t10.5 -25.5t-10.5 -25t-25.5 -10t-25 10t-10 25z" />
    <glyph glyph-name="afii10106" unicode="&#x459;" horiz-adv-x="752" 
d="M135 476h294v-189h98q186 0 186 -143q0 -64 -46.5 -104t-139.5 -40h-147v432h-194q-1 -90 -7.5 -157.5t-23 -135.5t-50.5 -105.5t-84 -40.5l-5 49q30 1 52 26t34.5 63.5t20 97.5t10 116t2.5 131zM429 243v-199h98q132 0 132 100q0 99 -132 99h-98z" />
    <glyph glyph-name="afii10107" unicode="&#x45a;" horiz-adv-x="768" 
d="M396 476h49v-189h98q186 0 186 -143q0 -64 -46.5 -104t-139.5 -40h-147v227h-265v-227h-49v476h49v-205h265v205zM445 243v-199h98q132 0 132 100q0 99 -132 99h-98z" />
    <glyph glyph-name="afii10108" unicode="&#x45b;" horiz-adv-x="534" 
d="M131 541v-175q80 60 158 60q166 0 166 -164v-262h-49v242q0 77 -28 108.5t-90 31.5q-74 0 -157 -59v-323h-49v541h-74v39h74v105h49v-105h171v-39h-171z" />
    <glyph glyph-name="afii10109" unicode="&#x45c;" horiz-adv-x="459" 
d="M345 671l-135 -118l-26 24l123 131zM207 253l234 -253h-66l-207 223l-37 -7v-216h-49v476h49v-222l27 7l198 215h60z" />
    <glyph glyph-name="afii10110" unicode="&#x45e;" horiz-adv-x="481" 
d="M245 575q-62 0 -99 30.5t-41 83.5l47 4q9 -80 93 -80q44 0 67.5 22.5t27.5 57.5l47 -4q-4 -53 -42 -83.5t-100 -30.5zM458 476l-280 -696h-45l85 216l-196 480h49l120 -294l54 -129l51 131l115 292h47z" />
    <glyph glyph-name="afii10193" unicode="&#x45f;" horiz-adv-x="517" 
d="M435 0h-153v-128h-45v128h-155v476h49v-432h255v432h49v-476z" />
    <glyph glyph-name="afii10050" unicode="&#x490;" horiz-adv-x="405" 
d="M341 778h46v-176h-236v-602h-51v650h241v128z" />
    <glyph glyph-name="afii10098" unicode="&#x491;" horiz-adv-x="343" 
d="M273 592h46v-160h-188v-432h-49v476h191v116z" />
    <glyph glyph-name="uni1E46" unicode="&#x1e46;" horiz-adv-x="694" 
d="M149 457v-457h-49v650h50l306 -436l90 -132l-1 93v475h49v-650h-49l-305 436l-92 135zM319 -153q0 15 10 25.5t25 10.5t25.5 -10.5t10.5 -25.5t-10.5 -25t-25.5 -10t-25 10t-10 25z" />
    <glyph glyph-name="uni1E47" unicode="&#x1e47;" horiz-adv-x="534" 
d="M131 383v-383h-49v476h48v-50q80 60 159 60q166 0 166 -164v-322h-49v302q0 78 -28 109.5t-90 31.5q-73 0 -157 -60zM230 -153q0 15 10 25.5t25 10.5t25.5 -10.5t10.5 -25.5t-10.5 -25t-25.5 -10t-25 10t-10 25z" />
    <glyph glyph-name="uni1E62" unicode="&#x1e62;" horiz-adv-x="495" 
d="M237 35q61 0 105.5 32t44.5 89q0 52 -33 86.5t-80 54t-93.5 40t-79.5 60t-33 98.5q0 72 54.5 118t134.5 46q89 0 159 -41l-18 -54q-60 48 -140 48q-63 0 -100 -30.5t-37 -81.5q0 -48 33 -79.5t80 -50.5t94 -40.5t80 -62.5t33 -103q0 -74 -59.5 -124t-145.5 -50t-180 55
l18 54q30 -24 74.5 -44t88.5 -20zM212 -153q0 15 10 25.5t25 10.5t25.5 -10.5t10.5 -25.5t-10.5 -25t-25.5 -10t-25 10t-10 25z" />
    <glyph glyph-name="uni1E63" unicode="&#x1e63;" horiz-adv-x="403" 
d="M307 119q0 35 -25.5 58t-61.5 36.5t-72.5 28.5t-62 43.5t-25.5 70.5q0 46 27.5 77.5t58.5 42t61 10.5q73 0 128 -33l-14 -50q-12 14 -43.5 27t-72.5 13q-35 0 -66 -20t-31 -63q0 -29 25.5 -49.5t62 -35t73 -31t62 -47t25.5 -72.5q0 -71 -49.5 -103t-119.5 -32
q-74 0 -140 41l17 49q18 -17 52.5 -32t70.5 -15q120 0 120 86zM164 -153q0 15 10 25.5t25 10.5t25.5 -10.5t10.5 -25.5t-10.5 -25t-25.5 -10t-25 10t-10 25z" />
    <glyph glyph-name="Wgrave" unicode="&#x1e80;" horiz-adv-x="846" 
d="M451 641l133 -442l39 -144l30 146l102 449h49l-157 -650h-50l-129 426l-47 154l-42 -156l-121 -424h-50l-176 650h52l115 -445l35 -150l38 148l126 438h53zM451 703l-160 87l30 46l150 -105z" />
    <glyph glyph-name="wgrave" unicode="&#x1e81;" horiz-adv-x="764" 
d="M233 0h-57l-143 476h48l93 -312l34 -122l45 125l110 309h47l115 -335l33 -99l29 104l98 330h48l-147 -476h-60l-110 323l-32 98l-35 -101zM405 553l-135 118l38 37l123 -131z" />
    <glyph glyph-name="Wacute" unicode="&#x1e82;" horiz-adv-x="846" 
d="M451 641l133 -442l39 -144l30 146l102 449h49l-157 -650h-50l-129 426l-47 154l-42 -156l-121 -424h-50l-176 650h52l115 -445l35 -150l38 148l126 438h53zM557 790l-160 -87l-20 28l150 105z" />
    <glyph glyph-name="wacute" unicode="&#x1e83;" horiz-adv-x="764" 
d="M233 0h-57l-143 476h48l93 -312l34 -122l45 125l110 309h47l115 -335l33 -99l29 104l98 330h48l-147 -476h-60l-110 323l-32 98l-35 -101zM509 671l-135 -118l-26 24l123 131z" />
    <glyph glyph-name="Wdieresis" unicode="&#x1e84;" horiz-adv-x="846" 
d="M451 641l133 -442l39 -144l30 146l102 449h49l-157 -650h-50l-129 426l-47 154l-42 -156l-121 -424h-50l-176 650h52l115 -445l35 -150l38 148l126 438h53zM306 773q0 15 10 25.5t25 10.5t25.5 -10.5t10.5 -25.5t-10.5 -25t-25.5 -10t-25 10t-10 25zM474 773
q0 15 10 25.5t25 10.5t25.5 -10.5t10.5 -25.5t-10.5 -25t-25.5 -10t-25 10t-10 25z" />
    <glyph glyph-name="wdieresis" unicode="&#x1e85;" horiz-adv-x="764" 
d="M233 0h-57l-143 476h48l93 -312l34 -122l45 125l110 309h47l115 -335l33 -99l29 104l98 330h48l-147 -476h-60l-110 323l-32 98l-35 -101zM260 629q0 15 10 25.5t25 10.5t25.5 -10.5t10.5 -25.5t-10.5 -25t-25.5 -10t-25 10t-10 25zM428 629q0 15 10 25.5t25 10.5
t25.5 -10.5t10.5 -25.5t-10.5 -25t-25.5 -10t-25 10t-10 25z" />
    <glyph glyph-name="uni1EBC" unicode="&#x1ebc;" horiz-adv-x="526" 
d="M100 650h359v-48h-308v-244h272v-47h-272v-263h308v-48h-359v650zM158 734l-21 23q48 54 90 54q29 0 68.5 -15t57.5 -15q41 0 67 32l19 -22q-41 -52 -87 -52q-22 0 -63 15t-60 15q-43 0 -71 -35z" />
    <glyph glyph-name="uni1EBD" unicode="&#x1ebd;" horiz-adv-x="486" 
d="M284 33q69 0 124 47l15 -45q-69 -45 -150 -45q-103 0 -159.5 62.5t-56.5 185.5q0 116 56 182t145 66q174 0 174 -219v-29h-323q0 -99 44 -152t131 -53zM110 278h272q2 76 -30 120.5t-96 44.5q-132 0 -146 -165zM133 584l-21 23q48 54 90 54q29 0 58.5 -15t47.5 -15
q41 0 67 32l19 -22q-41 -52 -87 -52q-22 0 -53 15t-50 15q-43 0 -71 -35z" />
    <glyph glyph-name="Ygrave" unicode="&#x1ef2;" horiz-adv-x="522" 
d="M168 473l97 -181l88 179l93 179h50l-207 -399v-251h-51v253l-225 397h54zM321 703l-160 87l30 46l150 -105z" />
    <glyph glyph-name="ygrave" unicode="&#x1ef3;" horiz-adv-x="481" 
d="M458 476l-280 -696h-45l85 216l-196 480h49l120 -294l54 -129l51 131l115 292h47zM263 553l-135 118l38 37l123 -131z" />
    <glyph glyph-name="uni2004" unicode="&#x2004;" horiz-adv-x="333" 
 />
    <glyph glyph-name="uni2007" unicode="&#x2007;" horiz-adv-x="600" 
 />
    <glyph glyph-name="uni2009" unicode="&#x2009;" horiz-adv-x="160" 
 />
    <glyph glyph-name="uni200A" unicode="&#x200a;" horiz-adv-x="80" 
 />
    <glyph glyph-name="uni200B" unicode="&#x200b;" horiz-adv-x="0" 
 />
    <glyph glyph-name="uni2012" unicode="&#x2012;" horiz-adv-x="329" 
d="M0 237v60h329v-60h-329z" />
    <glyph glyph-name="endash" unicode="&#x2013;" horiz-adv-x="588" 
d="M74 242v40h440v-40h-440z" />
    <glyph glyph-name="emdash" unicode="&#x2014;" horiz-adv-x="1088" 
d="M74 242v40h940v-40h-940z" />
    <glyph glyph-name="quoteleft" unicode="&#x2018;" horiz-adv-x="208" 
d="M120 512h-49q9 115 63 207l40 -10q-50 -101 -54 -197z" />
    <glyph glyph-name="quoteright" unicode="&#x2019;" horiz-adv-x="212" 
d="M117 711h49q-9 -115 -63 -207l-40 10q50 101 54 197z" />
    <glyph glyph-name="quotesinglbase" unicode="&#x201a;" horiz-adv-x="216" 
d="M87 57h45q-8 -103 -63 -197l-36 10q50 102 54 187z" />
    <glyph glyph-name="quotedblleft" unicode="&#x201c;" horiz-adv-x="354" 
d="M266 512h-49q9 115 63 207l40 -10q-50 -101 -54 -197zM120 512h-49q9 115 63 207l40 -10q-50 -101 -54 -197z" />
    <glyph glyph-name="quotedblright" unicode="&#x201d;" horiz-adv-x="358" 
d="M117 711h49q-9 -115 -63 -207l-40 10q50 101 54 197zM263 711h49q-9 -115 -63 -207l-40 10q50 101 54 197z" />
    <glyph glyph-name="quotedblbase" unicode="&#x201e;" horiz-adv-x="366" 
d="M87 57h45q-8 -103 -63 -197l-36 10q50 102 54 187zM237 57h45q-8 -103 -63 -197l-36 10q50 102 54 187z" />
    <glyph glyph-name="dagger" unicode="&#x2020;" horiz-adv-x="501" 
d="M32 406v41h188v238h47v-238h202v-41h-202v-576h-47v576h-188z" />
    <glyph glyph-name="daggerdbl" unicode="&#x2021;" horiz-adv-x="548" 
d="M55 413v41h188v231h47v-231h202v-41h-202v-207h202v-41h-202v-335h-47v335h-188v41h188v207h-188z" />
    <glyph glyph-name="bullet" unicode="&#x2022;" horiz-adv-x="423" 
d="M91 269q0 50 35 85.5t85 35.5t85.5 -35.5t35.5 -85.5t-35.5 -85t-85.5 -35t-85 35t-35 85z" />
    <glyph glyph-name="ellipsis" unicode="&#x2026;" horiz-adv-x="702" 
d="M77 26q0 34 37 34q38 0 38 -34q0 -36 -38 -36q-37 0 -37 36zM313 26q0 34 37 34q38 0 38 -34q0 -36 -38 -36q-37 0 -37 36zM549 26q0 34 37 34q38 0 38 -34q0 -18 -11 -27t-27 -9q-37 0 -37 36z" />
    <glyph glyph-name="perthousand" unicode="&#x2030;" horiz-adv-x="1020" 
d="M204 659q78 0 115 -41t37 -110q0 -61 -36.5 -106t-115.5 -45t-115 38t-36 113q0 64 38 107.5t113 43.5zM204 396q58 0 80.5 29.5t22.5 82.5q0 46 -23 79t-80 33q-103 0 -103 -112q0 -54 21.5 -83t81.5 -29zM495 291q78 0 115 -41t37 -110q0 -61 -36.5 -106t-115.5 -45
t-115 38t-36 113q0 64 38 107.5t113 43.5zM495 28q58 0 80.5 29.5t22.5 82.5q0 46 -23 79t-80 33q-103 0 -103 -112q0 -54 21.5 -83t81.5 -29zM826 291q78 0 115 -41t37 -110q0 -61 -36.5 -106t-115.5 -45t-115 38t-36 113q0 64 38 107.5t113 43.5zM826 28q58 0 80.5 29.5
t22.5 82.5q0 46 -23 79t-80 33q-103 0 -103 -112q0 -54 21.5 -83t81.5 -29zM577 567l-435 -516l-31 23l437 518z" />
    <glyph glyph-name="guilsinglleft" unicode="&#x2039;" horiz-adv-x="271" 
d="M51 234l120 231h49l-116 -227l116 -235h-49z" />
    <glyph glyph-name="guilsinglright" unicode="&#x203a;" horiz-adv-x="271" 
d="M100 465l120 -231l-120 -231h-49l116 235l-116 227h49z" />
    <glyph glyph-name="fraction" unicode="&#x2044;" horiz-adv-x="180" 
d="M-130 39l-29 22l471 569l28 -25z" />
    <glyph glyph-name="zerosuperior" unicode="&#x2070;" horiz-adv-x="344" 
d="M170 375q-66 0 -99.5 46t-33.5 128q0 186 136 186q134 0 134 -170q0 -34 -6 -64t-19.5 -60t-42.5 -48t-69 -18zM174 412q50 0 70 44t20 103q0 137 -94 137q-89 0 -89 -135q0 -30 3 -52.5t12 -46.5t28.5 -37t49.5 -13z" />
    <glyph glyph-name="foursuperior" unicode="&#x2074;" horiz-adv-x="310" 
d="M186 381v92h-168v30l170 227h41v-220h53v-37h-53v-92h-43zM69 510h117v159z" />
    <glyph glyph-name="fivesuperior" unicode="&#x2075;" horiz-adv-x="285" 
d="M125 375q-53 0 -95 36l23 34q38 -33 80 -33q31 0 52.5 18.5t21.5 51.5q0 45 -41 63t-115 18v167h190v-38h-147v-92q157 -6 157 -117q0 -46 -31 -77t-95 -31z" />
    <glyph glyph-name="sixsuperior" unicode="&#x2076;" horiz-adv-x="309" 
d="M159 375q-123 0 -123 167q0 89 50 141t139 52q6 0 36 -2v-40q-32 4 -39 4q-57 0 -96.5 -33.5t-45.5 -95.5q42 25 92 25q45 0 75 -25.5t30 -73.5q0 -53 -31.5 -86t-86.5 -33zM163 412q34 0 52 22t18 53q0 68 -74 68q-41 0 -80 -30q4 -113 84 -113z" />
    <glyph glyph-name="sevensuperior" unicode="&#x2077;" horiz-adv-x="267" 
d="M58 381l147 311h-186v38h236v-26l-153 -323h-44z" />
    <glyph glyph-name="eightsuperior" unicode="&#x2078;" horiz-adv-x="311" 
d="M155 375q-46 0 -83 24t-37 64q0 60 81 102q-24 14 -36 23.5t-22.5 26t-10.5 36.5q0 38 32.5 61t78.5 23q47 0 76 -22.5t29 -59.5q0 -45 -73 -86q28 -16 42 -25t29.5 -29t15.5 -42q0 -42 -37 -69t-85 -27zM159 412q33 0 53.5 15.5t20.5 40.5q0 16 -15 31.5t-28.5 23.5
t-38.5 21q-72 -36 -72 -77q0 -27 22.5 -41t57.5 -14zM89 653q0 -18 11.5 -29t55.5 -38q63 38 63 66q0 24 -18 35t-44 11q-31 0 -49.5 -12t-18.5 -33z" />
    <glyph glyph-name="ninesuperior" unicode="&#x2079;" horiz-adv-x="309" 
d="M48 377v40q23 -4 39 -4q58 0 97 33t45 95q-43 -24 -92 -24q-45 0 -75 25.5t-30 73.5q0 53 31.5 86t86.5 33q123 0 123 -167q0 -89 -50 -141t-139 -52q-6 0 -36 2zM151 555q39 0 79 29q-4 114 -84 114q-35 0 -52.5 -22t-17.5 -54q0 -67 75 -67z" />
    <glyph glyph-name="plussuperior" unicode="&#x207a;" horiz-adv-x="356" 
d="M157 429v121h-129v39h129v117h42v-117h129v-39h-129v-121h-42z" />
    <glyph glyph-name="minussuperior" unicode="&#x207b;" horiz-adv-x="378" 
d="M49 550v39h280v-39h-280z" />
    <glyph glyph-name="equalsuperior" unicode="&#x207c;" horiz-adv-x="414" 
d="M49 478v39h316v-39h-316zM49 629v38h316v-38h-316z" />
    <glyph glyph-name="parenleftsuperior" unicode="&#x207d;" horiz-adv-x="243" 
d="M213 321l-22 -28q-150 122 -150 298q0 79 38.5 158t113.5 135l20 -27q-64 -49 -96 -122t-32 -144q0 -159 128 -270z" />
    <glyph glyph-name="parenrightsuperior" unicode="&#x207e;" horiz-adv-x="243" 
d="M51 294l-21 27q128 111 128 270q0 71 -32 144t-96 122l21 27q75 -56 113 -135t38 -158q0 -173 -151 -297z" />
    <glyph glyph-name="n.superior" unicode="&#x207f;" horiz-adv-x="366" 
d="M46 380v350h45v-31q54 38 108 38q124 0 124 -122v-235h-45v221q0 53 -19 74.5t-61 21.5q-50 0 -107 -40v-277h-45z" />
    <glyph glyph-name="zeroinferior" unicode="&#x2080;" horiz-adv-x="344" 
d="M170 -5q-66 0 -99.5 46t-33.5 128q0 186 136 186q134 0 134 -170q0 -34 -6 -64t-19.5 -60t-42.5 -48t-69 -18zM174 32q50 0 70 44t20 103q0 137 -94 137q-89 0 -89 -135q0 -30 3 -52.5t12 -46.5t28.5 -37t49.5 -13z" />
    <glyph glyph-name="oneinferior" unicode="&#x2081;" horiz-adv-x="185" 
d="M94 0v313l-79 -4v39l122 7v-355h-43z" />
    <glyph glyph-name="twoinferior" unicode="&#x2082;" horiz-adv-x="291" 
d="M23 0v31q62 47 120.5 115t58.5 112q0 28 -17.5 43t-42.5 15q-37 0 -74 -39l-26 28q45 50 105 50q41 0 69.5 -24.5t28.5 -69.5t-48.5 -108.5t-109.5 -114.5h175v-38h-239z" />
    <glyph glyph-name="threeinferior" unicode="&#x2083;" horiz-adv-x="286" 
d="M124 -5q-30 0 -60.5 12.5t-40.5 22.5l25 34q37 -32 81 -32q31 0 54.5 17t23.5 45q0 64 -127 73v33q45 3 78 21.5t33 48.5q0 21 -16.5 33.5t-41.5 12.5q-37 0 -74 -27l-19 34q44 32 97 32q42 0 69.5 -23t27.5 -57q0 -61 -64 -87q81 -22 81 -93q0 -42 -31 -71t-96 -29z" />
    <glyph glyph-name="fourinferior" unicode="&#x2084;" horiz-adv-x="311" 
d="M187 1v92h-168v30l170 227h41v-220h53v-37h-53v-92h-43zM70 130h117v159z" />
    <glyph glyph-name="fiveinferior" unicode="&#x2085;" horiz-adv-x="285" 
d="M125 -5q-53 0 -95 36l23 34q38 -33 80 -33q31 0 52.5 18.5t21.5 51.5q0 45 -41 63t-115 18v167h190v-38h-147v-92q157 -6 157 -117q0 -46 -31 -77t-95 -31z" />
    <glyph glyph-name="sixinferior" unicode="&#x2086;" horiz-adv-x="309" 
d="M159 -5q-123 0 -123 167q0 89 50 141t139 52q6 0 36 -2v-40q-32 4 -39 4q-57 0 -96.5 -33.5t-45.5 -95.5q42 25 92 25q45 0 75 -25.5t30 -73.5q0 -53 -31.5 -86t-86.5 -33zM163 32q34 0 52 22t18 53q0 68 -74 68q-41 0 -80 -30q4 -113 84 -113z" />
    <glyph glyph-name="seveninferior" unicode="&#x2087;" horiz-adv-x="267" 
d="M58 1l147 311h-186v38h236v-26l-153 -323h-44z" />
    <glyph glyph-name="eightinferior" unicode="&#x2088;" horiz-adv-x="311" 
d="M155 -5q-46 0 -83 24t-37 64q0 60 81 102q-24 14 -36 23.5t-22.5 26t-10.5 36.5q0 38 32.5 61t78.5 23q47 0 76 -22.5t29 -59.5q0 -45 -73 -86q28 -16 42 -25t29.5 -29t15.5 -42q0 -42 -37 -69t-85 -27zM159 32q33 0 53.5 15.5t20.5 40.5q0 16 -15 31.5t-28.5 23.5
t-38.5 21q-72 -36 -72 -77q0 -27 22.5 -41t57.5 -14zM89 273q0 -18 11.5 -29t55.5 -38q63 38 63 66q0 24 -18 35t-44 11q-31 0 -49.5 -12t-18.5 -33z" />
    <glyph glyph-name="nineinferior" unicode="&#x2089;" horiz-adv-x="309" 
d="M48 -3v40q23 -4 39 -4q58 0 97 33t45 95q-43 -24 -92 -24q-45 0 -75 25.5t-30 73.5q0 53 31.5 86t86.5 33q123 0 123 -167q0 -89 -50 -141t-139 -52q-6 0 -36 2zM151 175q39 0 79 29q-4 114 -84 114q-35 0 -52.5 -22t-17.5 -54q0 -67 75 -67z" />
    <glyph glyph-name="parenleft.inferior" unicode="&#x208d;" horiz-adv-x="243" 
d="M213 -59l-22 -28q-150 122 -150 298q0 79 38.5 158t113.5 135l20 -27q-64 -49 -96 -122t-32 -144q0 -159 128 -270z" />
    <glyph glyph-name="parenright.inferior" unicode="&#x208e;" horiz-adv-x="243" 
d="M51 -86l-21 27q128 111 128 270q0 71 -32 144t-96 122l21 27q75 -56 113 -135t38 -158q0 -173 -151 -297z" />
    <glyph glyph-name="colonsign" unicode="&#x20a1;" horiz-adv-x="657" 
d="M585 707h43l-265 -672h3q46 0 88 11t62 24l14 -46q-65 -34 -166 -34h-19l-21 -54h-43l23 58q-55 8 -93 27l-33 -85h-43l41 105q-109 80 -109 278q0 162 81.5 251t220.5 89q29 0 49 -4l21 52h43l-24 -61q35 -10 87 -41zM370 612q-126 0 -187.5 -75.5t-61.5 -215.5
q0 -159 75 -230l205 519q-20 2 -31 2zM440 602l-211 -536q37 -21 92 -29l204 518q-45 34 -85 47z" />
    <glyph glyph-name="cruzeiro" unicode="&#x20a2;" horiz-adv-x="609" 
d="M533 70l14 -46q-65 -34 -166 -34q-68 0 -123 16.5t-100 53t-69.5 102.5t-24.5 157q0 168 89 254t233 86q95 0 151 -33l-18 -54q-50 40 -132 40q-129 0 -199 -75t-70 -216q0 -238 185 -278v298h48v-80q56 84 134 84q20 0 30 -1l-4 -50q-11 4 -27 4q-63 0 -132 -100v-162
q10 -1 31 -1q46 0 88 11t62 24z" />
    <glyph glyph-name="franc" unicode="&#x20a3;" horiz-adv-x="646" 
d="M424 230v-230h-49v306h-224v-306h-51v650h401v-48h-350v-249h272v-80q65 84 149 84q20 0 30 -1l-4 -50q-11 4 -27 4q-74 0 -147 -80z" />
    <glyph glyph-name="lira" unicode="&#x20a4;" horiz-adv-x="614" 
d="M163 224h-91v40h91v111h-91v38h91v16q0 119 58.5 174.5t151.5 55.5q85 0 146 -60l-35 -39q-48 55 -119 55q-77 0 -115 -43t-38 -141v-18h249v-38h-249v-111h249v-40h-249q-1 -63 -17.5 -104t-62.5 -72h276q58 0 87.5 15.5t47.5 44.5l31 -37q-16 -27 -51.5 -49t-80.5 -22
h-385v39q47 7 76.5 50.5t29.5 95.5v39z" />
    <glyph glyph-name="mill" unicode="&#x20a5;" horiz-adv-x="823" 
d="M125 383v-383h-49v476h48v-50q79 60 150 60q107 0 145 -70l17 13l60 184h42l-50 -152q52 25 99 25q168 0 168 -164v-322h-49v302q0 77 -29 109t-91 32q-52 0 -116 -40l-30 -92v-311h-49v160l-81 -249h-42l123 378v13q0 78 -28 109.5t-90 31.5q-69 0 -148 -60z" />
    <glyph glyph-name="naira" unicode="&#x20a6;" horiz-adv-x="761" 
d="M180 234v-234h-49v234h-71v39h71v111h-71v39h71v227h50l159 -227h236v227h49v-227h77v-39h-77v-111h77v-39h-77v-234h-49l-164 234h-232zM368 384l77 -111h131v111h-208zM180 384v-111h205l-78 111h-127zM473 234l14 -20l90 -132l-1 93v59h-103zM271 436l-92 135l1 -114
v-34h100z" />
    <glyph glyph-name="pesetas" unicode="&#x20a7;" horiz-adv-x="1186" 
d="M100 0v650h170q116 0 167.5 -50t51.5 -152q0 -95 -57.5 -149t-146.5 -54h-134v-245h-51zM279 290q71 0 113.5 37t42.5 117q0 82 -38.5 120t-122.5 38h-123v-312h128zM619 430v-275q0 -68 23 -94.5t70 -26.5q49 0 84 30l15 -45q-49 -29 -110 -29q-65 0 -98 36.5t-33 127.5
v276h-73v37l74 3l7 131h41v-132h171v-39h-171zM1078 119q0 35 -25.5 58t-61.5 36.5t-72.5 28.5t-62 43.5t-25.5 70.5q0 46 27.5 77.5t58.5 42t61 10.5q73 0 128 -33l-14 -50q-12 14 -43.5 27t-72.5 13q-35 0 -66 -20t-31 -63q0 -29 25.5 -49.5t62 -35t73 -31t62 -47
t25.5 -72.5q0 -71 -49.5 -103t-119.5 -32q-74 0 -140 41l17 49q18 -17 52.5 -32t70.5 -15q120 0 120 86z" />
    <glyph glyph-name="rupee" unicode="&#x20a8;" horiz-adv-x="852" 
d="M627 -10q-44 0 -72 7t-66 34.5t-81.5 84.5t-103.5 154h-153v-270h-51v650h164q118 0 169 -46t51 -146q0 -67 -34.5 -112.5t-92.5 -64.5q52 -85 92.5 -137.5t72.5 -75.5t53.5 -29t51.5 -6q120 0 120 86q0 35 -25.5 58t-61.5 36.5t-72.5 28.5t-62 43.5t-25.5 70.5
q0 46 27.5 77.5t58.5 42t61 10.5q73 0 128 -33l-14 -50q-13 14 -44 27.5t-72 13.5q-35 0 -66.5 -20.5t-31.5 -63.5q0 -24 18.5 -43t46 -30.5t60 -26t60 -29.5t46 -42.5t18.5 -63.5q0 -71 -49.5 -103t-119.5 -32zM273 317q157 0 157 137q0 81 -38 114.5t-124 33.5h-117v-285
h122z" />
    <glyph glyph-name="won" unicode="&#x20a9;" horiz-adv-x="905" 
d="M481 641l68 -228h182l54 237h49l-57 -237h63v-39h-73l-27 -111h100v-39h-109l-54 -224h-50l-68 224h-207l-64 -224h-50l-61 224h-109v39h99l-30 111h-69v39h58l-64 237h52l61 -237h187l66 228h53zM394 374l-31 -111h184l-33 111h-120zM185 374l29 -111h105l32 111h-166z
M561 374l34 -111h102l25 111h-161zM409 424l-3 -11h96l-4 13l-47 154zM264 55l38 148l6 21h-84l5 -19zM653 55l30 146l5 23h-82l8 -25z" />
    <glyph glyph-name="sheqel" unicode="&#x20aa;" horiz-adv-x="798" 
d="M100 0v650h192q76 0 121.5 -13t70.5 -48.5t33 -84.5t8 -133v-163h-50v165q0 62 -7.5 103.5t-20 66.5t-37 38t-51 17t-68.5 4h-141v-602h-50zM704 650v-371q0 -84 -8 -133t-33 -84.5t-70.5 -48.5t-121.5 -13h-192v442h50v-394h146q57 0 87 6.5t53 30.5t31 69t8 123v373h50
z" />
    <glyph glyph-name="dong" unicode="&#x20ab;" horiz-adv-x="505" 
d="M184 581v38h170v66h43v-66h43v-38h-43v-441h-42v43q-66 -51 -125 -51q-76 0 -118 52t-42 138q0 93 53 149t141 56q41 0 90 -18v72h-170zM354 222v243q-37 23 -90 23q-73 0 -110 -42t-37 -121q0 -77 32 -115.5t88 -38.5q57 0 117 51zM81 0v42h329v-42h-329z" />
    <glyph glyph-name="Euro" unicode="&#x20ac;" horiz-adv-x="608" 
d="M124 230h-79l10 39h65q-1 16 -1 50q0 21 2 61h-66l10 39h61q38 240 265 240q95 0 151 -33l-18 -54q-50 40 -132 40q-100 0 -150 -48.5t-63 -144.5h295l-10 -39h-289q-2 -19 -2 -59q0 -36 1 -52h270l-10 -39h-256q12 -101 60.5 -148t149.5 -47q46 0 88 11t62 24l14 -46
q-65 -34 -166 -34q-116 0 -181.5 56.5t-80.5 183.5z" />
    <glyph glyph-name="uni20AD" unicode="&#x20ad;" horiz-adv-x="603" 
d="M533 650l-263 -307h242v-39h-228l276 -304h-66l-275 304h-46v-304h-51v304h-71v39h71v307h51v-307h45l257 307h58z" />
    <glyph glyph-name="uni20AE" unicode="&#x20ae;" horiz-adv-x="541" 
d="M505 650v-48h-206v-206l140 45v-41l-140 -45v-82l140 45v-41l-140 -45v-232h-51v216l-139 -44v41l139 44v82l-139 -44v41l139 44v222h-207v48h464z" />
    <glyph glyph-name="uni20B1" unicode="&#x20b1;" horiz-adv-x="643" 
d="M135 0v362h-76v39h76v101h-76v39h76v109h170q165 0 205 -109h80v-39h-70q4 -34 4 -54q0 -19 -4 -47h70v-39h-81q-22 -56 -72.5 -86.5t-116.5 -30.5h-134v-245h-51zM470 444q0 32 -6 58h-278v-101h280q4 26 4 43zM314 290q103 0 139 72h-267v-72h128zM186 602v-61h263
q-35 61 -140 61h-123z" />
    <glyph glyph-name="uni2113" unicode="&#x2113;" horiz-adv-x="422" 
d="M38 219l89 59v210q0 35 1.5 58t8.5 54t19.5 49.5t37 32t58.5 13.5q51 0 80 -36.5t29 -93.5q0 -84 -61 -174t-124 -133v-83q0 -142 79 -142q38 0 87 31l17 -39q-48 -36 -111 -36q-69 0 -95 48t-26 134v59l-65 -45zM176 514v-206q130 120 130 252q0 94 -60 94
q-35 0 -52.5 -32.5t-17.5 -107.5z" />
    <glyph glyph-name="uni2116" unicode="&#x2116;" horiz-adv-x="1067" 
d="M688 209v38h314v-38h-314zM149 457v-457h-49v650h50l306 -436l90 -132l-1 93v475h49v-650h-49l-305 436l-92 135zM839 295q-75 0 -115.5 47t-40.5 135q0 82 42 132t114 50q76 0 117 -47t41 -135q0 -77 -41 -129.5t-117 -52.5zM839 334q111 0 111 143q0 64 -26.5 103.5
t-84.5 39.5t-83.5 -39.5t-25.5 -103.5q0 -143 109 -143z" />
    <glyph glyph-name="uni2117" unicode="&#x2117;" horiz-adv-x="753" 
d="M374 -7q-128 0 -220 94t-92 226q0 133 91.5 227t220.5 94q132 0 224.5 -93.5t92.5 -227.5q0 -132 -92.5 -226t-224.5 -94zM374 27q116 0 196.5 82t80.5 204q0 118 -81 202t-196 84q-113 0 -192.5 -81.5t-79.5 -204.5t79.5 -204.5t192.5 -81.5zM269 111v406h110
q73 0 105 -31.5t32 -94.5q0 -60 -35.5 -93.5t-91.5 -33.5h-84v-153h-36zM305 296h75q97 0 97 92q0 51 -23.5 73t-76.5 22h-72v-187z" />
    <glyph glyph-name="servicemark" unicode="&#x2120;" horiz-adv-x="919" 
d="M396 258v393h44l129 -256l47 -97l44 92l125 261h46v-393h-38v336l-37 -84l-122 -252h-35l-122 239l-44 87l1 -83v-243h-38zM197 252q-56 0 -120 35l14 37q55 -39 106 -39q38 0 67 19t29 51q0 19 -7 33t-25.5 26t-28.5 17.5t-38 17.5q-4 2 -22 10t-23 10.5t-19.5 10.5
t-19 14t-12.5 16t-10.5 22t-2.5 26q0 45 36 73t89 28q59 0 106 -26l-15 -40q-39 31 -91 31q-39 0 -63 -17.5t-24 -45.5q0 -21 15.5 -38t31.5 -24.5t47 -19.5q28 -11 42 -18t34 -21t29 -34t9 -46q0 -46 -39.5 -77t-94.5 -31z" />
    <glyph glyph-name="trademark" unicode="&#x2122;" horiz-adv-x="937" 
d="M413 258v393h44l129 -256l47 -97l44 92l125 261h46v-393h-38v336l-37 -84l-122 -252h-35l-122 239l-44 87l1 -83v-243h-38zM202 258v360h-144v33h327v-33h-144v-360h-39z" />
    <glyph glyph-name="Omega" unicode="&#x2126;" horiz-adv-x="783" 
d="M43 0v38h244v50q-44 21 -74.5 41.5t-62 53t-47.5 78.5t-16 105q0 124 87 208.5t219 84.5q131 0 215 -85.5t84 -207.5q0 -60 -13.5 -104.5t-43 -76.5t-59.5 -52t-79 -45v-50h244v-38h-282v107q92 40 141.5 98.5t49.5 160.5q0 107 -71 182.5t-186 75.5t-190 -74.5
t-75 -183.5q0 -52 16 -94t46.5 -72.5t61 -50.5t73.5 -40v-109h-282z" />
    <glyph glyph-name="estimated" unicode="&#x212e;" horiz-adv-x="685" 
d="M635 231h-465q-4 0 -4 -3v-135q0 -7 7 -18q70 -73 174 -73q111 0 186 83h41q-38 -45 -99 -71.5t-129 -26.5q-118 0 -202 73.5t-84 176.5q0 105 83.5 177t202.5 72q120 0 204.5 -72t84.5 -177v-6zM529 249v136q0 11 -6 17q-72 69 -176 69q-105 0 -174 -71q-7 -7 -7 -18
v-133q0 -3 4 -3h357q2 0 2 3z" />
    <glyph glyph-name="onethird" unicode="&#x2153;" horiz-adv-x="748" 
d="M147 39l-29 22l471 569l28 -25zM569 -5q-30 0 -60.5 12.5t-40.5 22.5l25 34q37 -32 81 -32q31 0 54.5 17t23.5 45q0 64 -127 73v33q45 3 78 21.5t33 48.5q0 21 -16.5 33.5t-41.5 12.5q-37 0 -74 -27l-19 34q44 32 97 32q42 0 69.5 -23t27.5 -57q0 -61 -64 -87
q81 -22 81 -93q0 -42 -31 -71t-96 -29zM116 304v313l-79 -4v39l122 7v-355h-43z" />
    <glyph glyph-name="twothirds" unicode="&#x2154;" horiz-adv-x="838" 
d="M239 39l-29 22l471 569l28 -25zM659 -5q-30 0 -60.5 12.5t-40.5 22.5l25 34q37 -32 81 -32q31 0 54.5 17t23.5 45q0 64 -127 73v33q45 3 78 21.5t33 48.5q0 21 -16.5 33.5t-41.5 12.5q-37 0 -74 -27l-19 34q44 32 97 32q42 0 69.5 -23t27.5 -57q0 -61 -64 -87
q81 -22 81 -93q0 -42 -31 -71t-96 -29zM52 304v31q62 47 120.5 115t58.5 112q0 28 -17.5 43t-42.5 15q-37 0 -74 -39l-26 28q45 50 105 50q41 0 69.5 -24.5t28.5 -69.5t-48.5 -108.5t-109.5 -114.5h175v-38h-239z" />
    <glyph glyph-name="uni215B" unicode="&#x215b;" horiz-adv-x="757" 
d="M153 39l-29 22l471 569l28 -25zM583 -5q-46 0 -83 24t-37 64q0 60 81 102q-24 14 -36 23.5t-22.5 26t-10.5 36.5q0 38 32.5 61t78.5 23q47 0 76 -22.5t29 -59.5q0 -45 -73 -86q28 -16 42 -25t29.5 -29t15.5 -42q0 -42 -37 -69t-85 -27zM587 32q33 0 53.5 15.5t20.5 40.5
q0 16 -15 31.5t-28.5 23.5t-38.5 21q-72 -36 -72 -77q0 -27 22.5 -41t57.5 -14zM517 273q0 -18 11.5 -29t55.5 -38q63 38 63 66q0 24 -18 35t-44 11q-31 0 -49.5 -12t-18.5 -33zM115 304v313l-79 -4v39l122 7v-355h-43z" />
    <glyph glyph-name="arrowleft" unicode="&#x2190;" horiz-adv-x="579" 
d="M579 297v-60h-422l134 -115v-87l-250 233l250 233v-86l-137 -118h425z" />
    <glyph glyph-name="arrowup" unicode="&#x2191;" horiz-adv-x="548" 
d="M305 48h-60v424l-118 -136h-86l233 250l233 -250h-87l-115 134v-422z" />
    <glyph glyph-name="arrowright" unicode="&#x2192;" horiz-adv-x="579" 
d="M0 237v60h424l-136 118v86l250 -233l-250 -233v87l134 115h-422z" />
    <glyph glyph-name="arrowdown" unicode="&#x2193;" horiz-adv-x="548" 
d="M245 586h60v-422l115 134h87l-233 -250l-233 250h86l118 -137v425z" />
    <glyph glyph-name="uni2196" unicode="&#x2196;" horiz-adv-x="483" 
d="M382 563l-60 -60l-181 13l301 -301l-43 -42l-299 298l14 -176l-61 -61l-12 341z" />
    <glyph glyph-name="uni2197" unicode="&#x2197;" horiz-adv-x="483" 
d="M161 503l-60 60l341 12l-12 -341l-61 61l13 176l-298 -298l-43 42l301 301z" />
    <glyph glyph-name="uni2198" unicode="&#x2198;" horiz-adv-x="483" 
d="M41 533l43 42l298 -299l-13 177l61 61l12 -341l-341 12l60 60l181 -13z" />
    <glyph glyph-name="uni2199" unicode="&#x2199;" horiz-adv-x="483" 
d="M399 575l43 -42l-301 -301l181 13l60 -60l-341 -12l12 341l61 -61l-14 -177z" />
    <glyph glyph-name="partialdiff" unicode="&#x2202;" horiz-adv-x="537" 
d="M49 228q0 108 59 168t160 60q76 0 126 -39q-25 76 -87.5 142t-139.5 101l22 30q139 -64 212.5 -179t73.5 -267v-6q0 -104 -55.5 -176t-158.5 -72q-102 0 -157 59.5t-55 178.5zM101 228q0 -95 37 -145t123 -50q158 0 162 197q0 84 -16 131q-22 23 -61 37.5t-78 14.5
q-167 0 -167 -185z" />
    <glyph glyph-name="Delta" unicode="&#x2206;" horiz-adv-x="584" 
d="M30 0l247 651h40l237 -651h-524zM88 38h406l-200 569z" />
    <glyph glyph-name="product" unicode="&#x220f;" horiz-adv-x="614" 
d="M100 650h414v-650h-51v603h-312v-603h-51v650z" />
    <glyph glyph-name="summation" unicode="&#x2211;" horiz-adv-x="586" 
d="M53 0v47l248 284l-248 306v48h473v-43h-423l247 -302v-17l-248 -281h424v-42h-473z" />
    <glyph glyph-name="minus" unicode="&#x2212;" horiz-adv-x="541" 
d="M460 279h-379v42h379v-42z" />
    <glyph glyph-name="radical" unicode="&#x221a;" horiz-adv-x="557" 
d="M280 0l-141 449h-102v47h141l124 -429l185 637h46l-208 -704h-45z" />
    <glyph glyph-name="infinity" unicode="&#x221e;" horiz-adv-x="902" 
d="M242 108q-74 0 -123 55t-49 135t52 135t132 55q116 0 204 -163q35 69 88.5 116t111.5 47q78 0 126 -54.5t48 -135.5q0 -80 -53 -135t-132 -55q-108 0 -191 166q-35 -71 -92 -118.5t-122 -47.5zM112 298q0 -64 37 -108t93 -44q59 0 101.5 38.5t88.5 113.5
q-84 153 -178 153q-64 0 -103 -44t-39 -109zM483 299q44 -76 82.5 -114.5t81.5 -38.5q63 0 102 44t39 108q0 66 -33.5 109.5t-96.5 43.5q-47 0 -88.5 -40t-86.5 -112z" />
    <glyph glyph-name="integral" unicode="&#x222b;" horiz-adv-x="414" 
d="M14 -220v33h54q69 0 89 37.5t20 143.5v487q0 103 39.5 154t124.5 51h61v-33h-52q-71 0 -98.5 -40t-27.5 -141v-487q0 -109 -30.5 -157t-118.5 -48h-61z" />
    <glyph glyph-name="approxequal" unicode="&#x2248;" horiz-adv-x="719" 
d="M488 321q-32 0 -68.5 19t-63 41.5t-59.5 41.5t-60 19q-112 0 -115 -117h-40q2 74 46.5 116t111.5 42q35 0 71 -19t61 -41.5t57 -41.5t60 -19q106 0 109 126h41q-4 -81 -43.5 -124t-107.5 -43zM489 93q-32 0 -68.5 19t-63 41.5t-59.5 41.5t-60 19q-112 0 -115 -117h-40
q2 74 46.5 116t111.5 42q35 0 71 -19t61 -41.5t57 -41.5t60 -19q106 0 109 126h41q-4 -81 -43.5 -124t-107.5 -43z" />
    <glyph glyph-name="notequal" unicode="&#x2260;" horiz-adv-x="596" 
d="M131 70l66 109h-115v42h141l102 168h-243v42h269l67 109h48l-67 -109h112v-42h-137l-103 -168h240v-42h-266l-66 -109h-48z" />
    <glyph glyph-name="lessequal" unicode="&#x2264;" horiz-adv-x="514" 
d="M399 91l-320 189v35l320 202l25 -34l-297 -184l297 -173zM57 10v42h406v-42h-406z" />
    <glyph glyph-name="greaterequal" unicode="&#x2265;" horiz-adv-x="514" 
d="M457 52v-42h-406v42h406zM435 280l-320 -189l-25 35l297 173l-297 184l25 34l320 -202v-35z" />
    <glyph glyph-name="uni2460" unicode="&#x2460;" horiz-adv-x="758" 
d="M376 -10q-134 0 -229.5 98t-95.5 236t95.5 236.5t229.5 98.5q138 0 234.5 -98t96.5 -237q0 -138 -96.5 -236t-234.5 -98zM376 28q121 0 203 84.5t82 211.5q0 122 -82.5 208.5t-202.5 86.5q-118 0 -198.5 -83.5t-80.5 -211.5t80.5 -212t198.5 -84zM363 143v313l-79 -4v39
l122 7v-355h-43z" />
    <glyph glyph-name="uni2461" unicode="&#x2461;" horiz-adv-x="758" 
d="M376 -10q-134 0 -229.5 98t-95.5 236t95.5 236.5t229.5 98.5q138 0 234.5 -98t96.5 -237q0 -138 -96.5 -236t-234.5 -98zM376 28q121 0 203 84.5t82 211.5q0 122 -82.5 208.5t-202.5 86.5q-118 0 -198.5 -83.5t-80.5 -211.5t80.5 -212t198.5 -84zM252 158v31
q62 47 120.5 115t58.5 112q0 28 -17.5 43t-42.5 15q-37 0 -74 -39l-26 28q45 50 105 50q41 0 69.5 -24.5t28.5 -69.5t-48.5 -108.5t-109.5 -114.5h175v-38h-239z" />
    <glyph glyph-name="uni2462" unicode="&#x2462;" horiz-adv-x="758" 
d="M376 -10q-134 0 -229.5 98t-95.5 236t95.5 236.5t229.5 98.5q138 0 234.5 -98t96.5 -237q0 -138 -96.5 -236t-234.5 -98zM376 28q121 0 203 84.5t82 211.5q0 122 -82.5 208.5t-202.5 86.5q-118 0 -198.5 -83.5t-80.5 -211.5t80.5 -212t198.5 -84zM363 147
q-30 0 -60.5 12.5t-40.5 22.5l25 34q37 -32 81 -32q31 0 54.5 17t23.5 45q0 64 -127 73v33q45 3 78 21.5t33 48.5q0 21 -16.5 33.5t-41.5 12.5q-37 0 -74 -27l-19 34q44 32 97 32q42 0 69.5 -23t27.5 -57q0 -61 -64 -87q81 -22 81 -93q0 -42 -31 -71t-96 -29z" />
    <glyph glyph-name="uni2463" unicode="&#x2463;" horiz-adv-x="758" 
d="M376 -10q-134 0 -229.5 98t-95.5 236t95.5 236.5t229.5 98.5q138 0 234.5 -98t96.5 -237q0 -138 -96.5 -236t-234.5 -98zM376 28q121 0 203 84.5t82 211.5q0 122 -82.5 208.5t-202.5 86.5q-118 0 -198.5 -83.5t-80.5 -211.5t80.5 -212t198.5 -84zM378 153v92h-168v30
l170 227h41v-220h53v-37h-53v-92h-43zM261 282h117v159z" />
    <glyph glyph-name="uni2464" unicode="&#x2464;" horiz-adv-x="758" 
d="M376 -10q-134 0 -229.5 98t-95.5 236t95.5 236.5t229.5 98.5q138 0 234.5 -98t96.5 -237q0 -138 -96.5 -236t-234.5 -98zM376 28q121 0 203 84.5t82 211.5q0 122 -82.5 208.5t-202.5 86.5q-118 0 -198.5 -83.5t-80.5 -211.5t80.5 -212t198.5 -84zM358 138q-53 0 -95 36
l23 34q38 -33 80 -33q31 0 52.5 18.5t21.5 51.5q0 45 -41 63t-115 18v167h190v-38h-147v-92q157 -6 157 -117q0 -46 -31 -77t-95 -31z" />
    <glyph glyph-name="uni2465" unicode="&#x2465;" horiz-adv-x="758" 
d="M376 -10q-134 0 -229.5 98t-95.5 236t95.5 236.5t229.5 98.5q138 0 234.5 -98t96.5 -237q0 -138 -96.5 -236t-234.5 -98zM376 28q121 0 203 84.5t82 211.5q0 122 -82.5 208.5t-202.5 86.5q-118 0 -198.5 -83.5t-80.5 -211.5t80.5 -212t198.5 -84zM363 138
q-123 0 -123 167q0 89 50 141t139 52q6 0 36 -2v-40q-32 4 -39 4q-57 0 -96.5 -33.5t-45.5 -95.5q42 25 92 25q45 0 75 -25.5t30 -73.5q0 -53 -31.5 -86t-86.5 -33zM367 175q34 0 52 22t18 53q0 68 -74 68q-41 0 -80 -30q4 -113 84 -113z" />
    <glyph glyph-name="uni2466" unicode="&#x2466;" horiz-adv-x="758" 
d="M376 -10q-134 0 -229.5 98t-95.5 236t95.5 236.5t229.5 98.5q138 0 234.5 -98t96.5 -237q0 -138 -96.5 -236t-234.5 -98zM376 28q121 0 203 84.5t82 211.5q0 122 -82.5 208.5t-202.5 86.5q-118 0 -198.5 -83.5t-80.5 -211.5t80.5 -212t198.5 -84zM295 144l147 311h-186
v38h236v-26l-153 -323h-44z" />
    <glyph glyph-name="uni2467" unicode="&#x2467;" horiz-adv-x="758" 
d="M376 -10q-134 0 -229.5 98t-95.5 236t95.5 236.5t229.5 98.5q138 0 234.5 -98t96.5 -237q0 -138 -96.5 -236t-234.5 -98zM376 28q121 0 203 84.5t82 211.5q0 122 -82.5 208.5t-202.5 86.5q-118 0 -198.5 -83.5t-80.5 -211.5t80.5 -212t198.5 -84zM375 138q-46 0 -83 24
t-37 64q0 60 82 102h-1q-24 14 -36 23.5t-22.5 26t-10.5 36.5q0 38 32.5 61t78.5 23q47 0 76 -22.5t29 -59.5q0 -45 -74 -86h1q28 -16 42 -25t29.5 -29t15.5 -42q0 -42 -37 -69t-85 -27zM379 175q33 0 53.5 15.5t20.5 40.5q0 16 -15 31.5t-27.5 23t-36.5 20.5l-3 1
q-72 -36 -72 -77q0 -27 22.5 -41t57.5 -14zM309 416q0 -18 11.5 -29t55.5 -38q63 38 63 66q0 24 -18 35t-44 11q-31 0 -49.5 -12t-18.5 -33z" />
    <glyph glyph-name="uni2468" unicode="&#x2468;" horiz-adv-x="758" 
d="M376 -10q-134 0 -229.5 98t-95.5 236t95.5 236.5t229.5 98.5q138 0 234.5 -98t96.5 -237q0 -138 -96.5 -236t-234.5 -98zM376 28q121 0 203 84.5t82 211.5q0 122 -82.5 208.5t-202.5 86.5q-118 0 -198.5 -83.5t-80.5 -211.5t80.5 -212t198.5 -84zM276 140v40q23 -4 39 -4
q58 0 97 33t45 95q-43 -24 -92 -24q-45 0 -75 25.5t-30 73.5q0 53 31.5 86t86.5 33q123 0 123 -167q0 -89 -50 -141t-139 -52q-6 0 -36 2zM379 318q39 0 79 29q-4 114 -84 114q-35 0 -52.5 -22t-17.5 -54q0 -67 75 -67z" />
    <glyph glyph-name="uni2469" unicode="&#x2469;" horiz-adv-x="758" 
d="M376 -10q-134 0 -229.5 98t-95.5 236t95.5 236.5t229.5 98.5q138 0 234.5 -98t96.5 -237q0 -138 -96.5 -236t-234.5 -98zM376 28q121 0 203 84.5t82 211.5q0 122 -82.5 208.5t-202.5 86.5q-118 0 -198.5 -83.5t-80.5 -211.5t80.5 -212t198.5 -84zM245 143v313l-79 -4v39
l122 7v-355h-43zM459 138q-66 0 -99.5 46t-33.5 128q0 186 136 186q134 0 134 -170q0 -34 -6 -64t-19.5 -60t-42.5 -48t-69 -18zM463 175q50 0 70 44t20 103q0 137 -94 137q-89 0 -89 -135q0 -30 3 -52.5t12 -46.5t28.5 -37t49.5 -13z" />
    <glyph glyph-name="uni24CA" unicode="&#x24ca;" horiz-adv-x="753" 
d="M374 -7q-128 0 -220 94t-92 226q0 133 91.5 227t220.5 94q132 0 224.5 -93.5t92.5 -227.5q0 -132 -92.5 -226t-224.5 -94zM374 27q116 0 196.5 82t80.5 204q0 118 -81 202t-196 84q-113 0 -192.5 -81.5t-79.5 -204.5t79.5 -204.5t192.5 -81.5zM370 117q-82 0 -110 36.5
t-28 106.5v236h36v-235q0 -63 25 -87.5t77 -24.5q53 0 77.5 27t24.5 91v229h36v-229q0 -32 -5.5 -56.5t-19 -47t-42.5 -34.5t-71 -12z" />
    <glyph glyph-name="lozenge" unicode="&#x25ca;" horiz-adv-x="622" 
d="M288 0l-242 320l245 331h43l242 -331l-239 -320h-49zM312 28l214 292l-217 296l-213 -296z" />
    <glyph glyph-name="uni2610" unicode="&#x2610;" horiz-adv-x="834" 
d="M91 0v650h652v-650h-652zM146 596v-542h542v542h-542z" />
    <glyph glyph-name="uni2611" unicode="&#x2611;" horiz-adv-x="834" 
d="M91 0v650h652v-650h-652zM146 596v-542h542v542h-542zM347 179l253 386l52 -35l-289 -427h-41l-130 205l54 32z" />
    <glyph glyph-name="uni261A" unicode="&#x261a;" horiz-adv-x="730" 
d="M689 342v-208l-83 -55q-80 -18 -167 -18l-87 5q19 20 19 41q0 8 -2.5 15.5t-4.5 11.5l-3 3q26 18 26 39q0 10 -4.5 19.5t-9.5 14.5l-5 5q19 15 19 37q0 20 -21 41l-282 2q-43 0 -43 36q0 37 43 37h323l32 -68l37 -23l11 9l-37 20l-39 79l-31 18l-116 -25h-6q-36 0 -36 30
q0 7 2 15t4 13l3 4l163 41l66 -12q32 -11 229 -127zM185 281h174q12 -12 12 -30q0 -15 -11 -29h-175q-19 13 -19 29q0 8 5 15.5t9 11.5zM196 207h163q13 -11 13 -29q0 -14 -12 -29h-164q-19 14 -19 28q0 8 4.5 15.5t9.5 11.5zM206 133h140q9 -11 9 -27q0 -19 -14 -33h-96
q-59 0 -59 30q0 8 5 15.5t10 11.5z" />
    <glyph glyph-name="uni261B" unicode="&#x261b;" horiz-adv-x="730" 
d="M41 134v208q197 116 229 127l66 12l163 -41q9 -16 9 -32q0 -30 -36 -30h-6l-116 25l-31 -18l-39 -79l-37 -20l11 -9l37 23l32 68h323q43 0 43 -37q0 -36 -43 -36l-282 -2q-21 -21 -21 -41q0 -10 4.5 -19t9.5 -13l5 -5q-19 -17 -19 -39q0 -21 26 -39q-10 -12 -10 -30
q0 -21 19 -41q-35 -5 -87 -5q-87 0 -167 18zM371 281h174q19 -13 19 -30q0 -16 -19 -29h-175q-11 14 -11 29q0 8 3 15.5t6 11.5zM371 207h163q19 -13 19 -30q0 -14 -19 -28h-164q-12 15 -12 29q0 8 3 15t7 11zM384 133h140q20 -13 20 -30q0 -30 -59 -30h-96q-14 14 -14 33
q0 7 2.5 14t4.5 10z" />
    <glyph glyph-name="uni261C" unicode="&#x261c;" horiz-adv-x="786" 
d="M646 97l75 56l24 -34l-89 -61q-80 -19 -166 -19q-22 0 -53 3t-51 6l-21 2q-13 -2 -61 -2q-36 0 -55.5 10.5t-19.5 39.5q0 18 16 34q-24 18 -24 44q0 19 12 31q-23 19 -23 43q0 13 7 23l-117 1q-59 0 -59 56q0 57 59 57h167q-3 9 -3 21q0 9 4 21.5t8 20.5l3 8l167 44
l66 -13q18 -6 51 -26.5t88.5 -56.5t93.5 -59l-22 -28q-7 5 -67 43q-113 72 -149 87l-59 12q-27 -6 -76.5 -20t-70.5 -19q-1 -9 -1 -14q0 -10 20 -10l116 24l40 -21l36 -81l33 -34l-17 -34l-52 33l-27 62h-349q-23 0 -23 -17q0 -16 23 -16l328 -2q29 -30 29 -61
q0 -21 -11 -37q11 -23 11 -39q0 -22 -18 -45q4 -16 4 -25q0 -13 -4 -24q1 -2 51 -2q74 0 156 18zM404 260h-152q-7 -3 -7 -10q0 -8 7 -9l156 -4q0 17 -4 23zM406 186h-144q-7 -4 -7 -10q0 -5 8 -9l145 -4v8q0 13 -2 15zM390 111h-119q-6 -7 -6 -10q0 -10 39 -10q23 0 34 1
q7 0 19 0.5t17 0.5h15q3 6 3 11q0 3 -2 7z" />
    <glyph glyph-name="uni261D" unicode="&#x261d;" horiz-adv-x="545" 
d="M99 96l56 -75l-34 -24l-61 89q-19 80 -19 166q0 22 3 53t6 51l2 21q-2 13 -2 61q0 36 10.5 55.5t39.5 19.5q18 0 34 -16q18 24 44 24q19 0 31 -12q19 23 43 23q13 0 23 -7l1 117q0 59 56 59q57 0 57 -59v-167q9 3 21 3q9 0 21.5 -4t20.5 -8l8 -3l44 -167l-13 -66
q-6 -18 -26.5 -51t-56.5 -88.5t-59 -93.5l-28 22q5 8 43 67q72 113 87 149l12 59q-6 27 -20 76.5t-19 70.5q-9 1 -14 1q-10 0 -10 -20l24 -116l-21 -40l-81 -36l-34 -33l-34 17l33 52l62 27v349q0 23 -17 23q-16 0 -16 -23l-2 -328q-30 -29 -61 -29q-21 0 -37 11
q-23 -11 -39 -11q-22 0 -45 18q-16 -4 -25 -4q-13 0 -24 4q-2 -1 -2 -51q0 -74 18 -156zM262 338v152q-3 7 -10 7q-8 0 -9 -7l-4 -156q17 0 23 4zM188 336v144q-4 7 -10 7q-5 0 -9 -8l-4 -145h8q13 0 15 2zM113 352v119q-7 6 -10 6q-10 0 -10 -39q0 -23 1 -34q0 -7 0.5 -19
t0.5 -17v-15q6 -3 11 -3q3 0 7 2z" />
    <glyph glyph-name="uni261E" unicode="&#x261e;" horiz-adv-x="786" 
d="M65 153l75 -56q83 -18 156 -18l51 2q-4 11 -4 24l4 25q-18 23 -18 45q0 7 2.5 17t5.5 16l3 6q-11 16 -11 37q0 31 29 61l328 2q23 0 23 16q0 17 -23 17h-349l-27 -62l-52 -33l-17 34l33 34l36 81l40 21l116 -24q20 0 20 10l-1 14q-21 5 -70.5 19t-76.5 20l-59 -12
q-36 -15 -149 -87q-59 -38 -67 -43l-22 28q38 23 93.5 59t88.5 56.5t51 26.5l66 13l167 -44q15 -30 15 -50q0 -12 -3 -21h167q59 0 59 -57q0 -56 -59 -56l-117 -1q7 -10 7 -23q0 -24 -23 -43q12 -12 12 -31q0 -26 -24 -44q16 -16 16 -34q0 -29 -19.5 -39.5t-55.5 -10.5
q-48 0 -61 2q-76 -11 -125 -11q-86 0 -166 19l-89 61zM534 260h-152q-4 -6 -4 -23l156 4q7 1 7 9q0 3 -1.5 5.5t-3.5 3.5zM524 186h-144q-2 -2 -2 -15v-8l145 4q8 4 8 9q0 3 -1.5 5.5t-3.5 3.5zM515 111h-119q-2 -4 -2 -7q0 -5 3 -11h15q5 0 17 -0.5t19 -0.5q11 -1 34 -1
q39 0 39 10z" />
    <glyph glyph-name="uni261F" unicode="&#x261f;" horiz-adv-x="545" 
d="M155 677l-56 -75q-18 -82 -18 -156l2 -51q11 4 24 4l25 -4q23 18 45 18q7 0 17 -2.5t16 -5.5l6 -3q16 11 37 11q31 0 61 -29l2 -328q0 -23 16 -23q17 0 17 23v349l-62 27l-33 52l34 17l34 -33l81 -36l21 -40l-24 -116q0 -20 10 -20l14 1q5 21 19 70.5t20 76.5l-12 59
q-15 36 -87 149q-38 59 -43 67l28 22q23 -38 59 -93.5t56.5 -88.5t26.5 -51l13 -66l-44 -167q-30 -15 -50 -15q-12 0 -21 3v-167q0 -59 -57 -59q-56 0 -56 59l-1 117q-10 -7 -23 -7q-24 0 -43 23q-12 -12 -31 -12q-26 0 -44 24q-16 -16 -34 -16q-29 0 -39.5 19.5t-10.5 55.5
q0 48 2 61q-11 76 -11 125q0 86 19 166l61 89zM262 208v152q-6 4 -23 4l4 -156q1 -7 9 -7q3 0 5.5 1.5t3.5 3.5zM188 218v144q-2 2 -15 2h-8l4 -145q4 -8 9 -8q3 0 5.5 1.5t3.5 3.5zM113 227v119q-4 2 -7 2q-5 0 -11 -3v-15q0 -5 -0.5 -17t-0.5 -19q-1 -11 -1 -34
q0 -39 10 -39z" />
    <glyph glyph-name="uni267E" unicode="&#x267e;" horiz-adv-x="753" 
d="M374 -7q-128 0 -220 94t-92 226q0 133 91.5 227t220.5 94q132 0 224.5 -93.5t92.5 -227.5q0 -132 -92.5 -226t-224.5 -94zM374 27q116 0 196.5 82t80.5 204q0 118 -81 202t-196 84q-113 0 -192.5 -81.5t-79.5 -204.5t79.5 -204.5t192.5 -81.5zM255 177q-43 0 -72 40
t-29 98t31 98t78 40q71 0 121 -113q20 48 51.5 80.5t66.5 32.5q47 0 75 -39.5t28 -98.5q0 -58 -31 -98t-78 -40q-66 0 -114 116q-20 -50 -54 -83t-73 -33zM183 315q0 -46 19.5 -76t52.5 -30q36 0 61.5 26.5t51.5 79.5q-46 105 -105 105q-37 0 -58.5 -29t-21.5 -76zM399 316
q50 -107 97 -107q37 0 57.5 29.5t20.5 76.5q0 105 -72 105q-52 0 -103 -104z" />
    <glyph glyph-name="uni2713" unicode="&#x2713;" horiz-adv-x="542" 
d="M196 154l253 386l52 -35l-289 -427h-41l-130 205l54 32z" />
    <glyph glyph-name="uni2776" unicode="&#x2776;" horiz-adv-x="758" 
d="M376 -10q-134 0 -229.5 98t-95.5 236t95.5 236.5t229.5 98.5q138 0 234.5 -98t96.5 -237q0 -138 -96.5 -236t-234.5 -98zM363 456v-313h43v355l-122 -7v-39z" />
    <glyph glyph-name="uni2777" unicode="&#x2777;" horiz-adv-x="758" 
d="M376 -10q-134 0 -229.5 98t-95.5 236t95.5 236.5t229.5 98.5q138 0 234.5 -98t96.5 -237q0 -138 -96.5 -236t-234.5 -98zM252 189v-31h239v38h-175q61 51 109.5 114.5t48.5 108.5t-28.5 69.5t-69.5 24.5q-60 0 -105 -50l26 -28q37 39 74 39q25 0 42.5 -15t17.5 -43
q0 -44 -58.5 -112t-120.5 -115z" />
    <glyph glyph-name="uni2778" unicode="&#x2778;" horiz-adv-x="758" 
d="M376 -10q-134 0 -229.5 98t-95.5 236t95.5 236.5t229.5 98.5q138 0 234.5 -98t96.5 -237q0 -138 -96.5 -236t-234.5 -98zM363 147q65 0 96 29t31 71q0 71 -81 93q64 26 64 87q0 34 -27.5 57t-69.5 23q-24 0 -48 -8t-36 -16l-13 -8l19 -34q37 27 74 27q25 0 41.5 -12.5
t16.5 -33.5q0 -30 -33 -48.5t-78 -21.5v-33q127 -9 127 -73q0 -28 -23.5 -45t-54.5 -17q-44 0 -81 32l-25 -34q10 -10 40.5 -22.5t60.5 -12.5z" />
    <glyph glyph-name="uni2779" unicode="&#x2779;" horiz-adv-x="758" 
d="M376 -10q-134 0 -229.5 98t-95.5 236t95.5 236.5t229.5 98.5q138 0 234.5 -98t96.5 -237q0 -138 -96.5 -236t-234.5 -98zM385 255v-92h43v92h53v37h-53v220h-41l-170 -227v-30h168zM385 292h-117l117 159v-159z" />
    <glyph glyph-name="uni277A" unicode="&#x277a;" horiz-adv-x="758" 
d="M376 -10q-134 0 -229.5 98t-95.5 236t95.5 236.5t229.5 98.5q138 0 234.5 -98t96.5 -237q0 -138 -96.5 -236t-234.5 -98zM358 138q64 0 95 31t31 77q0 111 -157 117v92h147v38h-190v-167q74 0 115 -18t41 -63q0 -33 -21.5 -51.5t-52.5 -18.5q-42 0 -80 33l-23 -34
q42 -36 95 -36z" />
    <glyph glyph-name="uni277B" unicode="&#x277b;" horiz-adv-x="758" 
d="M376 -10q-134 0 -229.5 98t-95.5 236t95.5 236.5t229.5 98.5q138 0 234.5 -98t96.5 -237q0 -138 -96.5 -236t-234.5 -98zM365 148q55 0 86.5 33t31.5 86q0 48 -30 73.5t-75 25.5q-50 0 -92 -25q6 62 45.5 95.5t96.5 33.5q7 0 39 -4v40q-30 2 -36 2q-89 0 -139 -52
t-50 -141q0 -167 123 -167zM369 185q-80 0 -84 113q39 30 80 30q74 0 74 -68q0 -31 -18 -53t-52 -22z" />
    <glyph glyph-name="uni277C" unicode="&#x277c;" horiz-adv-x="758" 
d="M376 -10q-134 0 -229.5 98t-95.5 236t95.5 236.5t229.5 98.5q138 0 234.5 -98t96.5 -237q0 -138 -96.5 -236t-234.5 -98zM442 455l-147 -311h44l153 323v26h-236v-38h186z" />
    <glyph glyph-name="uni277D" unicode="&#x277d;" horiz-adv-x="758" 
d="M376 -10q-134 0 -229.5 98t-95.5 236t95.5 236.5t229.5 98.5q138 0 234.5 -98t96.5 -237q0 -138 -96.5 -236t-234.5 -98zM375 138q48 0 85 27t37 69q0 22 -15.5 42t-29.5 29t-42 25h-1q74 41 74 86q0 37 -29 59.5t-76 22.5q-46 0 -78.5 -23t-32.5 -61q0 -20 10.5 -36.5
t22.5 -26t36 -23.5h1q-82 -42 -82 -102q0 -40 37 -64t83 -24zM379 175q-35 0 -57.5 14t-22.5 41q0 41 72 77l3 -1q24 -13 36.5 -20.5t27.5 -23t15 -31.5q0 -25 -20.5 -40.5t-53.5 -15.5zM309 416q0 21 18.5 33t49.5 12q26 0 44 -11t18 -35q0 -28 -63 -66q-44 27 -55.5 38
t-11.5 29z" />
    <glyph glyph-name="uni277E" unicode="&#x277e;" horiz-adv-x="758" 
d="M376 -10q-134 0 -229.5 98t-95.5 236t95.5 236.5t229.5 98.5q138 0 234.5 -98t96.5 -237q0 -138 -96.5 -236t-234.5 -98zM279 182v-40q30 -2 36 -2q89 0 139 52t50 141q0 167 -123 167q-55 0 -86.5 -33t-31.5 -86q0 -48 30 -73.5t75 -25.5q49 0 92 24q-6 -62 -45 -95
t-97 -33q-16 0 -39 4zM382 320q-75 0 -75 67q0 32 17.5 54t52.5 22q80 0 84 -114q-40 -29 -79 -29z" />
    <glyph glyph-name="uni277F" unicode="&#x277f;" horiz-adv-x="758" 
d="M376 -10q-134 0 -229.5 98t-95.5 236t95.5 236.5t229.5 98.5q138 0 234.5 -98t96.5 -237q0 -138 -96.5 -236t-234.5 -98zM235 456v-313h43v355l-122 -7v-39zM469 138q40 0 69 18t42.5 48t19.5 60t6 64q0 170 -134 170q-136 0 -136 -186q0 -82 33.5 -128t99.5 -46z
M473 175q-30 0 -49.5 13t-28.5 37t-12 46.5t-3 52.5q0 135 89 135q94 0 94 -137q0 -59 -20 -103t-70 -44z" />
    <glyph glyph-name="uni301A" unicode="&#x301a;" horiz-adv-x="395" 
d="M89 -189v898h244v-42h-57v-816h57v-40h-244zM139 667v-816h90v816h-90z" />
    <glyph glyph-name="uni301B" unicode="&#x301b;" horiz-adv-x="395" 
d="M306 709v-898h-244v40h57v816h-57v42h244zM256 667h-90v-816h90v816z" />
    <glyph glyph-name="apple" unicode="&#xf8ff;" horiz-adv-x="476" 
d="M100 265v132h136v-132h-66v68h-4v-68h-66zM240 265v64h68v4h-68v64h136v-132h-136z" />
    <glyph glyph-name="zero.zero" horiz-adv-x="626" 
d="M315 659q245 0 245 -315q0 -49 -6 -93.5t-22.5 -93.5t-43.5 -84.5t-73 -59t-106 -23.5q-120 0 -181 85t-61 238q0 70 11.5 128t38 109t77 80t121.5 29zM316 35q46 0 81.5 19.5t56 49t33 70.5t17 78.5t4.5 79.5q0 170 -69 234l-223 -507q42 -24 100 -24zM119 336
q0 -180 64 -250l222 505q-42 21 -96 21q-55 0 -94 -24.5t-59 -66.5t-28.5 -87t-8.5 -98z" />
    <glyph glyph-name="Iacute_Jacute" horiz-adv-x="501" 
d="M100 650h51v-650h-51v650zM402 650v-601q0 -76 -35 -129.5t-106 -72.5l-17 41q54 18 80.5 55t26.5 107v600h51zM241 790l-160 -87l-20 28l150 105zM492 790l-160 -87l-20 28l150 105z" />
    <glyph glyph-name="iacute_jacute" horiz-adv-x="426" 
d="M131 476v-476h-49v476h49zM295 -22v498h49v-500q0 -101 -58.5 -152t-121.5 -48l-8 44q139 10 139 158zM213 671l-135 -118l-26 24l123 131zM426 671l-135 -118l-26 24l123 131z" />
    <glyph glyph-name="questiondown.cap" horiz-adv-x="441" 
d="M42 125q0 42 22 76t54 57t63.5 44.5t53.5 47.5t22 56q0 25 -19 60l54 14q17 -33 17 -75q0 -34 -22 -64t-53.5 -52.5l-63 -45t-53.5 -52t-22 -63.5q0 -44 38.5 -67.5t97.5 -23.5q89 0 143 58l28 -41q-72 -64 -176 -64q-83 0 -133.5 37.5t-50.5 97.5zM291 623
q0 -34 -37 -34q-38 0 -38 34q0 36 38 36q37 0 37 -36z" />
    <glyph glyph-name="question.smcp" horiz-adv-x="382" 
d="M184 139l-52 -13q-16 29 -16 62q0 18 7 33.5t22 29.5t26.5 23t33.5 23q28 19 42 29.5t28 30t14 40.5q0 30 -30 46.5t-76 16.5q-71 0 -116 -45l-28 38q61 52 148 52q69 0 111 -29.5t42 -76.5q0 -29 -17 -55.5t-34 -39.5t-48 -33q-17 -11 -27.5 -19t-23 -19t-18.5 -22
t-6 -23q0 -16 18 -49zM165 -7q-34 0 -34 32q0 30 34 30t34 -30q0 -32 -34 -32z" />
    <glyph glyph-name="questiondown.smcp" horiz-adv-x="382" 
d="M198 359l52 13q16 -29 16 -62q0 -18 -7 -33.5t-22 -29.5t-26.5 -23t-33.5 -23q-28 -19 -42 -29.5t-28 -30t-14 -40.5q0 -30 30 -46.5t76 -16.5q71 0 116 45l28 -38q-61 -52 -148 -52q-69 0 -111 29.5t-42 76.5q0 29 17 55.5t34 39.5t48 33q17 11 27.5 19t23 19t18.5 22
t6 23q0 16 -18 49zM217 505q34 0 34 -32q0 -30 -34 -30t-34 30q0 32 34 32z" />
    <glyph glyph-name="exclamdown.cap" horiz-adv-x="243" 
d="M148 -1h-51v229l6 240h37l8 -240v-229zM158 623q0 -34 -37 -34q-38 0 -38 34q0 18 11 27t27 9q37 0 37 -36z" />
    <glyph glyph-name="exclam.smcp" horiz-adv-x="233" 
d="M117 -7q-34 0 -34 32q0 30 34 30t34 -30q0 -32 -34 -32zM98 136l-7 185v177h49v-177l-5 -185h-37z" />
    <glyph glyph-name="exclamdown.smcp" horiz-adv-x="232" 
d="M117 505q34 0 34 -32q0 -30 -34 -30t-34 30q0 32 34 32zM135 362l5 -185v-177h-49v177l7 185h37z" />
    <glyph glyph-name="hyphen.cap" horiz-adv-x="400" 
d="M323 305h-246v48h246v-48z" />
    <glyph glyph-name="endash.cap" horiz-adv-x="588" 
d="M74 312v40h440v-40h-440z" />
    <glyph glyph-name="emdash.cap" horiz-adv-x="1088" 
d="M74 312v40h940v-40h-940z" />
    <glyph glyph-name="slash.smcp" horiz-adv-x="343" 
d="M38 0l223 505h45l-223 -505h-45z" />
    <glyph glyph-name="backslash.smcp" horiz-adv-x="343" 
d="M82 505l223 -505h-45l-223 505h45z" />
    <glyph glyph-name="parenleft.cap" horiz-adv-x="313" 
d="M258 702l21 -28q-89 -67 -133 -169.5t-44 -202.5q0 -223 177 -376l-21 -28q-203 164 -203 404q0 109 51 217t152 183z" />
    <glyph glyph-name="parenright.cap" horiz-adv-x="313" 
d="M34 674l21 28q101 -75 152 -183t51 -217q0 -240 -203 -404l-21 28q177 153 177 376q0 100 -44 202.5t-133 169.5z" />
    <glyph glyph-name="bracketleft.cap" horiz-adv-x="313" 
d="M91 -89v798h180v-42h-132v-716h132v-40h-180z" />
    <glyph glyph-name="bracketright.cap" horiz-adv-x="313" 
d="M222 709v-797h-180v40h134v715h-134v42h180z" />
    <glyph glyph-name="braceleft.cap" horiz-adv-x="333" 
d="M268 -94q-38 0 -65.5 8.5t-42.5 21.5t-23.5 35t-11 41.5t-2.5 48.5v158q0 64 -70 72q-7 1 -24 1v38q15 0 22 1q72 7 72 72v158q0 29 2.5 48.5t11 41.5t23.5 35t42.5 21.5t65.5 8.5h25v-35h-25q-67 0 -83 -24t-16 -95v-101q0 -68 -15 -103t-55 -46q40 -11 55 -47t15 -104
v-101q0 -71 16 -95t83 -24h25v-35h-25z" />
    <glyph glyph-name="braceright.cap" horiz-adv-x="333" 
d="M65 -94h-25v35h25q67 0 83 24t16 95v101q0 68 15 104t55 47q-40 11 -55 46t-15 103v101q0 71 -16 95t-83 24h-25v35h25q38 0 65.5 -8.5t42.5 -21.5t23.5 -35t11 -41.5t2.5 -48.5v-158q0 -67 75 -72q6 -1 19 -1v-38q-13 0 -19 -1q-75 -7 -75 -72v-158q0 -29 -2.5 -48.5
t-11 -41.5t-23.5 -35t-42.5 -21.5t-65.5 -8.5z" />
    <glyph glyph-name="uni301A.cap" horiz-adv-x="399" 
d="M91 -89v798h244v-42h-57v-716h57v-40h-244zM141 667v-716h90v716h-90z" />
    <glyph glyph-name="uni301B.cap" horiz-adv-x="399" 
d="M308 709v-798h-244v40h57v716h-57v42h244zM258 667h-90v-716h90v716z" />
    <glyph glyph-name="dblparenleft" horiz-adv-x="502" 
d="M53 250q0 280 233 452l21 -28q-49 -42 -82.5 -80t-64 -88.5t-45.5 -114.5t-15 -141t15 -141t45.5 -114.5t64 -88.5t82.5 -80l-21 -28q-233 172 -233 452zM219 250q0 280 233 452l21 -28q-49 -42 -82.5 -80t-64 -88.5t-45.5 -114.5t-15 -141t15 -141t45.5 -114.5t64 -88.5
t82.5 -80l-21 -28q-233 172 -233 452z" />
    <glyph glyph-name="dblparenleft.cap" horiz-adv-x="485" 
d="M258 702l21 -28q-89 -67 -133 -169.5t-44 -202.5q0 -223 177 -376l-21 -28q-203 164 -203 404q0 109 51 217t152 183zM429 700l21 -28q-89 -67 -133 -169.5t-44 -202.5q0 -223 177 -376l-21 -28q-203 164 -203 404q0 109 51 217t152 183z" />
    <glyph glyph-name="dblparenright" horiz-adv-x="502" 
d="M283 250q0 -280 -233 -452l-21 28q49 42 82.5 80t64 88.5t45.5 114.5t15 141t-15 141t-45.5 114.5t-64 88.5t-82.5 80l21 28q233 -172 233 -452zM449 250q0 -280 -233 -452l-21 28q49 42 82.5 80t64 88.5t45.5 114.5t15 141t-15 141t-45.5 114.5t-64 88.5t-82.5 80l21 28
q233 -172 233 -452z" />
    <glyph glyph-name="dblparenright.cap" horiz-adv-x="485" 
d="M35 672l21 28q101 -75 152 -183t51 -217q0 -240 -203 -404l-21 28q177 153 177 376q0 100 -44 202.5t-133 169.5zM206 674l21 28q101 -75 152 -183t51 -217q0 -240 -203 -404l-21 28q177 153 177 376q0 100 -44 202.5t-133 169.5z" />
    <glyph glyph-name="paragraph.smcp" horiz-adv-x="471" 
d="M227 0v143q-84 19 -133 65.5t-49 116.5q0 75 58.5 127.5t171.5 52.5v-505h-48zM333 0v505h48v-505h-48z" />
    <glyph glyph-name="ordfeminine.smcp" horiz-adv-x="437" 
d="M170 167q-48 0 -78.5 26t-30.5 65q0 105 170 105q22 0 32 -1q11 0 29 -2l1 55q0 38 -23 56.5t-61 18.5q-28 0 -54.5 -12t-27.5 -39q0 -8 3 -17l-39 -2q-4 12 -4 24q0 36 38 58.5t88 22.5q49 0 85.5 -23.5t36.5 -79.5l-1 -185q0 -37 23 -41q11 0 16 2l3 -29q-14 -3 -26 -3
q-48 2 -56 45q-54 -44 -124 -44zM184 201q28 0 58.5 12.5t49.5 31.5v80q-36 6 -67 6q-119 2 -119 -66q0 -64 78 -64z" />
    <glyph glyph-name="quotedblleft.smcp" horiz-adv-x="385" 
d="M268 372h-45q8 103 63 197l36 -10q-50 -102 -54 -187zM118 372h-45q8 103 63 197l36 -10q-50 -102 -54 -187z" />
    <glyph glyph-name="quotedblright.smcp" horiz-adv-x="382" 
d="M120 561h45q-8 -103 -63 -197l-36 10q50 102 54 187zM270 561h45q-8 -103 -63 -197l-36 10q50 102 54 187z" />
    <glyph glyph-name="quoteleft.smcp" horiz-adv-x="235" 
d="M118 372h-45q8 103 63 197l36 -10q-50 -102 -54 -187z" />
    <glyph glyph-name="quoteright.smcp" horiz-adv-x="232" 
d="M120 561h45q-8 -103 -63 -197l-36 10q50 102 54 187z" />
    <glyph glyph-name="guilsinglright.cap" horiz-adv-x="292" 
d="M115 555l120 -231l-120 -231h-49l116 235l-116 227h49z" />
    <glyph glyph-name="guilsinglleft.cap" horiz-adv-x="292" 
d="M57 324l120 231h49l-116 -227l116 -235h-49z" />
    <glyph glyph-name="guillemotleft.cap" horiz-adv-x="482" 
d="M57 324l120 231h49l-116 -227l116 -235h-49zM247 324l120 231h49l-116 -227l116 -235h-49z" />
    <glyph glyph-name="guillemotright.cap" horiz-adv-x="482" 
d="M115 555l120 -231l-120 -231h-49l116 235l-116 227h49zM305 555l120 -231l-120 -231h-49l116 235l-116 227h49z" />
    <glyph glyph-name="periodcentered.smcp" horiz-adv-x="233" 
d="M79 273q0 34 37 34q38 0 38 -34q0 -36 -38 -36q-37 0 -37 36z" />
    <glyph glyph-name="f_i" horiz-adv-x="513" 
d="M161 515v-46h270v-469h-49v430h-221v-430h-49v430h-81v35l81 4v40q0 186 183 186q73 0 125 -24l-13 -51q-50 32 -114 32q-72 0 -102 -33t-30 -104z" />
    <glyph glyph-name="f_l" horiz-adv-x="517" 
d="M431 685v-685h-49v637q-45 15 -89 15q-72 0 -102 -33t-30 -104v-46h133v-39h-133v-430h-49v430h-81v35l81 4v40q0 186 183 186q46 0 96 -10h40z" />
    <glyph glyph-name="acute.cap" 
d="M315 790l-160 -87l-20 28l150 105z" />
    <glyph glyph-name="breve.cap" 
d="M313 838h36q0 -52 -29.5 -82.5t-85.5 -30.5q-59 0 -89 30.5t-30 82.5h38q0 -33 19 -54.5t60 -21.5q81 0 81 76z" />
    <glyph glyph-name="caron.cap" 
d="M200 710l-117 96l29 33l106 -87l105 88l29 -32l-118 -98h-34z" />
    <glyph glyph-name="circumflex.cap" 
d="M235 840l117 -97l-29 -33l-107 88l-105 -88l-28 32l118 98h34z" />
    <glyph glyph-name="dieresis.cap" 
d="M108 773q0 15 10 25.5t25 10.5t25.5 -10.5t10.5 -25.5t-10.5 -25t-25.5 -10t-25 10t-10 25zM276 773q0 15 10 25.5t25 10.5t25.5 -10.5t10.5 -25.5t-10.5 -25t-25.5 -10t-25 10t-10 25z" />
    <glyph glyph-name="dotaccent.cap" 
d="M190 781q0 15 10 25.5t25 10.5t25.5 -10.5t10.5 -25.5t-10.5 -25t-25.5 -10t-25 10t-10 25z" />
    <glyph glyph-name="hungarumlaut.cap" 
d="M254 802l-157 -99l-22 28l149 117zM392 767l-167 -64l-16 29l160 84z" />
    <glyph glyph-name="grave.cap" 
d="M295 703l-160 87l30 46l150 -105z" />
    <glyph glyph-name="macron.cap" 
d="M88 754v43h274v-43h-274z" />
    <glyph glyph-name="tilde.cap" 
d="M96 734l-21 23q48 54 90 54q29 0 68.5 -15t57.5 -15q41 0 67 32l19 -22q-41 -52 -87 -52q-22 0 -63 15t-60 15q-43 0 -71 -35z" />
    <glyph glyph-name="commaaccent" 
d="M229 -69h45q-6 -89 -46 -156l-36 10q37 75 37 146z" />
    <glyph glyph-name="ring.cap" 
d="M221 687q-43 0 -71 26.5t-28 68.5q0 41 29 67.5t72 26.5q45 0 71.5 -25.5t26.5 -68.5q0 -40 -28 -67.5t-72 -27.5zM221 718q60 0 60 64t-60 64q-61 0 -61 -64q0 -31 16 -47.5t45 -16.5z" />
    <glyph glyph-name="caron.alt" 
d="M190 509l30 176h48l-40 -176h-38z" />
    <glyph glyph-name="zero.smcp_zero" horiz-adv-x="530" 
d="M262 -7q-100 0 -150 65t-50 182q0 54 9.5 98.5t31.5 83.5t63.5 61t99.5 22q202 0 202 -241q0 -48 -8.5 -90.5t-29.5 -86t-64 -69t-104 -25.5zM112 258q0 -133 50 -184l175 370q-32 16 -75 16q-44 0 -74.5 -17.5t-46.5 -48.5t-22.5 -64t-6.5 -72zM267 36q45 0 77 20.5
t47 55.5t21.5 69.5t6.5 73.5q0 117 -48 165l-175 -370q30 -14 71 -14z" />
    <glyph glyph-name="zero.smcp" horiz-adv-x="530" 
d="M262 -7q-100 0 -150 65t-50 182q0 54 9.5 98.5t31.5 83.5t63.5 61t99.5 22q202 0 202 -241q0 -48 -8.5 -90.5t-29.5 -86t-64 -69t-104 -25.5zM267 36q45 0 77 20.5t47 55.5t21.5 69.5t6.5 73.5q0 31 -3 56.5t-12.5 54.5t-26 48.5t-46 32.5t-69.5 13q-44 0 -74.5 -17.5
t-46.5 -48.5t-22.5 -64t-6.5 -72q0 -45 5 -78.5t20 -69t48 -55t82 -19.5z" />
    <glyph glyph-name="one.smcp" horiz-adv-x="296" 
d="M158 0v456l-125 -6v46l173 9v-505h-48z" />
    <glyph glyph-name="two.smcp" horiz-adv-x="452" 
d="M44 0v39q98 69 190 166t92 161q0 43 -30 68.5t-73 25.5q-63 0 -117 -52l-31 30q29 30 71 48.5t84 18.5q61 0 103 -35.5t42 -99.5q0 -68 -80 -160.5t-178 -165.5h284v-44h-357z" />
    <glyph glyph-name="three.smcp" horiz-adv-x="443" 
d="M194 -7q-45 0 -90 16.5t-58 29.5l30 38q53 -41 126 -41q53 0 93 26t40 69q0 98 -200 111v38q70 6 122 34t52 73q0 34 -28.5 53.5t-72.5 19.5q-61 0 -113 -34l-23 38q63 41 143 41q62 0 102.5 -31.5t40.5 -79.5q0 -46 -32.5 -78.5t-85.5 -48.5q67 -13 105.5 -48t38.5 -85
q0 -59 -46.5 -100t-143.5 -41z" />
    <glyph glyph-name="four.smcp" horiz-adv-x="481" 
d="M305 2v133h-265v38l264 325h50v-320h83v-43h-83v-133h-49zM96 179h209v259z" />
    <glyph glyph-name="five.smcp" horiz-adv-x="439" 
d="M192 -7q-38 0 -77 14t-62 33l27 39q53 -43 124 -43q53 0 89.5 28t36.5 79q0 69 -64 96t-181 27v232h280v-45h-232v-143q248 -6 248 -165q0 -64 -46.5 -108t-142.5 -44z" />
    <glyph glyph-name="six.smcp" horiz-adv-x="478" 
d="M246 -7q-185 0 -185 237q0 127 76.5 201t212.5 74q13 0 47 -2v-46q-38 4 -52 4q-98 0 -163 -53.5t-71 -152.5q67 43 155 43q66 0 111 -35t45 -102q0 -76 -47 -122t-129 -46zM252 36q59 0 89 33t30 82q0 53 -30 78t-96 25q-72 0 -134 -46q4 -172 141 -172z" />
    <glyph glyph-name="seven.smcp" horiz-adv-x="419" 
d="M103 2l232 451h-296v45h352v-32l-237 -464h-51z" />
    <glyph glyph-name="eight.smcp" horiz-adv-x="480" 
d="M239 -7q-68 0 -123.5 33t-55.5 89q0 53 35 86.5t98 61.5q-24 12 -39 21t-35.5 25t-30.5 36t-10 44q0 52 48.5 84t116.5 32q72 0 114.5 -31t42.5 -83q0 -65 -121 -125q27 -13 44.5 -22.5t44 -28t40.5 -41t14 -47.5q0 -58 -55.5 -96t-127.5 -38zM246 35q55 0 90 25t35 63
q0 12 -5 23.5t-16 22t-19.5 18t-26 17.5l-24.5 14t-26 12.5t-20 9.5q-124 -53 -124 -119q0 -41 38.5 -63.5t97.5 -22.5zM125 392q0 -29 20 -46t96 -59q56 31 82 54.5t26 48.5q0 37 -31.5 54.5t-75.5 17.5q-53 0 -85 -18.5t-32 -51.5z" />
    <glyph glyph-name="nine.smcp" horiz-adv-x="478" 
d="M81 -5v46q38 -4 52 -4q98 0 163.5 54t70.5 152q-68 -44 -155 -44q-66 0 -111 35.5t-45 102.5q0 76 47 122t129 46q185 0 185 -238q0 -126 -77 -200t-212 -74q-13 0 -47 2zM233 244q72 0 134 46q-4 172 -141 172q-59 0 -89 -33t-30 -82q0 -53 30 -78t96 -25z" />
    <glyph glyph-name="zero.pnum_onum_zero" horiz-adv-x="584" 
d="M295 510q102 -2 166.5 -67.5t64.5 -193.5q0 -116 -69.5 -188t-167.5 -72q-99 0 -165 68.5t-66 191.5q0 120 68.5 190.5t168.5 70.5zM110 249q0 -112 60 -169l215 363q-40 22 -93 22q-83 0 -132.5 -55.5t-49.5 -160.5zM292 34q77 0 129.5 56t52.5 159q0 114 -58 170
l-215 -363q38 -22 91 -22z" />
    <glyph glyph-name="zero.pnum_onum" horiz-adv-x="584" 
d="M295 510q102 -2 166.5 -67.5t64.5 -193.5q0 -116 -69.5 -188t-167.5 -72q-99 0 -165 68.5t-66 191.5q0 120 68.5 190.5t168.5 70.5zM292 34q77 0 129.5 56t52.5 159q0 107 -49 161.5t-133 54.5q-83 0 -132.5 -55.5t-49.5 -160.5q0 -103 50.5 -159t131.5 -56z" />
    <glyph glyph-name="one.pnum_onum" horiz-adv-x="322" 
d="M30 451v45l205 11v-507h-50v458z" />
    <glyph glyph-name="two.pnum_onum" horiz-adv-x="483" 
d="M43 41q301 193 301 319q0 50 -27.5 76.5t-76.5 26.5q-84 0 -133 -69l-33 32q30 39 75 61t93 22q66 0 109.5 -37t43.5 -112q0 -35 -18 -71.5t-45 -67.5t-67.5 -65t-75 -58t-78.5 -52h328v-46h-396v41z" />
    <glyph glyph-name="three.pnum_onum" horiz-adv-x="492" 
d="M410 368q0 -67 -44.5 -110.5t-119.5 -59.5q93 -14 144.5 -60t51.5 -117q0 -75 -56.5 -128t-174.5 -53q-55 0 -108 20t-68 36l31 42q28 -23 71 -38t84 -15q67 0 118 36t51 97q0 136 -247 154v38q87 8 151 46t64 102q0 48 -36.5 76t-92.5 28q-77 0 -139 -44l-22 40
q8 6 22.5 14.5t59 22.5t87.5 14q75 0 124 -40.5t49 -100.5z" />
    <glyph glyph-name="four.pnum_onum" horiz-adv-x="543" 
d="M407 34v-177h-50v177h-328v42l323 429h55v-426h103v-45h-103zM82 80h275v367z" />
    <glyph glyph-name="five.pnum_onum" horiz-adv-x="489" 
d="M132 453v-204q156 -3 231 -56t75 -157q0 -83 -56.5 -139.5t-172.5 -56.5q-47 0 -92 17t-73 41l28 42q61 -55 152 -55q68 0 114.5 38.5t46.5 109.5q0 66 -41.5 105t-104.5 52t-157 13v297h337v-47h-287z" />
    <glyph glyph-name="six.pnum_onum" horiz-adv-x="550" 
d="M445 194q0 74 -38.5 109t-122.5 35q-92 0 -171 -65q4 -238 180 -238q75 0 113.5 46t38.5 113zM498 207q0 -98 -57 -157.5t-156 -59.5q-224 0 -224 310q0 166 93.5 262.5t258.5 96.5q27 0 54 -3v-48q-27 4 -60 4q-126 0 -208.5 -75.5t-85.5 -214.5q90 62 197 62
q80 0 134 -45.5t54 -131.5z" />
    <glyph glyph-name="seven.pnum_onum" horiz-adv-x="474" 
d="M454 500v-35l-292 -613h-51l287 601h-371v47h427z" />
    <glyph glyph-name="eight.pnum_onum" horiz-adv-x="548" 
d="M468 514q0 -85 -158 -166q6 -3 29 -15.5t32.5 -18t30 -18.5t30 -21.5t24.5 -22.5t21.5 -26.5t12 -29.5t5.5 -34q0 -75 -67 -123.5t-154 -48.5q-83 0 -150 42.5t-67 114.5q0 37 13.5 67.5t40.5 54t53.5 39.5t64.5 35q-5 3 -30 17.5t-30.5 18t-24 16t-23.5 18.5t-16.5 18.5
t-15 23t-7 25.5t-3.5 31q0 66 58.5 107t141.5 41q86 0 137.5 -39.5t51.5 -105.5zM442 157q0 34 -31.5 67.5t-56 48t-76.5 40.5q-2 2 -3.5 2.5t-3.5 1.5l-4 2q-71 -33 -114.5 -71t-43.5 -94q0 -58 49 -89t124 -31q70 0 115 34.5t45 88.5zM128 515q0 -42 25 -65t123 -82
q72 43 105 75.5t33 68.5q0 53 -40 78t-97 25q-67 0 -108 -27t-41 -73z" />
    <glyph glyph-name="nine.pnum_onum" horiz-adv-x="539" 
d="M101 305q0 -74 38.5 -109t122.5 -35q92 0 171 65q-4 238 -180 238q-75 0 -113.5 -46t-38.5 -113zM48 292q0 98 57 157.5t156 59.5q224 0 224 -310q0 -166 -93.5 -262.5t-258.5 -96.5q-27 0 -54 3v48q27 -4 60 -4q126 0 208.5 75.5t85.5 214.5q-90 -62 -197 -62
q-80 0 -134 45.5t-54 131.5z" />
    <glyph glyph-name="zero.tnum_lnum_zero" horiz-adv-x="600" 
d="M301 659q245 0 245 -315q0 -49 -6 -93.5t-22.5 -93.5t-43.5 -84.5t-73 -59t-106 -23.5q-120 0 -181 85t-61 238q0 70 11.5 128t38 109t77 80t121.5 29zM302 35q46 0 81.5 19.5t56 49t33 70.5t17 78.5t4.5 79.5q0 170 -69 234l-223 -507q42 -24 100 -24zM105 336
q0 -180 64 -250l222 505q-42 21 -96 21q-55 0 -94 -24.5t-59 -66.5t-28.5 -87t-8.5 -98z" />
    <glyph glyph-name="zero.tnum_lnum" horiz-adv-x="600" 
d="M301 659q245 0 245 -315q0 -49 -6 -93.5t-22.5 -93.5t-43.5 -84.5t-73 -59t-106 -23.5q-120 0 -181 85t-61 238q0 70 11.5 128t38 109t77 80t121.5 29zM302 35q46 0 81.5 19.5t56 49t33 70.5t17 78.5t4.5 79.5q0 43 -3.5 77.5t-16 74t-33 66t-58 44.5t-88.5 18
q-55 0 -94 -24.5t-59 -66.5t-28.5 -87t-8.5 -98q0 -47 3.5 -84.5t15.5 -80t32.5 -70.5t58 -47t87.5 -19z" />
    <glyph glyph-name="one.tnum_lnum" horiz-adv-x="600" 
d="M129 599v48l205 11v-612h188v-46h-426v46h188v560z" />
    <glyph glyph-name="two.tnum_lnum" horiz-adv-x="600" 
d="M79 41q51 39 108 92.5t112.5 116t91.5 126.5t36 110q0 60 -38.5 93t-93.5 33q-38 0 -77.5 -19t-67.5 -49l-30 32q33 37 82.5 60t101.5 23q73 0 123.5 -43.5t50.5 -124.5q0 -92 -105.5 -222t-225.5 -223h364v-46h-432v41z" />
    <glyph glyph-name="three.tnum_lnum" horiz-adv-x="600" 
d="M463 518q0 -67 -44.5 -110.5t-119.5 -59.5q93 -14 144.5 -60t51.5 -117q0 -75 -56.5 -128t-174.5 -53q-55 0 -108 20t-68 36l31 42q28 -23 71 -38t84 -15q67 0 118 36t51 97q0 136 -247 154v38q87 8 151 46t64 102q0 48 -36.5 76t-92.5 28q-77 0 -139 -44l-22 40
q8 6 22.5 14.5t59 22.5t87.5 14q75 0 124 -40.5t49 -100.5z" />
    <glyph glyph-name="four.tnum_lnum" horiz-adv-x="600" 
d="M435 179v-177h-50v177h-328v42l323 429h55v-426h103v-45h-103zM110 225h275v367z" />
    <glyph glyph-name="five.tnum_lnum" horiz-adv-x="600" 
d="M188 603v-204q156 -3 231 -56t75 -157q0 -83 -56.5 -139.5t-172.5 -56.5q-47 0 -92 17t-73 41l28 42q61 -55 152 -55q68 0 114.5 38.5t46.5 109.5q0 66 -41.5 105t-104.5 52t-157 13v297h337v-47h-287z" />
    <glyph glyph-name="six.tnum_lnum" horiz-adv-x="600" 
d="M469 194q0 74 -38.5 109t-122.5 35q-92 0 -171 -65q4 -238 180 -238q75 0 113.5 46t38.5 113zM522 207q0 -98 -57 -157.5t-156 -59.5q-224 0 -224 310q0 166 93.5 262.5t258.5 96.5q27 0 54 -3v-48q-27 4 -60 4q-126 0 -208.5 -75.5t-85.5 -214.5q90 62 197 62
q80 0 134 -45.5t54 -131.5z" />
    <glyph glyph-name="seven.tnum_lnum" horiz-adv-x="600" 
d="M519 650v-35l-292 -613h-51l287 601h-371v47h427z" />
    <glyph glyph-name="eight.tnum_lnum" horiz-adv-x="600" 
d="M493 514q0 -85 -158 -166q6 -3 29 -15.5t32.5 -18t30 -18.5t30 -21.5t24.5 -22.5t21.5 -26.5t12 -29.5t5.5 -34q0 -75 -67 -123.5t-154 -48.5q-83 0 -150 42.5t-67 114.5q0 37 13.5 67.5t40.5 54t53.5 39.5t64.5 35q-5 3 -30 17.5t-30.5 18t-24 16t-23.5 18.5t-16.5 18.5
t-15 23t-7 25.5t-3.5 31q0 66 58.5 107t141.5 41q86 0 137.5 -39.5t51.5 -105.5zM467 157q0 34 -31.5 67.5t-56 48t-76.5 40.5q-2 2 -3.5 2.5t-3.5 1.5l-4 2q-71 -33 -114.5 -71t-43.5 -94q0 -58 49 -89t124 -31q70 0 115 34.5t45 88.5zM153 515q0 -42 25 -65t123 -82
q72 43 105 75.5t33 68.5q0 53 -40 78t-97 25q-67 0 -108 -27t-41 -73z" />
    <glyph glyph-name="nine.tnum_lnum" horiz-adv-x="600" 
d="M130 455q0 -74 38.5 -109t122.5 -35q92 0 171 65q-4 238 -180 238q-75 0 -113.5 -46t-38.5 -113zM77 442q0 98 57 157.5t156 59.5q224 0 224 -310q0 -166 -93.5 -262.5t-258.5 -96.5q-27 0 -54 3v48q27 -4 60 -4q126 0 208.5 75.5t85.5 214.5q-90 -62 -197 -62
q-80 0 -134 45.5t-54 131.5z" />
    <glyph glyph-name="zero.tnum_onum_zero" horiz-adv-x="600" 
d="M303 510q102 -2 166.5 -67.5t64.5 -193.5q0 -116 -69.5 -188t-167.5 -72q-99 0 -165 68.5t-66 191.5q0 120 68.5 190.5t168.5 70.5zM118 249q0 -112 60 -169l215 363q-40 22 -93 22q-83 0 -132.5 -55.5t-49.5 -160.5zM300 34q77 0 129.5 56t52.5 159q0 114 -58 170
l-215 -363q38 -22 91 -22z" />
    <glyph glyph-name="zero.tnum_onum" horiz-adv-x="600" 
d="M303 510q102 -2 166.5 -67.5t64.5 -193.5q0 -116 -69.5 -188t-167.5 -72q-99 0 -165 68.5t-66 191.5q0 120 68.5 190.5t168.5 70.5zM300 34q77 0 129.5 56t52.5 159q0 107 -49 161.5t-133 54.5q-83 0 -132.5 -55.5t-49.5 -160.5q0 -103 50.5 -159t131.5 -56z" />
    <glyph glyph-name="one.tnum_onum" horiz-adv-x="600" 
d="M134 451v45l205 11v-461h183v-46h-426v46h193v412z" />
    <glyph glyph-name="two.tnum_onum" horiz-adv-x="600" 
d="M102 41q301 193 301 319q0 50 -27.5 76.5t-76.5 26.5q-84 0 -133 -69l-33 32q30 39 75 61t93 22q66 0 109.5 -37t43.5 -112q0 -35 -18 -71.5t-45 -67.5t-67.5 -65t-75 -58t-78.5 -52h328v-46h-396v41z" />
    <glyph glyph-name="three.tnum_onum" horiz-adv-x="600" 
d="M465 368q0 -67 -44.5 -110.5t-119.5 -59.5q93 -14 144.5 -60t51.5 -117q0 -75 -56.5 -128t-174.5 -53q-55 0 -108 20t-68 36l31 42q28 -23 71 -38t84 -15q67 0 118 36t51 97q0 136 -247 154v38q87 8 151 46t64 102q0 48 -36.5 76t-92.5 28q-77 0 -139 -44l-22 40
q8 6 22.5 14.5t59 22.5t87.5 14q75 0 124 -40.5t49 -100.5z" />
    <glyph glyph-name="four.tnum_onum" horiz-adv-x="600" 
d="M435 34v-177h-50v177h-328v42l323 429h55v-426h103v-45h-103zM110 80h275v367z" />
    <glyph glyph-name="five.tnum_onum" horiz-adv-x="600" 
d="M188 453v-204q156 -3 231 -56t75 -157q0 -83 -56.5 -139.5t-172.5 -56.5q-47 0 -92 17t-73 41l28 42q61 -55 152 -55q68 0 114.5 38.5t46.5 109.5q0 66 -41.5 105t-104.5 52t-157 13v297h337v-47h-287z" />
    <glyph glyph-name="six.tnum_onum" horiz-adv-x="600" 
d="M469 194q0 74 -38.5 109t-122.5 35q-92 0 -171 -65q4 -238 180 -238q75 0 113.5 46t38.5 113zM522 207q0 -98 -57 -157.5t-156 -59.5q-224 0 -224 310q0 166 93.5 262.5t258.5 96.5q27 0 54 -3v-48q-27 4 -60 4q-126 0 -208.5 -75.5t-85.5 -214.5q90 62 197 62
q80 0 134 -45.5t54 -131.5z" />
    <glyph glyph-name="seven.tnum_onum" horiz-adv-x="600" 
d="M518 500v-35l-292 -613h-51l287 601h-371v47h427z" />
    <glyph glyph-name="eight.tnum_onum" horiz-adv-x="600" 
d="M493 514q0 -85 -158 -166q6 -3 29 -15.5t32.5 -18t30 -18.5t30 -21.5t24.5 -22.5t21.5 -26.5t12 -29.5t5.5 -34q0 -75 -67 -123.5t-154 -48.5q-83 0 -150 42.5t-67 114.5q0 37 13.5 67.5t40.5 54t53.5 39.5t64.5 35q-5 3 -30 17.5t-30.5 18t-24 16t-23.5 18.5t-16.5 18.5
t-15 23t-7 25.5t-3.5 31q0 66 58.5 107t141.5 41q86 0 137.5 -39.5t51.5 -105.5zM467 157q0 34 -31.5 67.5t-56 48t-76.5 40.5q-2 2 -3.5 2.5t-3.5 1.5l-4 2q-71 -33 -114.5 -71t-43.5 -94q0 -58 49 -89t124 -31q70 0 115 34.5t45 88.5zM153 515q0 -42 25 -65t123 -82
q72 43 105 75.5t33 68.5q0 53 -40 78t-97 25q-67 0 -108 -27t-41 -73z" />
    <glyph glyph-name="nine.tnum_onum" horiz-adv-x="600" 
d="M132 305q0 -74 38.5 -109t122.5 -35q92 0 171 65q-4 238 -180 238q-75 0 -113.5 -46t-38.5 -113zM79 292q0 98 57 157.5t156 59.5q224 0 224 -310q0 -166 -93.5 -262.5t-258.5 -96.5q-27 0 -54 3v48q27 -4 60 -4q126 0 208.5 75.5t85.5 214.5q-90 -62 -197 -62
q-80 0 -134 45.5t-54 131.5z" />
    <glyph glyph-name="zero.numr" horiz-adv-x="344" 
d="M170 299q-66 0 -99.5 46t-33.5 128q0 186 136 186q134 0 134 -170q0 -34 -6 -64t-19.5 -60t-42.5 -48t-69 -18zM174 336q50 0 70 44t20 103q0 137 -94 137q-89 0 -89 -135q0 -30 3 -52.5t12 -46.5t28.5 -37t49.5 -13z" />
    <glyph glyph-name="one.numr" horiz-adv-x="185" 
d="M94 304v313l-79 -4v39l122 7v-355h-43z" />
    <glyph glyph-name="two.numr" horiz-adv-x="291" 
d="M23 304v31q62 47 120.5 115t58.5 112q0 28 -17.5 43t-42.5 15q-37 0 -74 -39l-26 28q45 50 105 50q41 0 69.5 -24.5t28.5 -69.5t-48.5 -108.5t-109.5 -114.5h175v-38h-239z" />
    <glyph glyph-name="three.numr" horiz-adv-x="285" 
d="M124 299q-30 0 -60.5 12.5t-40.5 22.5l25 34q37 -32 81 -32q31 0 54.5 16.5t23.5 45.5q0 64 -127 73v33q45 3 78 21.5t33 48.5q0 21 -16.5 33.5t-41.5 12.5q-37 0 -74 -27l-19 34q44 32 97 32q42 0 69.5 -23t27.5 -57q0 -61 -64 -87q81 -22 81 -93q0 -42 -31 -71t-96 -29
z" />
    <glyph glyph-name="four.numr" horiz-adv-x="310" 
d="M186 305v92h-168v30l170 227h41v-220h53v-37h-53v-92h-43zM69 434h117v159z" />
    <glyph glyph-name="five.numr" horiz-adv-x="285" 
d="M125 299q-53 0 -95 36l23 34q38 -33 80 -33q31 0 52.5 18.5t21.5 51.5q0 45 -41 63t-115 18v167h190v-38h-147v-92q157 -6 157 -117q0 -46 -31 -77t-95 -31z" />
    <glyph glyph-name="six.numr" horiz-adv-x="309" 
d="M159 299q-123 0 -123 167q0 89 50 141t139 52q6 0 36 -2v-40q-32 4 -39 4q-57 0 -96.5 -33.5t-45.5 -95.5q42 25 92 25q45 0 75 -25.5t30 -73.5q0 -53 -31.5 -86t-86.5 -33zM163 336q34 0 52 22t18 53q0 68 -74 68q-41 0 -80 -30q4 -113 84 -113z" />
    <glyph glyph-name="seven.numr" horiz-adv-x="268" 
d="M58 305l147 311h-186v38h236v-26l-153 -323h-44z" />
    <glyph glyph-name="eight.numr" horiz-adv-x="311" 
d="M155 299q-46 0 -83 24t-37 64q0 60 81 102q-24 14 -36 23.5t-22.5 26t-10.5 36.5q0 38 32.5 61t78.5 23q47 0 76 -22.5t29 -59.5q0 -45 -73 -86q28 -16 42 -25t29.5 -29t15.5 -42q0 -42 -37 -69t-85 -27zM159 336q33 0 53.5 15.5t20.5 40.5q0 16 -15 31.5t-28.5 23.5
t-38.5 21q-72 -36 -72 -77q0 -27 22.5 -41t57.5 -14zM89 577q0 -18 11.5 -29t55.5 -38q63 38 63 66q0 24 -18 35t-44 11q-31 0 -49.5 -12t-18.5 -33z" />
    <glyph glyph-name="nine.numr" horiz-adv-x="309" 
d="M48 301v40q23 -4 39 -4q58 0 97 33t45 95q-43 -24 -92 -24q-45 0 -75 25.5t-30 73.5q0 53 31.5 86t86.5 33q123 0 123 -167q0 -89 -50 -141t-139 -52q-6 0 -36 2zM151 479q39 0 79 29q-4 114 -84 114q-35 0 -52.5 -22t-17.5 -54q0 -67 75 -67z" />
    <glyph glyph-name="copyright.pnum_onum" horiz-adv-x="603" 
d="M300 -7q-98 0 -168.5 72t-70.5 173q0 102 70.5 174t168.5 72q100 0 171 -72t71 -174q0 -101 -71 -173t-171 -72zM300 23q88 0 147.5 61t59.5 154q0 90 -60 152.5t-147 62.5t-145.5 -60.5t-58.5 -154.5t58.5 -154.5t145.5 -60.5zM316 84q-159 0 -159 152q0 77 43.5 117
t118.5 40q48 0 82 -15l-10 -33q-27 19 -71 19q-128 0 -128 -127q0 -124 125 -124q54 0 81 16l8 -30q-34 -15 -90 -15z" />
    <glyph glyph-name="uni2117.pnum_onum" horiz-adv-x="603" 
d="M300 -7q-98 0 -168.5 72t-70.5 173q0 102 70.5 174t168.5 72q100 0 171 -72t71 -174q0 -101 -71 -173t-171 -72zM300 23q88 0 147.5 61t59.5 154q0 90 -60 152.5t-147 62.5t-145.5 -60.5t-58.5 -154.5t58.5 -154.5t145.5 -60.5zM217 69v334h90q61 0 87 -25.5t26 -78.5
q0 -49 -29 -76.5t-75 -27.5h-66v-126h-33zM250 223h58q77 0 77 74q0 42 -18 59t-61 17h-56v-150z" />
    <glyph glyph-name="uni267E.pnum_onum" horiz-adv-x="603" 
d="M300 -7q-98 0 -168.5 72t-70.5 173q0 102 70.5 174t168.5 72q100 0 171 -72t71 -174q0 -101 -71 -173t-171 -72zM300 23q88 0 147.5 61t59.5 154q0 90 -60 152.5t-147 62.5t-145.5 -60.5t-58.5 -154.5t58.5 -154.5t145.5 -60.5zM208 128q-33 0 -55 32t-22 78t24 78t60 32
q53 0 91 -90q16 38 40.5 64t50.5 26q36 0 57 -31.5t21 -78.5q0 -46 -23.5 -78t-59.5 -32q-50 0 -87 92q-15 -39 -41 -65.5t-56 -26.5zM158 238q0 -81 50 -81q22 0 45.5 21.5t41.5 59.5q-15 35 -37.5 57t-42.5 22q-57 0 -57 -79zM318 239q37 -82 74 -82q53 0 53 81
q0 40 -10.5 59.5t-37.5 19.5q-42 0 -79 -78z" />
    <glyph glyph-name="threesup_fraction_eightinf" horiz-adv-x="824" 
d="M218 39l-29 22l471 569l28 -25zM650 -5q-46 0 -83 24t-37 64q0 60 81 102q-24 14 -36 23.5t-22.5 26t-10.5 36.5q0 38 32.5 61t78.5 23q47 0 76 -22.5t29 -59.5q0 -45 -73 -86q28 -16 42 -25t29.5 -29t15.5 -42q0 -42 -37 -69t-85 -27zM654 32q33 0 53.5 15.5t20.5 40.5
q0 16 -15 31.5t-28.5 23.5t-38.5 21q-72 -36 -72 -77q0 -27 22.5 -41t57.5 -14zM584 273q0 -18 11.5 -29t55.5 -38q63 38 63 66q0 24 -18 35t-44 11q-31 0 -49.5 -12t-18.5 -33zM150 299q-30 0 -60.5 12.5t-40.5 22.5l25 34q37 -32 81 -32q31 0 54.5 16.5t23.5 45.5
q0 64 -127 73v33q45 3 78 21.5t33 48.5q0 21 -16.5 33.5t-41.5 12.5q-37 0 -74 -27l-19 34q44 32 97 32q42 0 69.5 -23t27.5 -57q0 -61 -64 -87q81 -22 81 -93q0 -42 -31 -71t-96 -29z" />
    <glyph glyph-name="fivesup_fraction_eightinf" horiz-adv-x="827" 
d="M218 39l-29 22l471 569l28 -25zM653 -5q-46 0 -83 24t-37 64q0 60 81 102q-24 14 -36 23.5t-22.5 26t-10.5 36.5q0 38 32.5 61t78.5 23q47 0 76 -22.5t29 -59.5q0 -45 -73 -86q28 -16 42 -25t29.5 -29t15.5 -42q0 -42 -37 -69t-85 -27zM657 32q33 0 53.5 15.5t20.5 40.5
q0 16 -15 31.5t-28.5 23.5t-38.5 21q-72 -36 -72 -77q0 -27 22.5 -41t57.5 -14zM587 273q0 -18 11.5 -29t55.5 -38q63 38 63 66q0 24 -18 35t-44 11q-31 0 -49.5 -12t-18.5 -33zM147 299q-53 0 -95 36l23 34q38 -33 80 -33q31 0 52.5 18.5t21.5 51.5q0 45 -41 63t-115 18
v167h190v-38h-147v-92q157 -6 157 -117q0 -46 -31 -77t-95 -31z" />
    <glyph glyph-name="sevensup_fraction_eightinf" horiz-adv-x="737" 
d="M116 39l-29 22l471 569l28 -25zM564 -5q-46 0 -83 24t-37 64q0 60 81 102q-24 14 -36 23.5t-22.5 26t-10.5 36.5q0 38 32.5 61t78.5 23q47 0 76 -22.5t29 -59.5q0 -45 -73 -86q28 -16 42 -25t29.5 -29t15.5 -42q0 -42 -37 -69t-85 -27zM568 32q33 0 53.5 15.5t20.5 40.5
q0 16 -15 31.5t-28.5 23.5t-38.5 21q-72 -36 -72 -77q0 -27 22.5 -41t57.5 -14zM498 273q0 -18 11.5 -29t55.5 -38q63 38 63 66q0 24 -18 35t-44 11q-31 0 -49.5 -12t-18.5 -33zM90 305l147 311h-186v38h236v-26l-153 -323h-44z" />
    <glyph glyph-name="a.smcp" horiz-adv-x="481" 
d="M72 0h-49l195 498h45l195 -498h-52l-54 141h-226zM268 360l-29 83l-28 -83l-68 -176h192z" />
    <glyph glyph-name="b.smcp" horiz-adv-x="476" 
d="M86 0v498h142q82 0 119.5 -31.5t37.5 -95.5q0 -33 -20.5 -60.5t-57.5 -43.5q59 -10 87.5 -46t28.5 -81q0 -140 -186 -140h-151zM135 45h103q71 0 102.5 22.5t31.5 72.5q0 96 -141 96h-96v-191zM135 280h87q48 0 80 25t32 65q0 83 -108 83h-91v-173z" />
    <glyph glyph-name="c.smcp" horiz-adv-x="487" 
d="M301 -7q-244 0 -244 252q0 124 67 192t181 68q77 0 127 -27l-18 -50q-43 32 -109 32q-197 0 -197 -214q0 -106 48 -157t146 -51q82 0 123 26l15 -44q-56 -27 -139 -27z" />
    <glyph glyph-name="d.smcp" horiz-adv-x="558" 
d="M86 0v498h180q66 0 113.5 -21t72.5 -57.5t36 -77.5t11 -90q0 -57 -10.5 -99.5t-36.5 -78.5t-74 -55t-118 -19h-174zM135 45h132q57 0 94.5 15.5t55.5 46t24.5 63t6.5 79.5q0 40 -8.5 74t-28 64.5t-56.5 48t-88 17.5h-132v-408z" />
    <glyph glyph-name="e.smcp" horiz-adv-x="445" 
d="M86 0v498h298v-45h-249v-174h220v-45h-220v-188h249v-46h-298z" />
    <glyph glyph-name="f.smcp" horiz-adv-x="423" 
d="M86 0v498h293v-45h-244v-193h215v-45h-215v-215h-49z" />
    <glyph glyph-name="g.smcp" horiz-adv-x="528" 
d="M307 -7q-51 0 -93 12t-79 39t-57.5 78t-20.5 123q0 129 70.5 194.5t183.5 65.5q84 0 142 -31l-18 -50q-49 36 -123 36q-204 0 -204 -214q0 -210 201 -210q52 0 106 26v190h49v-209q-24 -19 -67.5 -34.5t-89.5 -15.5z" />
    <glyph glyph-name="h.smcp" horiz-adv-x="547" 
d="M86 0v498h49v-217h277v217h49v-498h-49v236h-277v-236h-49z" />
    <glyph glyph-name="i.smcp" horiz-adv-x="221" 
d="M135 0h-49v498h49v-498z" />
    <glyph glyph-name="j.smcp" horiz-adv-x="220" 
d="M14 -115l-17 39q44 14 66 41.5t22 77.5v455h49v-456q0 -59 -29.5 -100.5t-90.5 -56.5z" />
    <glyph glyph-name="k.smcp" horiz-adv-x="477" 
d="M391 0l-224 228l-32 -5v-223h-49v498h49v-235l35 9l208 226h55l-225 -244q40 -42 123.5 -127t123.5 -127h-64z" />
    <glyph glyph-name="l.smcp" horiz-adv-x="391" 
d="M86 0v498h49v-452h233v-46h-282z" />
    <glyph glyph-name="m.smcp" horiz-adv-x="671" 
d="M86 0v498h48l150 -320l54 -127l52 120l145 327h50v-498h-48v407l-35 -90l-141 -317h-45l-141 300l-43 97l1 -89v-308h-47z" />
    <glyph glyph-name="n.smcp" horiz-adv-x="579" 
d="M86 0v498h46l249 -329l66 -92l-1 59v362h47v-498h-45l-248 330l-67 94l1 -75v-349h-48z" />
    <glyph glyph-name="o.smcp" horiz-adv-x="582" 
d="M288 -7q-115 0 -173 68t-58 188q0 114 63.5 185t173.5 71q115 0 173.5 -69t58.5 -188q0 -113 -65.5 -184t-172.5 -71zM288 38q91 0 139 58.5t48 151.5q0 100 -44 156t-137 56q-94 0 -140 -56t-46 -155q0 -211 180 -211z" />
    <glyph glyph-name="p.smcp" horiz-adv-x="448" 
d="M86 0v498h142q96 0 138 -38.5t42 -117.5q0 -74 -47 -116t-121 -42h-105v-184h-49zM135 228h100q122 0 122 111q0 59 -30 86.5t-96 27.5h-96v-225z" />
    <glyph glyph-name="q.smcp" horiz-adv-x="582" 
d="M288 -7q-115 0 -173 68t-58 188q0 114 63.5 185t173.5 71q115 0 173.5 -69t58.5 -188q0 -82 -36 -143.5t-99 -90.5l135 -131l-46 -33l-135 149q-27 -6 -57 -6zM288 36q91 0 139 59t48 153q0 100 -44 156t-137 56q-94 0 -140 -56t-46 -155q0 -213 180 -213z" />
    <glyph glyph-name="r.smcp" horiz-adv-x="479" 
d="M86 0v498h137q97 0 139 -35.5t42 -113.5q0 -50 -26.5 -85.5t-72.5 -50.5l134 -213h-59l-127 203h-118v-203h-49zM135 246h95q123 0 123 100q0 58 -30 82.5t-97 24.5h-91v-207z" />
    <glyph glyph-name="s.smcp" horiz-adv-x="421" 
d="M202 -7q-78 0 -151 38l18 50q22 -16 59.5 -29t73.5 -13q49 0 83.5 21.5t34.5 61.5q0 24 -9 42t-29.5 31.5t-36.5 21t-46 19.5q-35 14 -51.5 22t-40.5 25t-34.5 40t-10.5 54q0 57 45 92.5t112 35.5q74 0 133 -33l-18 -50q-49 38 -115 38q-49 0 -77.5 -21.5t-28.5 -57.5
q0 -21 8.5 -37t27.5 -28.5t34.5 -19.5t44.5 -18q36 -14 53.5 -23t42.5 -27t36 -42.5t11 -57.5q0 -58 -49 -96.5t-120 -38.5z" />
    <glyph glyph-name="t.smcp" horiz-adv-x="431" 
d="M192 0v453h-168v45h383v-45h-166v-453h-49z" />
    <glyph glyph-name="u.smcp" horiz-adv-x="559" 
d="M279 -7q-61 0 -101.5 14t-61 41.5t-28 59.5t-7.5 77v313h49v-313q0 -82 35 -114.5t115 -32.5q81 0 115 36t34 119v305h49v-305q0 -43 -7.5 -75.5t-27.5 -62.5t-61.5 -46t-102.5 -16z" />
    <glyph glyph-name="v.smcp" horiz-adv-x="482" 
d="M222 0l-202 498h50l145 -357l31 -87l28 86l133 358h48l-188 -498h-45z" />
    <glyph glyph-name="w.smcp" horiz-adv-x="706" 
d="M177 0l-146 498h51l94 -338l25 -101l26 100l103 333h48l109 -336l28 -97l20 98l83 341h48l-129 -498h-46l-105 324l-34 107l-31 -109l-99 -322h-45z" />
    <glyph glyph-name="x.smcp" horiz-adv-x="474" 
d="M27 0l183 260l-167 238h56l139 -203l141 203h51l-166 -236l184 -262h-55l-156 227l-157 -227h-53z" />
    </font>
</defs>
</svg>
